<svg width="283" height="319" viewBox="0 0 283 319" fill="none" xmlns="http://www.w3.org/2000/svg">
<g opacity="0.05">
<path d="M139.182 143.648L110.484 117.722L96.881 132.78L125.579 158.706L127.225 171.786L140.898 172.545L257.607 277.982L271.21 262.924L154.501 157.487L151.622 144.78L139.182 143.648Z" fill="#F4B186"/>
<rect width="18.1972" height="13.2344" transform="matrix(-0.670364 0.742033 0.742033 0.670364 254.219 261.99)" fill="#F4B186"/>
<rect width="18.1972" height="13.2344" transform="matrix(-0.670364 0.742033 0.742033 0.670364 214.938 226.504)" fill="#F4B186"/>
<rect width="31.7625" height="13.2344" transform="matrix(-0.670364 0.742033 0.742033 0.670364 234.578 244.247)" fill="#F4B186"/>
<path fill-rule="evenodd" clip-rule="evenodd" d="M112.806 134.236L22.045 138.842L17.4396 48.0807L108.2 43.4753L112.806 134.236ZM98.9186 121.69L95.6545 57.3624L31.3267 60.6266L34.5908 124.954L98.9186 121.69Z" fill="#F4B186"/>
</g>
</svg>
