<svg width="76" height="333" viewBox="0 0 76 333" fill="none" xmlns="http://www.w3.org/2000/svg">
<g opacity="0.05">
<path d="M75.6154 154.787V116.112H55.3227V154.787L46.7204 164.776L55.3227 175.431V332.714H75.6154V175.431L83.1148 164.776L75.6154 154.787Z" fill="#F6AB52"/>
<rect width="26.4771" height="13.2344" transform="matrix(-1 0 0 1 64.9175 319.48)" fill="#F6AB52"/>
<rect width="18.1972" height="13.2344" transform="matrix(-1 0 0 1 64.9173 266.543)" fill="#F6AB52"/>
<rect width="38.4771" height="13.2344" transform="matrix(-1 0 0 1 64.9175 293.011)" fill="#F6AB52"/>
<path fill-rule="evenodd" clip-rule="evenodd" d="M20.4404 106.385L0.656311 64.645L20.4404 18.3848L64.9165 0.384766L114.44 18.3848L129.177 64.645L114.44 106.385L64.9165 128.905L20.4404 106.385ZM30.0385 97.3768L14.524 64.645L30.0385 28.3683L64.9161 14.2529L103.752 28.3683L115.308 64.645L103.752 97.3768L64.9161 115.037L30.0385 97.3768Z" fill="#F6AB52"/>
</g>
</svg>
