<svg width="41" height="41" viewBox="0 0 41 41" fill="none" xmlns="http://www.w3.org/2000/svg">
<mask id="mask0" mask-type="alpha" maskUnits="userSpaceOnUse" x="0" y="0" width="41" height="41">
<circle cx="20.186" cy="20.4854" r="20" fill="#5670AB"/>
</mask>
<g mask="url(#mask0)">
<circle cx="20.186" cy="20.4854" r="20" fill="#F6AB52"/>
<path d="M14.9599 14.3342L19.6158 9.61287L21.4622 11.5686L16.7434 16.1936L14.9599 14.3342Z" fill="#FBFCFF"/>
<path d="M15.6596 17.2563L18.0246 14.9436C18.0246 14.9436 17.4465 14.2092 17.1183 13.8186C16.7902 13.428 16.509 12.7561 16.509 12.7561L12.001 17.2563L19.2236 24.4789L21.0529 22.6496L15.6596 17.2563Z" fill="#FBFCFF"/>
<path d="M25.6287 20.1467L20.9729 15.4254L19.1265 17.3811L23.8452 22.0061L25.6287 20.1467Z" fill="#FBFCFF"/>
<path d="M24.929 23.0688L22.564 20.7561C22.564 20.7561 23.1422 20.0217 23.4703 19.6311C23.7984 19.2405 24.0797 18.5686 24.0797 18.5686L28.5876 23.0688L21.3651 30.2914L19.5358 28.4621L24.929 23.0688Z" fill="#FBFCFF"/>
<path d="M24.8702 23.0597L22.8448 20.8186L22.751 17.2874L28.5288 23.0597L21.3062 30.2823L19.4769 28.453L24.8702 23.0597Z" fill="#FBFCFF"/>
</g>
</svg>
