<svg width="41" height="41" viewBox="0 0 41 41" fill="none" xmlns="http://www.w3.org/2000/svg">
<ellipse cx="20.4392" cy="20.6448" rx="20" ry="19.9351" fill="#F47E3E"/>
<path opacity="0.8" d="M12.4119 3.23407C17.8987 0.563335 24.4998 0.463191 30.2165 3.54571C39.7053 8.6622 43.1644 20.6097 37.9425 30.2311C32.7207 39.8525 20.7953 43.5045 11.3065 38.388C8.18626 36.7056 5.71805 34.2845 3.99609 31.4504C5.52122 33.5508 7.52407 35.3451 9.95349 36.6551C18.7772 41.4129 29.8868 37.9798 34.7674 28.9871C39.6481 19.9943 36.4516 8.84722 27.6279 4.08937C22.7752 1.47272 17.231 1.33352 12.4119 3.23407Z" fill="#F26922"/>
<path opacity="0.8" d="M40.1624 16.663C37.3694 9.89063 30.7282 5.12693 22.98 5.12693C12.7119 5.12693 4.3879 13.4931 4.3879 23.8134C4.3879 29.7159 7.11076 34.9793 11.3629 38.4038C4.8775 35.1 0.439209 28.3895 0.439209 20.6487C0.439209 9.6367 9.42129 0.709717 20.5013 0.709717C30.2078 0.709717 38.3044 7.56083 40.1624 16.663Z" fill="#F6AB52"/>
<path opacity="0.4" d="M30.7986 3.54295C29.1555 2.55995 27.3418 1.79815 25.3877 1.30805C14.6787 -1.37787 3.8088 5.11385 1.10918 15.8077C0.0514914 19.9975 0.40488 24.2107 1.87006 27.9474C0.204482 18.7207 2.9328 9.8164 9.83151 4.96764C15.7851 0.783144 23.5454 0.532356 30.7986 3.54295Z" fill="#F47E3E"/>
<path d="M25.552 22.501C27.3503 21.028 28.4971 18.7947 28.4971 16.2935C28.4971 11.8576 24.8894 8.26221 20.4397 8.26221C16.0149 8.26221 12.4261 11.8185 12.3855 16.2198H12.3816V29.6768V32.7186V32.7231C12.3816 32.8894 12.5183 33.0257 12.6851 33.0257H15.7414C15.9082 33.0257 16.045 32.8894 16.045 32.7231V32.7186V24.6286C16.045 24.4662 16.1758 24.3352 16.3367 24.3287H20.4384V24.3319C22.8588 24.3319 24.8272 26.2946 24.8272 28.7065H24.8318V32.7192V32.7238C24.8318 32.8901 24.9685 33.0263 25.1353 33.0263H28.1916C28.3584 33.0263 28.4951 32.8901 28.4951 32.7238V32.7192V29.6774V28.6263H28.4912C28.4683 26.1583 27.3281 23.9576 25.552 22.501ZM20.4397 20.6687C20.3396 20.6687 17.3082 20.67 16.3505 20.6707C16.1915 20.6615 16.0639 20.5318 16.0639 20.3714L16.062 16.0744C16.1195 13.7987 18.0938 11.9189 20.4397 11.9189C22.8601 11.9189 24.8285 13.8816 24.8285 16.2935C24.8285 18.7061 22.8601 20.6687 20.4397 20.6687Z" fill="white"/>
</svg>
