<svg width="41" height="41" viewBox="0 0 41 41" fill="none" xmlns="http://www.w3.org/2000/svg">
<mask id="mask0" mask-type="alpha" maskUnits="userSpaceOnUse" x="0" y="0" width="41" height="41">
<circle cx="20.1162" cy="20.4854" r="20" fill="#5670AB"/>
</mask>
<g mask="url(#mask0)">
<circle cx="20.1162" cy="20.4854" r="20" fill="#5FBA85"/>
<path d="M27.5447 44.651H12.6879C11.5122 44.651 10.5503 43.6891 10.5503 42.5134L10.5503 13.2275C10.5503 12.0518 11.5122 11.0898 12.6879 11.0898L27.5447 11.0898C28.7204 11.0898 29.6823 12.0518 29.6823 13.2275L29.6823 42.5134C29.6823 43.6891 28.7204 44.651 27.5447 44.651Z" fill="#FBFCFF" stroke="#53A575" stroke-width="2" stroke-miterlimit="10"/>
<path d="M25.4598 11.9983V12.01L25.4605 12.0217C25.4991 12.6385 25.0003 13.1197 24.3919 13.1197H16.1084C15.5139 13.1197 15.0405 12.6463 15.0405 12.0518C15.0405 11.3948 15.5228 10.9304 16.1084 10.9304H24.3919C24.9864 10.9304 25.4598 11.4038 25.4598 11.9983Z" fill="#53A575" stroke="#53A575" stroke-width="0.75"/>
<path fill-rule="evenodd" clip-rule="evenodd" d="M12.4634 36.4986C24.4559 36.4986 34.1778 26.7767 34.1778 14.7842C34.1778 9.30781 32.1505 4.30495 28.8055 0.485107C36.9595 3.61139 42.7484 11.5134 42.7484 20.7674C42.7484 32.7599 33.0265 42.4818 21.034 42.4818C14.5178 42.4818 8.67203 39.6116 4.69189 35.0665C7.10485 35.9916 9.72493 36.4986 12.4634 36.4986Z" fill="#53A575"/>
</g>
</svg>
