<svg width="41" height="41" viewBox="0 0 41 41" fill="none" xmlns="http://www.w3.org/2000/svg">
<mask id="mask0" mask-type="alpha" maskUnits="userSpaceOnUse" x="0" y="0" width="41" height="41">
<circle cx="20.1162" cy="20.4854" r="20" fill="#5670AB"/>
</mask>
<g mask="url(#mask0)">
<circle cx="20.1162" cy="20.4854" r="20" fill="#F47E3E"/>
<path fill-rule="evenodd" clip-rule="evenodd" d="M24.9838 14.5879C24.9133 11.969 24.1489 6.55957 19.8876 6.55957C15.5984 6.55957 15.1757 11.6602 15.1516 14.6144L24.9838 14.5879ZM28.0974 14.5794C28.0876 10.5495 27.8081 3.89372 19.8804 3.89389C12.1165 3.89405 12.164 10.2202 12.1957 14.4409C12.1961 14.5019 12.1966 14.5624 12.197 14.6224L9.73763 14.6291C8.63306 14.6321 7.74005 15.5299 7.74304 16.6345L7.78272 31.3105C7.7857 32.4151 8.68355 33.3081 9.78812 33.3051L30.5257 33.249C31.6303 33.246 32.5233 32.3482 32.5203 31.2436L32.4806 16.5676C32.4777 15.463 31.5798 14.57 30.4752 14.573L28.0974 14.5794ZM20.7599 24.6383C21.5129 24.373 22.0526 23.6553 22.0526 22.8115C22.0526 21.7422 21.1857 20.8753 20.1164 20.8753C19.047 20.8753 18.1801 21.7422 18.1801 22.8115C18.1801 23.6081 18.6611 24.2923 19.3485 24.5895L18.5525 26.833L21.6803 26.833L20.7599 24.6383Z" fill="#FBFCFF"/>
<path fill-rule="evenodd" clip-rule="evenodd" d="M12.4636 36.4988C24.4561 36.4988 34.178 26.7769 34.178 14.7844C34.178 9.30805 32.1507 4.30519 28.8057 0.485352C36.9598 3.61163 42.7486 11.5136 42.7486 20.7677C42.7486 32.7602 33.0268 42.4821 21.0342 42.4821C14.5181 42.4821 8.67228 39.6119 4.69214 35.0667C7.10509 35.9919 9.72516 36.4988 12.4636 36.4988Z" fill="#FFC7A8"/>
</g>
</svg>
