<svg width="41" height="41" viewBox="0 0 41 41" fill="none" xmlns="http://www.w3.org/2000/svg">
<mask id="mask0" mask-type="alpha" maskUnits="userSpaceOnUse" x="0" y="0" width="41" height="41">
<circle cx="20.1162" cy="20.4854" r="20" fill="#5670AB"/>
</mask>
<g mask="url(#mask0)">
<circle cx="20.1162" cy="20.4854" r="20" fill="#75BEF5"/>
<path fill-rule="evenodd" clip-rule="evenodd" d="M21.7725 7.19015C21.7205 7.18904 21.6684 7.18848 21.6162 7.18848C17.6639 7.18848 14.46 10.3924 14.46 14.3447C14.46 17.5124 16.5181 20.1993 19.37 21.1414L17.46 24.0322H20.3975V26.5322L18.8975 27.9072L20.8975 29.8447L19.2725 31.6572V32.7197L20.8975 34.5947L19.7725 35.9697L19.7725 37.7197L21.7725 39.2822L21.7725 21.4993V20.5322L21.7725 12.2809C21.094 12.1371 20.585 11.5347 20.585 10.8135C20.585 10.0922 21.094 9.48985 21.7725 9.34608V7.19015Z" fill="#FBFCFF"/>
<path fill-rule="evenodd" clip-rule="evenodd" d="M12.4636 36.4988C24.4561 36.4988 34.178 26.7769 34.178 14.7844C34.178 9.30805 32.1507 4.30519 28.8057 0.485352C36.9598 3.61163 42.7486 11.5136 42.7486 20.7677C42.7486 32.7602 33.0268 42.4821 21.0342 42.4821C14.5181 42.4821 8.67228 39.6119 4.69214 35.0667C7.10509 35.9919 9.72515 36.4988 12.4636 36.4988Z" fill="#5F98C3"/>
</g>
</svg>
