<svg width="41" height="41" viewBox="0 0 41 41" fill="none" xmlns="http://www.w3.org/2000/svg">
<mask id="mask0" mask-type="alpha" maskUnits="userSpaceOnUse" x="0" y="0" width="41" height="41">
<circle cx="20.1162" cy="20.4854" r="20" fill="#5670AB"/>
</mask>
<g mask="url(#mask0)">
<circle cx="20.1162" cy="20.4854" r="20" fill="#F4B186"/>
<path fill-rule="evenodd" clip-rule="evenodd" d="M40.7314 42.0576C40.7314 42.2058 40.7298 42.3536 40.7266 42.501H34.6087C34.2007 40.5758 32.4913 39.1312 30.4446 39.1312C28.3978 39.1312 26.6884 40.5758 26.2805 42.501L0.120956 42.501C0.117798 42.3536 0.116211 42.2058 0.116211 42.0576C0.116211 30.842 9.20822 21.75 20.4238 21.75C31.6394 21.75 40.7314 30.842 40.7314 42.0576Z" fill="#FBFCFF"/>
<path fill-rule="evenodd" clip-rule="evenodd" d="M19.8838 22L18.8438 23.8125L19.3238 25.1875H19.4438L17.9238 34.4375L20.0038 38.125L22.9238 34.4375L21.4438 25.1875H21.5638L22.1238 23.8125L21.0038 22H19.8838Z" fill="#F47E3E"/>
<path d="M18.8438 23.8125L18.4101 23.5637L18.2965 23.7617L18.3718 23.9773L18.8438 23.8125ZM19.8838 22V21.5H19.5943L19.4501 21.7512L19.8838 22ZM19.3238 25.1875L18.8518 25.3523L18.9688 25.6875H19.3238V25.1875ZM19.4438 25.1875L19.9372 25.2686L20.0327 24.6875H19.4438V25.1875ZM17.9238 34.4375L17.4304 34.3564L17.4019 34.53L17.4883 34.6831L17.9238 34.4375ZM20.0038 38.125L19.5683 38.3706L19.9339 39.0187L20.3958 38.4354L20.0038 38.125ZM22.9238 34.4375L23.3158 34.7479L23.4523 34.5756L23.4175 34.3585L22.9238 34.4375ZM21.4438 25.1875V24.6875H20.8575L20.9501 25.2665L21.4438 25.1875ZM21.5638 25.1875V25.6875H21.9001L22.0269 25.3761L21.5638 25.1875ZM22.1238 23.8125L22.5869 24.0011L22.6827 23.7658L22.5492 23.5497L22.1238 23.8125ZM21.0038 22L21.4292 21.7372L21.2826 21.5H21.0038V22ZM19.2775 24.0613L20.3175 22.2488L19.4501 21.7512L18.4101 23.5637L19.2775 24.0613ZM19.7959 25.0227L19.3159 23.6477L18.3718 23.9773L18.8518 25.3523L19.7959 25.0227ZM19.4438 24.6875H19.3238V25.6875H19.4438V24.6875ZM18.4172 34.5186L19.9372 25.2686L18.9504 25.1064L17.4304 34.3564L18.4172 34.5186ZM20.4393 37.8794L18.3593 34.1919L17.4883 34.6831L19.5683 38.3706L20.4393 37.8794ZM22.5318 34.1271L19.6118 37.8146L20.3958 38.4354L23.3158 34.7479L22.5318 34.1271ZM20.9501 25.2665L22.4301 34.5165L23.4175 34.3585L21.9375 25.1085L20.9501 25.2665ZM21.5638 24.6875H21.4438V25.6875H21.5638V24.6875ZM21.6608 23.6239L21.1008 24.9989L22.0269 25.3761L22.5869 24.0011L21.6608 23.6239ZM20.5785 22.2628L21.6985 24.0753L22.5492 23.5497L21.4292 21.7372L20.5785 22.2628ZM19.8838 22.5H21.0038V21.5H19.8838V22.5Z" fill="#F47E3E"/>
<circle cx="20.4238" cy="13.75" r="8.1875" fill="#FBFCFF"/>
<path fill-rule="evenodd" clip-rule="evenodd" d="M12.4636 36.4988C24.4561 36.4988 34.178 26.7769 34.178 14.7844C34.178 9.30805 32.1507 4.30519 28.8057 0.485352C36.9598 3.61163 42.7486 11.5136 42.7486 20.7677C42.7486 32.7602 33.0268 42.4821 21.0342 42.4821C14.5181 42.4821 8.67228 39.6119 4.69214 35.0667C7.10509 35.9919 9.72515 36.4988 12.4636 36.4988Z" fill="#EE9257"/>
</g>
</svg>
