<svg width="41" height="41" viewBox="0 0 41 41" fill="none" xmlns="http://www.w3.org/2000/svg">
<mask id="mask0" mask-type="alpha" maskUnits="userSpaceOnUse" x="0" y="0" width="41" height="41">
<circle cx="20.1162" cy="20.4854" r="20" fill="#5670AB"/>
</mask>
<g mask="url(#mask0)">
<circle cx="20.1162" cy="20.4854" r="20" fill="#5670AB"/>
<path fill-rule="evenodd" clip-rule="evenodd" d="M30.2412 7.875H9.99121V37.0166H18.1162V33.4565H22.1162V37.0166H30.2412V7.875ZM15.7412 10.4375H11.7412V14.4375H15.7412V10.4375ZM18.1162 10.4375H22.1162V14.4375H18.1162V10.4375ZM28.4912 10.4375H24.4912V14.4375H28.4912V10.4375ZM11.7412 15.8604H15.7412V19.8604H11.7412V15.8604ZM22.1162 15.8604H18.1162V19.8604H22.1162V15.8604ZM24.4912 15.8604H28.4912V19.8604H24.4912V15.8604ZM15.7412 21.2834H11.7412V25.2834H15.7412V21.2834ZM18.1162 21.2834H22.1162V25.2834H18.1162V21.2834ZM28.4912 21.2834H24.4912V25.2834H28.4912V21.2834ZM11.7412 26.7065H15.7412V30.7065H11.7412V26.7065ZM22.1162 26.7065H18.1162V30.7065H22.1162V26.7065ZM28.4912 26.7065H24.4912V30.7065H28.4912V26.7065Z" fill="#FBFCFF"/>
<path fill-rule="evenodd" clip-rule="evenodd" d="M12.4636 36.4988C24.4561 36.4988 34.178 26.7769 34.178 14.7844C34.178 9.30805 32.1507 4.30519 28.8057 0.485352C36.9598 3.61163 42.7486 11.5136 42.7486 20.7677C42.7486 32.7602 33.0268 42.4821 21.0342 42.4821C14.5181 42.4821 8.67228 39.6119 4.69214 35.0667C7.10509 35.9919 9.72515 36.4988 12.4636 36.4988Z" fill="#445785"/>
</g>
</svg>
