<svg width="1096" height="1323" viewBox="0 0 1096 1323" fill="none" xmlns="http://www.w3.org/2000/svg">
<g opacity="0.05">
<path d="M247.292 651.841L104.535 750.531L156.317 825.436L299.075 726.746L357.9 733.009L375.28 674.065L955.849 272.712L904.066 197.807L323.497 599.16L265.029 598.668L247.292 651.841Z" fill="#F47E3E"/>
<rect width="81.6585" height="59.3881" transform="matrix(0.568655 0.822576 0.822576 -0.568655 882.514 271.066)" fill="#F47E3E"/>
<rect width="81.6585" height="59.3881" transform="matrix(0.568655 0.822576 0.822576 -0.568655 687.111 406.151)" fill="#F47E3E"/>
<rect width="142.531" height="59.3881" transform="matrix(0.568655 0.822576 0.822576 -0.568655 784.812 338.609)" fill="#F47E3E"/>
<path fill-rule="evenodd" clip-rule="evenodd" d="M179.057 757.375L105.836 1158.55L-295.343 1085.33L-222.122 684.153L179.057 757.375ZM109.975 805.132L-174.366 753.235L-226.262 1037.58L58.0782 1089.47L109.975 805.132Z" fill="#F47E3E"/>
</g>
</svg>
