<svg width="496" height="451" viewBox="0 0 496 451" fill="none" xmlns="http://www.w3.org/2000/svg">
<path opacity="0.52" d="M262.957 394.183V264.126C262.957 215.221 311.508 166.126 365.508 244.126C383.097 269.532 383.427 283.627 415.493 306.271C429.508 316.169 456.642 302.307 466.508 306.271C497.258 318.626 494.865 334.799 495.253 341.785C495.641 348.772 496.185 369.032 495.253 394.183C494.322 419.334 455.276 438.43 435.869 444.834C416.463 448.715 366.355 453.567 321.176 441.923C275.998 430.279 263.539 405.245 262.957 394.183Z" fill="#5FBA86"/>
<path d="M275.149 154.899V108.324C289.122 121.326 306.588 151.988 392.753 148.495C453.259 146.042 478.53 122.102 483.576 108.324V154.899C478.918 166.543 436.557 191.578 392.753 191.578C313.574 191.578 279.613 167.32 275.149 154.899Z" fill="#53A575"/>
<ellipse cx="379.363" cy="109.634" rx="104.213" ry="40.3171" fill="#458560"/>
<ellipse cx="379.363" cy="404.662" rx="104.213" ry="40.3171" fill="#53A575"/>
<circle cx="448.57" cy="248.633" r="22.1235" fill="#53A575"/>
<path fill-rule="evenodd" clip-rule="evenodd" d="M439.254 257.366C451.473 257.366 461.378 247.461 461.378 235.243C461.378 233.506 461.178 231.816 460.799 230.194C466.762 234.157 470.693 240.936 470.693 248.633C470.693 260.852 460.788 270.757 448.569 270.757C438.088 270.757 429.308 263.467 427.024 253.681C430.528 256.01 434.733 257.366 439.254 257.366Z" fill="#83CAA2"/>
<path d="M453.068 247.174L446.096 245.134C445.289 244.902 444.728 244.146 444.728 243.307C444.728 242.255 445.58 241.403 446.632 241.403H450.912C451.7 241.403 452.474 241.641 453.12 242.08C453.514 242.345 454.043 242.281 454.379 241.951L456.625 239.756C457.084 239.311 457.019 238.569 456.509 238.175C454.927 236.935 452.952 236.245 450.925 236.238V233.139C450.925 232.571 450.46 232.106 449.892 232.106H447.826C447.258 232.106 446.793 232.571 446.793 233.139V236.238H446.632C442.52 236.238 439.214 239.769 439.595 243.959C439.866 246.935 442.139 249.356 445.005 250.195L451.622 252.132C452.429 252.371 452.991 253.12 452.991 253.959C452.991 255.011 452.139 255.863 451.086 255.863H446.806C446.019 255.863 445.244 255.624 444.598 255.185C444.205 254.921 443.675 254.985 443.34 255.314L441.093 257.509C440.635 257.955 440.699 258.697 441.209 259.091C442.791 260.33 444.766 261.021 446.793 261.028V264.126C446.793 264.694 447.258 265.159 447.826 265.159H449.892C450.46 265.159 450.925 264.694 450.925 264.126V261.015C453.933 260.957 456.754 259.168 457.749 256.322C459.137 252.345 456.806 248.265 453.068 247.174Z" fill="#FBFCFF"/>
<path opacity="0.52" d="M262.957 394.182V277.743C262.957 217.126 267.149 285.195 283.916 303.36C304.876 326.065 357.056 272.626 381.508 315.126C401.07 349.127 426.12 349.883 435.869 354.126C450.48 360.487 484.58 362.55 495.253 341.785C495.641 348.771 496.185 369.032 495.253 394.182C494.322 419.333 461.401 436.408 435.869 444.834C410.337 453.259 366.355 453.567 321.176 441.923C275.998 430.279 263.539 405.244 262.957 394.182Z" fill="#5FBA86"/>
<g filter="url(#filter0_d)">
<path fill-rule="evenodd" clip-rule="evenodd" d="M67.1344 79.6013C65.4939 79.369 63.9757 80.5105 63.7434 82.151L52.5039 161.524C52.2716 163.165 53.4132 164.683 55.0537 164.915L306.022 200.453C307.663 200.686 309.181 199.544 309.413 197.903L320.653 118.53C320.885 116.89 319.743 115.371 318.103 115.139L67.1344 79.6013ZM304.735 163.227C308.237 163.723 311.478 161.286 311.974 157.784C312.47 154.282 310.033 151.041 306.531 150.545C303.029 150.049 299.788 152.486 299.292 155.988C298.796 159.49 301.233 162.731 304.735 163.227Z" fill="#FBFCFF"/>
</g>
<path d="M198.287 149.128L200.477 149.438L201.572 141.703L204.234 142.08C204.881 142.172 205.542 142.228 206.218 142.248L209.432 150.706L211.844 151.048L208.241 141.941C209.318 141.66 210.209 141.154 210.916 140.425C211.625 139.677 212.075 138.694 212.266 137.477C212.533 135.592 212.101 134.117 210.97 133.052C209.839 131.986 208.211 131.303 206.085 131.002L200.956 130.276L198.287 149.128ZM205.85 132.864C207.347 133.076 208.463 133.517 209.198 134.186C209.935 134.837 210.205 135.856 210.009 137.242C209.802 138.57 209.204 139.466 208.215 139.929C207.246 140.376 206.032 140.497 204.572 140.29L201.827 139.901L202.883 132.444L205.85 132.864ZM226.06 153.061L226.03 151.275L217.131 150.015L218.132 142.945L224.897 143.903L224.879 142.232L218.364 141.31L219.322 134.545L227.666 135.727L227.648 134.056L217.363 132.599L214.694 151.451L226.06 153.061ZM231.395 153.816L233.491 139.012L234.036 140.362L241.708 155.277L243.483 155.528L246.152 136.676L243.934 136.362L241.865 150.972L240.992 148.954L233.621 134.902L231.874 134.654L229.205 153.506L231.395 153.816ZM263.79 139.173L248.985 137.077L248.742 138.796L255.063 139.691L252.637 156.824L254.855 157.138L257.281 140.005L263.796 140.928L263.79 139.173Z" fill="#4F4F4F"/>
<path d="M92.2313 130.906L89.8371 145.83C89.723 146.542 90.2117 147.217 90.9231 147.331L124.555 152.727C125.266 152.841 125.942 152.352 126.056 151.641L128.45 136.717C127.98 136.185 125.333 133.04 112.888 117.933C96.2668 128.444 92.8175 130.561 92.2313 130.906ZM117.966 132.854C119.899 135.071 119.486 138.421 117.174 140.115L109.216 145.937C108.7 146.31 107.989 146.196 107.616 145.68L101.878 137.661C100.212 135.329 100.86 132.017 103.381 130.514C105.581 129.208 108.421 129.962 109.903 132.041L110.486 132.856L111.294 132.264C113.36 130.755 116.293 130.927 117.966 132.854ZM92.2313 130.906L92.2352 130.882C92.2352 130.882 91.9845 131.049 92.2313 130.906ZM134.17 131.406L130.096 126.457L131.866 115.422C131.98 114.71 131.492 114.035 130.78 113.921L125.606 113.091C124.895 112.977 124.219 113.465 124.105 114.177L123.435 118.356L116.404 109.815C115.345 108.509 113.494 108.212 112.079 109.121L88.4517 124.072C87.8416 124.463 87.6702 125.273 88.0615 125.883L89.483 128.085C89.8743 128.695 90.6844 128.867 91.2945 128.475L112.463 115.104C113.017 114.753 113.752 114.871 114.177 115.379L130.091 134.708C130.548 135.27 131.371 135.361 131.933 134.904L133.972 133.257C134.536 132.792 134.627 131.969 134.17 131.406ZM128.454 136.692L128.45 136.717C128.655 136.94 128.454 136.692 128.454 136.692Z" fill="#5FBA86"/>
<defs>
<filter id="filter0_d" x="-26.917" y="0.180664" width="428.99" height="281.693" filterUnits="userSpaceOnUse" color-interpolation-filters="sRGB">
<feFlood flood-opacity="0" result="BackgroundImageFix"/>
<feColorMatrix in="SourceAlpha" type="matrix" values="0 0 0 0 0 0 0 0 0 0 0 0 0 0 0 0 0 0 127 0"/>
<feOffset dx="1" dy="1"/>
<feGaussianBlur stdDeviation="40"/>
<feColorMatrix type="matrix" values="0 0 0 0 0 0 0 0 0 0 0 0 0 0 0 0 0 0 0.15 0"/>
<feBlend mode="normal" in2="BackgroundImageFix" result="effect1_dropShadow"/>
<feBlend mode="normal" in="SourceGraphic" in2="effect1_dropShadow" result="shape"/>
</filter>
</defs>
</svg>
