<svg width="459" height="463" viewBox="0 0 459 463" fill="none" xmlns="http://www.w3.org/2000/svg">
<path d="M422.379 33.3403H61.3353C43.7477 33.3403 29.4785 49.3507 29.4785 69.0845V307.379C29.4785 327.113 43.7477 343.123 61.3353 343.123H224.004V366.953H117.815C106.068 366.953 96.577 377.601 96.577 390.782C96.577 403.963 106.068 414.612 117.815 414.612H372.669C384.417 414.612 393.907 403.963 393.907 390.782C393.907 377.601 384.417 366.953 372.669 366.953H266.48V343.123H422.379C439.967 343.123 454.236 327.113 454.236 307.379V69.0845C454.236 49.3507 439.967 33.3403 422.379 33.3403Z" fill="#FFC7A8"/>
<path d="M71.9541 295.465H411.76V80.9995H71.9541V295.465Z" fill="#FBFCFF"/>
<path d="M14.5933 329.937C13.03 331.935 13.206 334.977 14.9863 336.731L34.3309 355.791C36.1112 357.545 38.8228 357.347 40.3861 355.35L41.8016 353.541L16.0088 328.128L14.5933 329.937ZM80.0212 304.704C81.5845 302.707 81.4085 299.664 79.6282 297.91L60.2836 278.851C58.5033 277.097 55.7917 277.294 54.2284 279.292L52.8129 281.101L78.6057 306.513L80.0212 304.704ZM75.7746 310.131L49.9818 284.718C46.4202 281.209 40.9989 281.604 37.8715 285.6L18.0539 310.923C14.9264 314.919 15.2783 321.002 18.8399 324.511L44.6327 349.923C48.1943 353.432 53.6156 353.038 56.7431 349.041L76.5607 323.719C79.6881 319.722 79.3362 313.64 75.7746 310.131ZM56.2861 327.41L40.1786 328.687C39.9322 328.707 39.6847 328.672 39.4504 328.584C39.2162 328.496 38.9999 328.356 38.8143 328.173C38.6286 327.99 38.4772 327.768 38.369 327.518C38.2607 327.269 38.1978 326.998 38.1837 326.721L37.2296 308.635C36.9523 303.38 40.7468 298.86 45.5469 298.995C49.7322 299.11 53.0096 303.06 53.2564 307.754L53.3534 309.595L54.9934 309.465C59.1736 309.133 63.0871 312.27 63.7308 316.91C64.4693 322.235 60.9649 327.041 56.2861 327.41Z" fill="#F26922"/>
<path d="M445.547 367.572L376.642 392.64C378.258 399.034 375.411 404.365 370.287 406.229L353.008 412.515C347.696 414.448 342.014 410.359 340.746 405.7L272.759 430.434C270.259 431.344 268.876 434.384 269.687 437.19L271.161 442.292C274.405 453.517 285.243 459.722 295.247 456.083L440.752 403.146C450.756 399.507 456.287 387.346 453.043 376.121L451.569 371.019C450.758 368.213 448.048 366.662 445.547 367.572ZM397.996 255.191C395.563 246.773 387.434 242.118 379.932 244.848L261.708 287.859C254.206 290.589 250.057 299.709 252.49 308.128L283.452 415.268L428.957 362.331L397.996 255.191Z" fill="#F47E3E"/>
<path d="M295.742 388.243L404.871 348.54L381.282 266.91L272.152 306.612L295.742 388.243Z" fill="#FBFCFF"/>
<path d="M142.925 294.153L109.659 325.431C105.723 329.131 105.206 335.716 108.504 340.132L160.274 409.45C163.572 413.866 169.44 414.446 173.376 410.746L206.642 379.468C210.577 375.768 211.095 369.183 207.797 364.768L156.027 295.449C152.729 291.033 146.86 290.453 142.925 294.153Z" fill="#FBE4CE"/>
<rect width="48.6106" height="89.387" rx="7" transform="matrix(0.728544 -0.684999 0.59838 0.801213 113.699 333.29)" fill="#FBFCFF"/>
<path d="M97.0885 31.1225L60.1844 5.4922C55.8185 2.46005 50.0828 3.97366 47.3792 8.87142L4.93691 85.757C2.23326 90.6548 3.58186 97.0885 7.94776 100.121L44.8519 125.751C49.2178 128.783 54.9534 127.269 57.6571 122.372L100.099 45.4861C102.803 40.5883 101.454 34.1546 97.0885 31.1225Z" fill="url(#paint0_linear)"/>
<rect width="47.8338" height="90.7356" rx="7" transform="matrix(0.821271 0.570565 -0.483162 0.875547 54.7998 12.2627)" fill="#FBFCFF"/>
<defs>
<linearGradient id="paint0_linear" x1="31.0453" y1="112.262" x2="41.7135" y2="18.136" gradientUnits="userSpaceOnUse">
<stop stop-color="#F57E3E"/>
<stop offset="1" stop-color="#F36A23"/>
</linearGradient>
</defs>
</svg>
