<svg width="1578" height="3092" viewBox="0 0 1578 3092" fill="none" xmlns="http://www.w3.org/2000/svg">
<path opacity="0.8" d="M461.318 549.774C708.991 519.236 1001.32 407.026 1056.03 317.321L1452.09 317.321C1563.41 411.98 1447.23 602.093 1267.73 629.611C770.599 705.822 747.646 885.817 732.225 1116.51C711.813 1421.89 1189.83 1987.21 1680.14 1281.07C1877.91 996.232 2429.22 1430.66 1962.25 1663.53C1717.3 1785.68 1602.76 3059.36 1788.74 3091.18L210.168 3053C249.859 2925.76 260.519 3133.93 312.231 2892.68C376.87 2591.12 18.1905 1575.63 1.18 1174.82C-15.8305 774.012 151.727 587.947 461.318 549.774Z" fill="url(#paint0_linear)"/>
<path d="M1429.38 33.3403H1068.34C1050.75 33.3403 1036.48 49.3507 1036.48 69.0845V307.379C1036.48 327.113 1050.75 343.123 1068.34 343.123H1231V366.953H1124.81C1113.07 366.953 1103.58 377.601 1103.58 390.782C1103.58 403.963 1113.07 414.612 1124.81 414.612H1379.67C1391.42 414.612 1400.91 403.963 1400.91 390.782C1400.91 377.601 1391.42 366.953 1379.67 366.953H1273.48V343.123H1429.38C1446.97 343.123 1461.24 327.113 1461.24 307.379V69.0845C1461.24 49.3507 1446.97 33.3403 1429.38 33.3403Z" fill="#FFC7A8"/>
<path d="M1078.95 295.465H1418.76V80.9995H1078.95V295.465Z" fill="#FBFCFF"/>
<path d="M1021.59 329.937C1020.03 331.935 1020.21 334.977 1021.99 336.731L1041.33 355.791C1043.11 357.545 1045.82 357.347 1047.39 355.35L1048.8 353.541L1023.01 328.128L1021.59 329.937ZM1087.02 304.704C1088.58 302.707 1088.41 299.664 1086.63 297.91L1067.28 278.851C1065.5 277.097 1062.79 277.294 1061.23 279.292L1059.81 281.101L1085.61 306.513L1087.02 304.704ZM1082.77 310.131L1056.98 284.718C1053.42 281.209 1048 281.604 1044.87 285.6L1025.05 310.923C1021.93 314.919 1022.28 321.002 1025.84 324.511L1051.63 349.923C1055.19 353.432 1060.62 353.038 1063.74 349.041L1083.56 323.719C1086.69 319.722 1086.34 313.64 1082.77 310.131ZM1063.29 327.41L1047.18 328.687C1046.93 328.707 1046.68 328.672 1046.45 328.584C1046.22 328.496 1046 328.356 1045.81 328.173C1045.63 327.99 1045.48 327.768 1045.37 327.518C1045.26 327.269 1045.2 326.998 1045.18 326.721L1044.23 308.635C1043.95 303.38 1047.75 298.86 1052.55 298.995C1056.73 299.11 1060.01 303.06 1060.26 307.754L1060.35 309.595L1061.99 309.465C1066.17 309.133 1070.09 312.27 1070.73 316.91C1071.47 322.235 1067.96 327.041 1063.29 327.41Z" fill="#F26922"/>
<path d="M1452.55 367.572L1383.64 392.64C1385.26 399.034 1382.41 404.365 1377.29 406.229L1360.01 412.515C1354.7 414.448 1349.01 410.359 1347.75 405.7L1279.76 430.434C1277.26 431.344 1275.88 434.384 1276.69 437.19L1278.16 442.292C1281.4 453.517 1292.24 459.722 1302.25 456.083L1447.75 403.146C1457.76 399.507 1463.29 387.346 1460.04 376.121L1458.57 371.019C1457.76 368.213 1455.05 366.662 1452.55 367.572ZM1405 255.191C1402.56 246.773 1394.43 242.118 1386.93 244.848L1268.71 287.859C1261.21 290.589 1257.06 299.709 1259.49 308.128L1290.45 415.268L1435.96 362.331L1405 255.191Z" fill="#F47E3E"/>
<path d="M1302.74 388.243L1411.87 348.54L1388.28 266.91L1279.15 306.612L1302.74 388.243Z" fill="#FBFCFF"/>
<path d="M1149.92 294.153L1116.66 325.431C1112.72 329.131 1112.21 335.716 1115.5 340.132L1167.27 409.45C1170.57 413.866 1176.44 414.446 1180.38 410.746L1213.64 379.468C1217.58 375.768 1218.09 369.183 1214.8 364.768L1163.03 295.449C1159.73 291.033 1153.86 290.453 1149.92 294.153Z" fill="#FBE4CE"/>
<rect width="48.6106" height="89.387" rx="7" transform="matrix(0.728544 -0.684999 0.59838 0.801213 1120.7 333.29)" fill="#FBFCFF"/>
<path d="M1104.09 31.1225L1067.18 5.4922C1062.82 2.46005 1057.08 3.97366 1054.38 8.87142L1011.94 85.757C1009.23 90.6548 1010.58 97.0885 1014.95 100.121L1051.85 125.751C1056.22 128.783 1061.95 127.269 1064.66 122.372L1107.1 45.4861C1109.8 40.5883 1108.45 34.1546 1104.09 31.1225Z" fill="url(#paint1_linear)"/>
<rect width="47.8338" height="90.7356" rx="7" transform="matrix(0.821271 0.570565 -0.483162 0.875547 1061.8 12.2627)" fill="#FBFCFF"/>
<defs>
<linearGradient id="paint0_linear" x1="1037.15" y1="116.265" x2="1580.23" y2="2838.2" gradientUnits="userSpaceOnUse">
<stop stop-color="#F1F2F6"/>
<stop offset="1" stop-color="#F1F2F6" stop-opacity="0"/>
</linearGradient>
<linearGradient id="paint1_linear" x1="1038.05" y1="112.262" x2="1048.71" y2="18.136" gradientUnits="userSpaceOnUse">
<stop stop-color="#F57E3E"/>
<stop offset="1" stop-color="#F36A23"/>
</linearGradient>
</defs>
</svg>
