<svg width="635" height="605" viewBox="0 0 635 605" fill="none" xmlns="http://www.w3.org/2000/svg">
<g opacity="0.8">
<path d="M318.639 334.6V402.33H283.113V334.6L268.053 317.105L283.113 298.445V22.9998H318.639V298.445L331.769 317.105L318.639 334.6Z" fill="#F6AB52"/>
<rect x="299.911" y="46.1765" width="46.3532" height="23.1769" transform="rotate(-180 299.911 46.1765)" fill="#F6AB52"/>
<rect x="299.91" y="138.884" width="31.8577" height="23.177" transform="rotate(-180 299.91 138.884)" fill="#F6AB52"/>
<rect x="299.911" y="92.5305" width="67.3615" height="23.1769" transform="rotate(-180 299.911 92.5305)" fill="#F6AB52"/>
<path fill-rule="evenodd" clip-rule="evenodd" d="M222.044 419.365L187.408 492.463L222.044 573.477L299.908 605L386.609 573.477L412.408 492.463L386.609 419.365L299.908 379.926L222.044 419.365ZM238.847 435.14L211.686 492.463L238.847 555.993L299.907 580.713L367.897 555.993L388.129 492.463L367.897 435.14L299.907 404.212L238.847 435.14Z" fill="#F6AB52"/>
</g>
<g filter="url(#filter0_d)">
<path fill-rule="evenodd" clip-rule="evenodd" d="M92.6188 79.4209C90.9783 79.1886 89.4601 80.3301 89.2278 81.9706L79.6939 149.299C79.4616 150.939 80.6032 152.458 82.2437 152.69L296.941 183.092C298.581 183.324 300.099 182.182 300.332 180.542L309.865 113.214C310.098 111.573 308.956 110.055 307.316 109.823L92.6188 79.4209ZM296.255 151.18C299.262 151.606 302.046 149.513 302.472 146.506C302.897 143.498 300.805 140.715 297.797 140.289C294.789 139.863 292.006 141.956 291.58 144.964C291.154 147.971 293.247 150.754 296.255 151.18Z" fill="#FBFCFF"/>
</g>
<path d="M233.666 136.767L232.818 142.755C231.73 142.978 230.632 143.011 229.523 142.854C228.174 142.663 226.999 142.176 225.997 141.393C225.017 140.595 224.296 139.559 223.835 138.288C223.393 137.018 223.283 135.598 223.505 134.027C223.738 132.382 224.282 131.008 225.136 129.903C226.011 128.783 227.056 127.988 228.273 127.519C229.51 127.035 230.785 126.885 232.097 127.071C232.948 127.192 233.632 127.354 234.149 127.56C234.669 127.746 235.28 128.031 235.98 128.413L236.897 126.931C236.408 126.522 235.687 126.156 234.733 125.832C233.801 125.493 232.993 125.275 232.309 125.178C230.498 124.922 228.793 125.114 227.194 125.755C225.597 126.377 224.267 127.386 223.202 128.781C222.14 130.158 221.473 131.807 221.2 133.729C220.941 135.559 221.095 137.268 221.662 138.856C222.232 140.426 223.168 141.737 224.47 142.789C225.792 143.843 227.395 144.504 229.28 144.771C230.204 144.902 231.184 144.909 232.218 144.791C233.25 144.692 234.088 144.5 234.732 144.214L236.004 135.429L229.933 134.57L229.507 136.178L233.666 136.767ZM241.848 138.887L244.509 139.264C246.616 139.562 248.415 139.308 249.906 138.501C251.399 137.675 252.293 136.284 252.589 134.328C252.869 132.35 252.446 130.81 251.32 129.708C250.197 128.588 248.573 127.877 246.447 127.576L241.318 126.85L238.649 145.702L240.839 146.012L241.848 138.887ZM246.212 129.437C247.746 129.655 248.867 130.124 249.575 130.847C250.286 131.551 250.538 132.633 250.332 134.093C250.101 135.455 249.495 136.407 248.514 136.946C247.535 137.468 246.316 137.625 244.855 137.418L242.111 137.029L243.245 129.017L246.212 129.437ZM253.264 146.838C253.716 147.241 254.46 147.648 255.495 148.059C256.531 148.469 257.455 148.732 258.268 148.847C259.636 149.041 260.849 148.996 261.907 148.712C262.984 148.431 263.833 147.958 264.455 147.292C265.096 146.628 265.484 145.816 265.621 144.855C265.746 143.968 265.669 143.184 265.388 142.503C265.11 141.804 264.646 141.154 263.996 140.553C263.364 139.954 262.504 139.304 261.415 138.604C260.205 137.829 259.295 137.2 258.685 136.718C258.074 136.236 257.617 135.737 257.313 135.223C257.03 134.693 256.935 134.095 257.03 133.43C257.155 132.542 257.614 131.9 258.405 131.503C259.215 131.109 260.23 130.998 261.45 131.171C262.263 131.286 262.935 131.466 263.466 131.711C264.015 131.958 264.61 132.288 265.249 132.699L266.237 131.114C265.637 130.689 264.928 130.306 264.109 129.964C263.309 129.624 262.465 129.392 261.578 129.266C260.377 129.096 259.284 129.158 258.3 129.452C257.337 129.731 256.554 130.195 255.953 130.845C255.371 131.498 255.017 132.268 254.891 133.155C254.713 134.412 254.96 135.531 255.632 136.512C256.322 137.496 257.474 138.479 259.088 139.462C260.216 140.149 261.093 140.745 261.72 141.248C262.367 141.736 262.84 142.255 263.139 142.807C263.441 143.34 263.546 143.93 263.454 144.576C263.326 145.482 262.824 146.165 261.948 146.625C261.093 147.07 259.945 147.19 258.503 146.986C257.69 146.871 256.874 146.642 256.055 146.3C255.258 145.942 254.584 145.573 254.035 145.194L253.264 146.838Z" fill="#4F4F4F"/>
<path d="M127.042 110.302L135.953 111.564L139.954 107.08C140.089 106.928 140.181 106.742 140.219 106.542C140.258 106.342 140.241 106.136 140.171 105.944C140.101 105.753 139.981 105.584 139.822 105.456C139.664 105.328 139.474 105.245 139.272 105.217L125.617 103.283C125.415 103.255 125.209 103.281 125.022 103.36C124.834 103.44 124.671 103.568 124.551 103.732C124.431 103.897 124.357 104.091 124.339 104.294C124.32 104.496 124.357 104.7 124.445 104.884L127.042 110.302ZM135.637 113.792L126.726 112.53C111.499 118.569 110.717 129.34 110.527 130.688C110.004 134.378 112.999 137.856 117.216 138.453L137.578 141.336C141.795 141.933 145.637 139.424 146.16 135.734C146.347 134.411 148.519 123.765 135.637 113.792ZM129.654 132.686L129.483 133.894C129.459 134.053 129.373 134.197 129.244 134.293C129.114 134.389 128.952 134.431 128.792 134.408L127.58 134.236C127.42 134.214 127.276 134.129 127.178 134.001C127.08 133.872 127.037 133.71 127.059 133.55L127.231 132.331C126.379 132.166 125.594 131.754 124.973 131.147C124.912 131.085 124.866 131.011 124.836 130.929C124.807 130.847 124.796 130.759 124.804 130.673C124.812 130.586 124.838 130.502 124.882 130.427C124.925 130.351 124.984 130.286 125.055 130.236L126.068 129.523C126.185 129.444 126.324 129.407 126.464 129.417C126.605 129.427 126.737 129.484 126.841 129.578C127.107 129.8 127.429 129.944 127.772 129.994L129.901 130.296C130.393 130.365 130.857 129.98 130.935 129.432C130.998 128.982 130.781 128.554 130.403 128.386L127.135 126.891C125.785 126.274 124.989 124.797 125.201 123.298C125.461 121.461 127.112 120.173 128.915 120.374L129.087 119.158C129.111 118.997 129.197 118.854 129.327 118.757C129.457 118.661 129.62 118.62 129.78 118.644L130.992 118.815C131.152 118.837 131.297 118.922 131.394 119.051C131.492 119.179 131.535 119.341 131.513 119.501L131.34 120.723C132.193 120.888 132.978 121.3 133.599 121.907C133.66 121.969 133.706 122.044 133.736 122.126C133.765 122.208 133.776 122.295 133.768 122.382C133.76 122.468 133.733 122.552 133.69 122.628C133.646 122.703 133.587 122.768 133.516 122.818L132.51 123.542C132.393 123.621 132.253 123.658 132.113 123.648C131.973 123.638 131.84 123.581 131.736 123.486C131.47 123.265 131.148 123.121 130.806 123.07L128.678 122.769C128.186 122.699 127.722 123.084 127.644 123.632C127.581 124.081 127.798 124.51 128.176 124.678L131.444 126.174C132.794 126.791 133.589 128.267 133.377 129.767C133.106 131.603 131.447 132.898 129.654 132.686Z" fill="#5FBA86"/>
<g filter="url(#filter1_d)">
<path fill-rule="evenodd" clip-rule="evenodd" d="M88.0992 294.193C86.5105 294.663 85.604 296.332 86.0744 297.921L105.38 363.123C105.85 364.712 107.519 365.618 109.108 365.148L317.025 303.587C318.613 303.117 319.52 301.448 319.049 299.859L299.744 234.657C299.274 233.068 297.605 232.162 296.016 232.632L88.0992 294.193ZM303.14 274.846C306.053 273.984 307.715 270.924 306.853 268.011C305.99 265.099 302.93 263.437 300.018 264.299C297.105 265.161 295.443 268.222 296.305 271.134C297.168 274.047 300.228 275.709 303.14 274.846Z" fill="#FBFCFF"/>
</g>
<path d="M244.126 291.143L241.334 291.97L237.868 280.264L236.392 280.701L230.864 295.07L231.676 296.727L239.73 294.343L240.835 298.075L242.956 297.447L241.851 293.715L244.402 292.96L244.126 291.143ZM236.844 284.597L239.213 292.598L233.146 294.394L236.844 284.597ZM250.366 293.238L244.96 274.981L242.839 275.609L248.245 293.866L250.366 293.238ZM268.421 277.817C268.84 279.231 268.997 280.616 268.892 281.971C268.782 283.308 268.436 284.539 267.854 285.665L270.03 286.802L269.094 288.277L266.891 287.148C265.763 288.533 264.334 289.491 262.603 290.023C260.975 290.506 259.397 290.535 257.869 290.111C256.342 289.687 255 288.868 253.842 287.653C252.684 286.439 251.838 284.927 251.302 283.12C250.767 281.312 250.652 279.574 250.956 277.907C251.279 276.235 251.969 274.785 253.026 273.557C254.084 272.329 255.431 271.453 257.067 270.929C258.696 270.447 260.282 270.415 261.828 270.834C263.373 271.253 264.724 272.069 265.882 273.284C267.04 274.498 267.886 276.01 268.421 277.817ZM262.001 288.187C263.236 287.821 264.239 287.164 265.009 286.216L261.542 284.468L262.693 282.93L265.948 284.653C266.332 283.78 266.545 282.821 266.586 281.777C266.622 280.715 266.476 279.63 266.147 278.52C265.718 277.07 265.065 275.852 264.189 274.865C263.308 273.861 262.297 273.177 261.158 272.813C260.031 272.427 258.868 272.411 257.669 272.766C256.434 273.132 255.425 273.8 254.642 274.772C253.871 275.72 253.384 276.867 253.179 278.213C252.968 279.541 253.083 280.947 253.523 282.433C253.952 283.883 254.607 285.11 255.489 286.114C256.365 287.101 257.366 287.787 258.493 288.174C259.633 288.538 260.802 288.542 262.001 288.187Z" fill="#4F4F4F"/>
<path d="M132.242 307.978L140.872 305.423L142.648 299.682C142.708 299.487 142.714 299.28 142.666 299.082C142.618 298.884 142.517 298.703 142.373 298.558C142.23 298.413 142.051 298.31 141.853 298.259C141.656 298.209 141.449 298.212 141.254 298.27L128.029 302.186C127.834 302.243 127.658 302.353 127.52 302.503C127.382 302.653 127.288 302.838 127.247 303.037C127.206 303.237 127.219 303.443 127.287 303.636C127.354 303.828 127.472 303.998 127.629 304.129L132.242 307.978ZM141.51 307.58L132.881 310.135C121.54 321.955 125.305 332.078 125.691 333.383C126.749 336.956 130.918 338.875 135.002 337.666L154.721 331.827C158.805 330.618 161.257 326.739 160.199 323.166C159.82 321.885 157.371 311.299 141.51 307.58ZM143.919 327.253L144.265 328.422C144.31 328.577 144.291 328.743 144.214 328.885C144.136 329.026 144.006 329.131 143.851 329.177L142.677 329.524C142.522 329.57 142.356 329.553 142.214 329.477C142.071 329.401 141.965 329.271 141.918 329.117L141.568 327.936C140.724 328.14 139.839 328.092 139.022 327.798C138.941 327.766 138.868 327.718 138.807 327.656C138.746 327.593 138.7 327.518 138.671 327.436C138.642 327.354 138.631 327.267 138.64 327.18C138.648 327.093 138.675 327.01 138.718 326.934L139.343 325.865C139.417 325.745 139.528 325.653 139.66 325.604C139.791 325.555 139.936 325.551 140.07 325.594C140.404 325.685 140.756 325.682 141.089 325.586L143.15 324.975C143.627 324.834 143.889 324.291 143.732 323.76C143.603 323.325 143.227 323.026 142.813 323.03L139.22 323.028C137.735 323.027 136.398 322.015 135.968 320.563C135.442 318.785 136.408 316.926 138.131 316.361L137.782 315.183C137.737 315.027 137.756 314.86 137.834 314.719C137.912 314.577 138.044 314.472 138.199 314.427L139.373 314.079C139.528 314.033 139.694 314.05 139.836 314.127C139.978 314.203 140.085 314.333 140.132 314.487L140.482 315.67C141.326 315.466 142.211 315.514 143.028 315.809C143.11 315.84 143.183 315.888 143.244 315.951C143.304 316.013 143.351 316.088 143.38 316.17C143.408 316.252 143.419 316.34 143.411 316.426C143.403 316.513 143.376 316.597 143.332 316.672L142.717 317.749C142.644 317.869 142.532 317.96 142.401 318.009C142.269 318.058 142.124 318.062 141.99 318.019C141.656 317.928 141.304 317.931 140.971 318.027L138.911 318.637C138.434 318.778 138.172 319.322 138.329 319.852C138.458 320.287 138.834 320.586 139.247 320.583L142.841 320.585C144.326 320.586 145.662 321.598 146.092 323.05C146.61 324.833 145.639 326.7 143.919 327.253Z" fill="#5FBA86"/>
<g filter="url(#filter2_d)">
<path fill-rule="evenodd" clip-rule="evenodd" d="M521.852 296.304C523.374 295.649 525.138 296.352 525.793 297.874L552.661 360.341C553.316 361.863 552.612 363.627 551.09 364.282L351.896 449.959C350.374 450.614 348.609 449.911 347.955 448.389L321.086 385.922C320.432 384.4 321.135 382.635 322.657 381.981L521.852 296.304ZM344.183 418.986C341.393 420.187 338.158 418.897 336.958 416.107C335.758 413.317 337.047 410.082 339.837 408.881C342.628 407.681 345.863 408.97 347.063 411.761C348.263 414.551 346.974 417.786 344.183 418.986Z" fill="#FBFCFF"/>
</g>
<path d="M369.885 410.819C371.84 409.978 373.239 408.909 374.083 407.611C374.927 406.313 374.984 404.816 374.254 403.118C373.767 401.986 373.065 401.181 372.147 400.702C371.247 400.215 370.188 400.02 368.97 400.118C369.513 399.396 369.886 398.657 370.089 397.899C370.284 397.124 370.215 396.351 369.883 395.58C369.168 393.916 368.119 392.965 366.736 392.727C365.346 392.471 363.682 392.76 361.745 393.594L356.883 395.685L364.406 413.175L369.885 410.819ZM362.409 395.35C363.798 394.753 364.924 394.512 365.786 394.629C366.667 394.738 367.35 395.359 367.837 396.49C368.287 397.536 368.191 398.472 367.55 399.296C366.919 400.096 365.921 400.799 364.556 401.407L362.19 402.424L359.656 396.534L362.409 395.35ZM366.576 402.488C367.897 401.921 369.043 401.752 370.017 401.984C370.99 402.216 371.724 402.906 372.218 404.055C373.125 406.164 372.096 407.856 369.129 409.132L365.708 410.604L362.898 404.071L366.576 402.488ZM381.61 405.776L374.087 388.285L372.055 389.159L379.578 406.65L381.61 405.776ZM385.63 382.832C384.068 383.545 382.834 384.574 381.929 385.918C381.023 387.262 380.509 388.784 380.387 390.483C380.281 392.174 380.601 393.886 381.346 395.618C382.091 397.35 383.11 398.75 384.403 399.82C385.696 400.889 387.126 401.544 388.692 401.785C390.259 402.025 391.822 401.81 393.383 401.139C394.953 400.443 396.199 399.419 397.121 398.068C398.044 396.716 398.558 395.194 398.663 393.503C398.779 391.787 398.464 390.063 397.719 388.331C396.974 386.599 395.955 385.199 394.662 384.129C393.369 383.06 391.93 382.409 390.347 382.175C388.763 381.942 387.191 382.161 385.63 382.832ZM383.469 394.674C382.857 393.25 382.577 391.867 382.629 390.524C382.674 389.164 383.023 387.967 383.676 386.934C384.339 385.877 385.262 385.094 386.445 384.585C387.594 384.091 388.751 383.969 389.916 384.22C391.09 384.447 392.174 385.006 393.168 385.9C394.154 386.776 394.946 387.909 395.544 389.297C396.156 390.721 396.44 392.113 396.395 393.473C396.35 394.833 395.992 396.034 395.322 397.074C394.669 398.106 393.751 398.877 392.568 399.386C391.419 399.88 390.257 400.014 389.083 399.788C387.918 399.537 386.843 398.973 385.856 398.097C384.862 397.204 384.067 396.063 383.469 394.674ZM410.361 386.429L412.117 377.048L417.782 390.218L419.84 389.333L412.316 371.842L411.03 372.395L408.799 383.931L398.684 377.705L397.475 378.225L404.998 395.716L407.03 394.842L401.344 381.621L409.722 386.857L410.361 386.429ZM435.162 382.742L434.208 381.232L425.951 384.784L423.13 378.225L429.406 375.525L428.522 374.107L422.477 376.707L419.778 370.431L427.52 367.101L426.636 365.683L417.093 369.787L424.616 387.278L435.162 382.742ZM442.157 359.007L428.422 364.915L429.108 366.509L434.972 363.987L441.809 379.883L443.867 378.998L437.03 363.102L443.074 360.502L442.157 359.007ZM452.573 375.253L454.605 374.379L451.518 367.203L453.988 366.141C454.588 365.883 455.182 365.587 455.77 365.252L462.913 370.806L465.151 369.843L457.338 363.938C458.111 363.138 458.61 362.243 458.834 361.252C459.051 360.244 458.925 359.171 458.455 358.032C457.703 356.283 456.567 355.247 455.047 354.926C453.527 354.604 451.781 354.868 449.809 355.716L445.05 357.763L452.573 375.253ZM450.576 357.428C451.964 356.831 453.147 356.627 454.123 356.817C455.091 356.99 455.852 357.719 456.405 359.005C456.919 360.247 456.874 361.323 456.269 362.233C455.675 363.119 454.7 363.853 453.346 364.436L450.799 365.531L447.823 358.612L450.576 357.428ZM469.827 367.832L462.304 350.341L460.272 351.215L467.795 368.706L469.827 367.832ZM478.648 344.073C478.018 343.979 477.22 344.037 476.255 344.249C475.282 344.444 474.479 344.678 473.844 344.951C472.198 345.659 470.922 346.685 470.017 348.03C469.112 349.374 468.627 350.893 468.563 352.587C468.492 354.263 468.829 355.968 469.574 357.7C470.282 359.346 471.24 360.722 472.447 361.828C473.654 362.935 475.04 363.629 476.604 363.911C478.168 364.193 479.808 363.966 481.523 363.228C482.26 362.911 483.022 362.462 483.808 361.88C484.618 361.308 485.23 360.77 485.644 360.267L484.208 359.056C483.78 359.524 483.287 359.96 482.728 360.363C482.187 360.758 481.505 361.133 480.682 361.487C479.482 362.003 478.299 362.136 477.135 361.885C475.963 361.617 474.909 361.033 473.974 360.135C473.032 359.22 472.273 358.093 471.698 356.756C471.085 355.332 470.802 353.941 470.847 352.58C470.891 351.22 471.24 350.023 471.893 348.99C472.564 347.95 473.465 347.187 474.596 346.7C475.402 346.353 476.08 346.133 476.629 346.039C477.17 345.928 477.839 345.854 478.636 345.816L478.648 344.073Z" fill="#4F4F4F"/>
<path d="M508.326 330.152L516.593 326.596L517.679 320.686C517.716 320.485 517.698 320.279 517.626 320.088C517.555 319.897 517.433 319.729 517.274 319.602C517.115 319.475 516.924 319.394 516.722 319.367C516.521 319.34 516.315 319.368 516.128 319.448L503.458 324.898C503.271 324.978 503.11 325.108 502.991 325.273C502.871 325.438 502.799 325.633 502.782 325.836C502.765 326.039 502.803 326.242 502.892 326.425C502.982 326.608 503.119 326.764 503.29 326.875L508.326 330.152ZM517.482 328.663L509.215 332.219C499.349 345.295 504.282 354.903 504.82 356.153C506.292 359.576 510.659 360.989 514.571 359.307L533.463 351.181C537.376 349.498 539.353 345.356 537.88 341.933C537.353 340.706 533.671 330.484 517.482 328.663ZM522.197 347.913L522.679 349.033C522.741 349.182 522.742 349.35 522.682 349.499C522.622 349.649 522.504 349.768 522.356 349.832L521.232 350.316C521.083 350.38 520.916 350.383 520.766 350.324C520.615 350.265 520.495 350.149 520.43 350.001L519.943 348.87C519.129 349.172 518.244 349.228 517.399 349.033C517.314 349.011 517.236 348.972 517.168 348.917C517.1 348.862 517.045 348.793 517.007 348.715C516.969 348.637 516.948 348.552 516.946 348.465C516.943 348.378 516.96 348.291 516.995 348.211L517.489 347.076C517.548 346.948 517.647 346.843 517.772 346.779C517.897 346.715 518.04 346.694 518.178 346.721C518.521 346.772 518.871 346.728 519.189 346.592L521.165 345.743C521.621 345.546 521.817 344.976 521.599 344.468C521.419 344.05 521.011 343.798 520.6 343.851L517.031 344.273C515.557 344.448 514.11 343.601 513.512 342.209C512.779 340.506 513.519 338.546 515.163 337.782L514.677 336.652C514.615 336.503 514.614 336.335 514.675 336.185C514.736 336.036 514.854 335.916 515.003 335.853L516.127 335.369C516.275 335.305 516.443 335.302 516.593 335.361C516.743 335.42 516.864 335.536 516.928 335.684L517.416 336.818C518.23 336.516 519.115 336.459 519.961 336.655C520.046 336.676 520.124 336.716 520.192 336.771C520.259 336.825 520.314 336.894 520.352 336.972C520.391 337.05 520.412 337.136 520.414 337.223C520.416 337.31 520.399 337.396 520.364 337.476L519.881 338.618C519.822 338.746 519.723 338.85 519.597 338.914C519.472 338.978 519.329 338.999 519.191 338.972C518.849 338.921 518.499 338.966 518.181 339.101L516.207 339.95C515.75 340.146 515.554 340.716 515.772 341.224C515.952 341.641 516.36 341.894 516.77 341.842L520.339 341.42C521.813 341.245 523.26 342.092 523.858 343.484C524.583 345.193 523.839 347.161 522.197 347.913Z" fill="#5FBA86"/>
<defs>
<filter id="filter0_d" x="0.273438" y="0.000244141" width="391.013" height="264.512" filterUnits="userSpaceOnUse" color-interpolation-filters="sRGB">
<feFlood flood-opacity="0" result="BackgroundImageFix"/>
<feColorMatrix in="SourceAlpha" type="matrix" values="0 0 0 0 0 0 0 0 0 0 0 0 0 0 0 0 0 0 127 0"/>
<feOffset dx="1" dy="1"/>
<feGaussianBlur stdDeviation="40"/>
<feColorMatrix type="matrix" values="0 0 0 0 0 0 0 0 0 0 0 0 0 0 0 0 0 0 0.15 0"/>
<feBlend mode="normal" in2="BackgroundImageFix" result="effect1_dropShadow"/>
<feBlend mode="normal" in="SourceGraphic" in2="effect1_dropShadow" result="shape"/>
</filter>
<filter id="filter1_d" x="6.22266" y="152.78" width="394.678" height="294.219" filterUnits="userSpaceOnUse" color-interpolation-filters="sRGB">
<feFlood flood-opacity="0" result="BackgroundImageFix"/>
<feColorMatrix in="SourceAlpha" type="matrix" values="0 0 0 0 0 0 0 0 0 0 0 0 0 0 0 0 0 0 127 0"/>
<feOffset dx="1" dy="1"/>
<feGaussianBlur stdDeviation="40"/>
<feColorMatrix type="matrix" values="0 0 0 0 0 0 0 0 0 0 0 0 0 0 0 0 0 0 0.15 0"/>
<feBlend mode="normal" in2="BackgroundImageFix" result="effect1_dropShadow"/>
<feBlend mode="normal" in="SourceGraphic" in2="effect1_dropShadow" result="shape"/>
</filter>
<filter id="filter2_d" x="240.901" y="216.118" width="393.945" height="316.027" filterUnits="userSpaceOnUse" color-interpolation-filters="sRGB">
<feFlood flood-opacity="0" result="BackgroundImageFix"/>
<feColorMatrix in="SourceAlpha" type="matrix" values="0 0 0 0 0 0 0 0 0 0 0 0 0 0 0 0 0 0 127 0"/>
<feOffset dx="1" dy="1"/>
<feGaussianBlur stdDeviation="40"/>
<feColorMatrix type="matrix" values="0 0 0 0 0 0 0 0 0 0 0 0 0 0 0 0 0 0 0.15 0"/>
<feBlend mode="normal" in2="BackgroundImageFix" result="effect1_dropShadow"/>
<feBlend mode="normal" in="SourceGraphic" in2="effect1_dropShadow" result="shape"/>
</filter>
</defs>
</svg>
