<svg width="872" height="482" viewBox="0 0 872 482" fill="none" xmlns="http://www.w3.org/2000/svg">
<path fill-rule="evenodd" clip-rule="evenodd" d="M556.746 149.11L444.246 261.647L556.746 374.185L669.246 261.647L556.746 149.11ZM556.746 181.886L636.482 261.648L556.746 341.41L477.011 261.648L556.746 181.886Z" fill="#FFC7A8"/>
<g filter="url(#filter0_d)">
<path fill-rule="evenodd" clip-rule="evenodd" d="M758.697 80.9647C760.219 80.31 761.984 81.0131 762.638 82.5352L789.507 145.002C790.161 146.524 789.458 148.289 787.936 148.943L588.742 234.62C587.219 235.275 585.455 234.572 584.8 233.05L557.932 170.583C557.278 169.061 557.981 167.296 559.503 166.642L758.697 80.9647ZM581.029 203.647C578.239 204.848 575.004 203.559 573.804 200.768C572.603 197.978 573.892 194.743 576.683 193.543C579.473 192.342 582.708 193.631 583.908 196.422C585.109 199.212 583.82 202.447 581.029 203.647Z" fill="#FBFCFF"/>
</g>
<path d="M606.731 195.48C608.685 194.639 610.085 193.57 610.929 192.272C611.773 190.975 611.83 189.477 611.099 187.779C610.613 186.648 609.911 185.842 608.993 185.363C608.093 184.876 607.034 184.682 605.816 184.779C606.359 184.057 606.732 183.318 606.934 182.56C607.129 181.786 607.061 181.012 606.729 180.241C606.014 178.577 604.965 177.626 603.582 177.388C602.192 177.133 600.528 177.421 598.59 178.255L593.729 180.346L601.252 197.837L606.731 195.48ZM599.254 180.011C600.643 179.414 601.769 179.174 602.632 179.29C603.512 179.399 604.196 180.02 604.682 181.151C605.132 182.197 605.037 183.133 604.396 183.957C603.764 184.757 602.766 185.46 601.402 186.068L599.036 187.085L596.502 181.195L599.254 180.011ZM603.422 187.15C604.742 186.582 605.889 186.414 606.862 186.645C607.836 186.877 608.57 187.567 609.064 188.716C609.971 190.825 608.941 192.518 605.975 193.794L602.554 195.265L599.744 188.732L603.422 187.15ZM618.456 190.437L610.933 172.946L608.901 173.82L616.424 191.311L618.456 190.437ZM622.476 167.493C620.913 168.206 619.679 169.235 618.774 170.579C617.869 171.924 617.355 173.445 617.232 175.144C617.127 176.835 617.446 178.547 618.191 180.279C618.936 182.011 619.955 183.411 621.248 184.481C622.541 185.55 623.971 186.205 625.538 186.446C627.104 186.686 628.668 186.471 630.228 185.8C631.798 185.104 633.045 184.081 633.967 182.729C634.889 181.377 635.403 179.856 635.509 178.164C635.624 176.448 635.31 174.724 634.565 172.993C633.82 171.261 632.801 169.86 631.508 168.79C630.214 167.721 628.776 167.07 627.192 166.837C625.609 166.603 624.037 166.822 622.476 167.493ZM620.315 179.335C619.703 177.912 619.423 176.528 619.475 175.185C619.52 173.825 619.869 172.628 620.522 171.595C621.185 170.538 622.108 169.755 623.291 169.246C624.44 168.752 625.597 168.63 626.761 168.881C627.936 169.108 629.02 169.668 630.014 170.561C631 171.437 631.792 172.57 632.389 173.959C633.002 175.382 633.285 176.774 633.24 178.134C633.196 179.494 632.838 180.695 632.168 181.735C631.515 182.768 630.597 183.538 629.413 184.047C628.265 184.542 627.103 184.675 625.929 184.449C624.764 184.198 623.688 183.634 622.702 182.758C621.708 181.865 620.913 180.724 620.315 179.335ZM647.207 171.091L648.963 161.709L654.628 174.879L656.685 173.994L649.162 156.503L647.876 157.056L645.645 168.593L635.53 162.367L634.321 162.887L641.844 180.377L643.876 179.503L638.189 166.282L646.568 171.518L647.207 171.091ZM672.007 167.403L671.053 165.893L662.797 169.445L659.975 162.886L666.252 160.186L665.367 158.768L659.323 161.368L656.623 155.092L664.366 151.762L663.481 150.344L653.939 154.449L661.462 171.939L672.007 167.403ZM679.003 143.668L665.267 149.576L665.953 151.171L671.818 148.648L678.655 164.544L680.713 163.659L673.876 147.763L679.92 145.163L679.003 143.668ZM689.419 159.914L691.451 159.04L688.364 151.864L690.833 150.802C691.434 150.544 692.028 150.248 692.615 149.914L699.759 155.467L701.997 154.504L694.184 148.599C694.957 147.799 695.456 146.904 695.68 145.913C695.897 144.905 695.771 143.832 695.301 142.693C694.549 140.944 693.412 139.909 691.892 139.587C690.372 139.265 688.626 139.529 686.654 140.377L681.896 142.424L689.419 159.914ZM687.421 142.089C688.81 141.492 689.993 141.288 690.968 141.478C691.937 141.651 692.697 142.38 693.251 143.666C693.765 144.908 693.719 145.984 693.115 146.894C692.521 147.78 691.546 148.514 690.191 149.097L687.645 150.192L684.669 143.273L687.421 142.089ZM706.673 152.493L699.15 135.002L697.118 135.876L704.641 153.367L706.673 152.493ZM715.494 128.734C714.864 128.64 714.066 128.698 713.101 128.91C712.128 129.105 711.324 129.339 710.69 129.612C709.044 130.32 707.768 131.346 706.863 132.691C705.958 134.035 705.473 135.554 705.409 137.248C705.338 138.925 705.675 140.629 706.42 142.361C707.128 144.007 708.085 145.383 709.293 146.489C710.5 147.596 711.886 148.29 713.45 148.572C715.014 148.855 716.654 148.627 718.368 147.889C719.106 147.572 719.867 147.123 720.653 146.541C721.464 145.969 722.076 145.431 722.49 144.928L721.054 143.717C720.626 144.185 720.132 144.621 719.574 145.024C719.033 145.419 718.351 145.794 717.528 146.148C716.327 146.664 715.145 146.797 713.98 146.546C712.808 146.278 711.755 145.695 710.82 144.796C709.877 143.881 709.119 142.754 708.543 141.417C707.931 139.993 707.647 138.602 707.692 137.241C707.737 135.881 708.086 134.684 708.739 133.652C709.409 132.611 710.31 131.848 711.442 131.361C712.248 131.015 712.925 130.794 713.474 130.7C714.016 130.589 714.685 130.515 715.481 130.477L715.494 128.734Z" fill="#4F4F4F"/>
<path d="M745.171 114.813L753.439 111.257L754.525 105.347C754.562 105.146 754.543 104.94 754.472 104.749C754.401 104.558 754.279 104.39 754.12 104.263C753.961 104.136 753.77 104.055 753.568 104.028C753.366 104.001 753.161 104.029 752.974 104.109L740.304 109.559C740.117 109.639 739.955 109.769 739.836 109.934C739.717 110.099 739.645 110.294 739.628 110.497C739.61 110.7 739.649 110.904 739.738 111.086C739.827 111.269 739.965 111.425 740.136 111.536L745.171 114.813ZM754.328 113.324L746.06 116.88C736.194 129.957 741.128 139.564 741.666 140.814C743.138 144.237 747.505 145.651 751.417 143.968L770.309 135.842C774.222 134.159 776.198 130.018 774.726 126.594C774.198 125.367 770.517 115.145 754.328 113.324ZM759.043 132.575L759.524 133.695C759.587 133.843 759.588 134.011 759.528 134.16C759.467 134.31 759.35 134.43 759.202 134.493L758.077 134.977C757.929 135.041 757.762 135.044 757.611 134.985C757.461 134.926 757.34 134.81 757.275 134.662L756.789 133.531C755.975 133.833 755.09 133.889 754.244 133.694C754.16 133.673 754.081 133.633 754.014 133.578C753.946 133.523 753.891 133.455 753.853 133.377C753.814 133.298 753.793 133.213 753.791 133.126C753.789 133.039 753.806 132.952 753.84 132.873L754.335 131.737C754.393 131.609 754.493 131.505 754.618 131.44C754.743 131.376 754.886 131.356 755.024 131.382C755.367 131.433 755.716 131.389 756.035 131.254L758.01 130.404C758.467 130.208 758.663 129.637 758.445 129.129C758.265 128.712 757.856 128.459 757.446 128.512L753.877 128.934C752.403 129.109 750.956 128.262 750.357 126.871C749.624 125.167 750.364 123.207 752.009 122.443L751.523 121.314C751.46 121.164 751.459 120.996 751.52 120.847C751.581 120.697 751.699 120.577 751.848 120.514L752.973 120.03C753.121 119.966 753.288 119.963 753.439 120.022C753.589 120.081 753.709 120.198 753.774 120.345L754.262 121.479C755.076 121.177 755.961 121.12 756.807 121.316C756.891 121.337 756.97 121.377 757.037 121.432C757.105 121.486 757.16 121.555 757.198 121.633C757.237 121.712 757.257 121.797 757.259 121.884C757.262 121.971 757.245 122.058 757.21 122.137L756.727 123.279C756.668 123.407 756.568 123.511 756.443 123.575C756.318 123.64 756.175 123.66 756.037 123.633C755.695 123.582 755.345 123.627 755.026 123.762L753.052 124.611C752.596 124.807 752.399 125.378 752.618 125.885C752.797 126.303 753.206 126.555 753.616 126.503L757.185 126.081C758.659 125.906 760.106 126.753 760.704 128.145C761.428 129.854 760.685 131.822 759.043 132.575Z" fill="#5FBA86"/>
<path d="M574.51 346.717V414.447H538.983V346.717H574.51Z" fill="#FFC7A8"/>
<path d="M318.363 369.105V436.835H282.837V369.105L267.777 351.611L282.837 332.951V57.5057H318.363V332.951L331.492 351.611L318.363 369.105Z" fill="#FFC7A8"/>
<rect x="299.634" y="80.6826" width="31.8577" height="23.1769" transform="rotate(-180 299.634 80.6826)" fill="#FFC7A8"/>
<rect x="299.634" y="173.39" width="31.8577" height="23.177" transform="rotate(-180 299.634 173.39)" fill="#FFC7A8"/>
<rect x="299.634" y="127.037" width="55.6063" height="23.1769" transform="rotate(-180 299.634 127.037)" fill="#FFC7A8"/>
<g filter="url(#filter1_d)">
<path fill-rule="evenodd" clip-rule="evenodd" d="M92.3454 113.926C90.7049 113.694 89.1867 114.836 88.9544 116.476L79.4205 183.805C79.1882 185.445 80.3298 186.963 81.9702 187.196L296.667 217.597C298.308 217.83 299.826 216.688 300.058 215.048L309.592 147.719C309.824 146.079 308.683 144.561 307.042 144.328L92.3454 113.926ZM295.981 185.686C298.989 186.112 301.772 184.019 302.198 181.011C302.624 178.004 300.531 175.22 297.524 174.795C294.516 174.369 291.733 176.462 291.307 179.469C290.881 182.477 292.974 185.26 295.981 185.686Z" fill="#FBFCFF"/>
</g>
<path d="M233.392 171.273L232.544 177.261C231.457 177.484 230.359 177.517 229.25 177.36C227.901 177.169 226.725 176.682 225.724 175.899C224.743 175.101 224.023 174.065 223.562 172.793C223.119 171.524 223.009 170.104 223.232 168.533C223.465 166.888 224.008 165.513 224.862 164.409C225.737 163.289 226.783 162.494 227.999 162.025C229.237 161.541 230.512 161.391 231.824 161.577C232.674 161.697 233.358 161.86 233.876 162.065C234.396 162.252 235.006 162.537 235.706 162.919L236.623 161.436C236.134 161.028 235.413 160.662 234.46 160.338C233.527 159.999 232.719 159.781 232.036 159.684C230.224 159.427 228.519 159.62 226.92 160.26C225.324 160.883 223.993 161.892 222.928 163.287C221.866 164.663 221.199 166.313 220.927 168.235C220.668 170.065 220.822 171.774 221.389 173.362C221.958 174.932 222.894 176.243 224.197 177.295C225.518 178.349 227.121 179.01 229.007 179.277C229.931 179.408 230.91 179.414 231.945 179.297C232.977 179.198 233.815 179.006 234.459 178.72L235.731 169.935L229.659 169.076L229.234 170.684L233.392 171.273ZM241.574 173.393L244.236 173.77C246.343 174.068 248.142 173.814 249.632 173.007C251.125 172.181 252.02 170.79 252.316 168.834C252.596 166.856 252.173 165.316 251.047 164.214C249.923 163.094 248.299 162.383 246.174 162.082L241.045 161.356L238.375 180.208L240.565 180.518L241.574 173.393ZM245.938 163.943C247.472 164.16 248.594 164.63 249.302 165.353C250.013 166.057 250.265 167.139 250.058 168.599C249.828 169.961 249.222 170.912 248.24 171.452C247.262 171.973 246.042 172.131 244.582 171.924L241.837 171.535L242.972 163.523L245.938 163.943ZM252.991 181.344C253.443 181.747 254.187 182.154 255.222 182.565C256.257 182.975 257.181 183.238 257.995 183.353C259.362 183.547 260.575 183.502 261.634 183.218C262.71 182.937 263.56 182.463 264.182 181.797C264.823 181.134 265.211 180.322 265.347 179.361C265.473 178.474 265.395 177.69 265.115 177.009C264.837 176.31 264.372 175.66 263.722 175.058C263.091 174.46 262.231 173.81 261.142 173.109C259.932 172.335 259.022 171.706 258.411 171.224C257.801 170.742 257.344 170.243 257.039 169.729C256.756 169.199 256.662 168.601 256.756 167.935C256.882 167.048 257.34 166.406 258.132 166.009C258.942 165.615 259.957 165.504 261.176 165.677C261.99 165.792 262.662 165.972 263.193 166.217C263.742 166.464 264.336 166.794 264.976 167.205L265.964 165.619C265.364 165.195 264.655 164.812 263.836 164.47C263.036 164.13 262.192 163.898 261.305 163.772C260.103 163.602 259.011 163.664 258.026 163.958C257.063 164.237 256.281 164.701 255.68 165.351C255.097 166.004 254.743 166.774 254.618 167.661C254.44 168.918 254.686 170.037 255.358 171.018C256.048 172.002 257.201 172.985 258.815 173.968C259.943 174.655 260.82 175.251 261.446 175.754C262.094 176.242 262.567 176.761 262.866 177.313C263.167 177.846 263.272 178.435 263.181 179.082C263.053 179.988 262.55 180.671 261.675 181.131C260.82 181.576 259.672 181.696 258.23 181.492C257.417 181.377 256.601 181.148 255.782 180.806C254.984 180.448 254.311 180.079 253.761 179.7L252.991 181.344Z" fill="#4F4F4F"/>
<path d="M126.768 144.808L135.679 146.069L139.68 141.585C139.816 141.434 139.908 141.248 139.946 141.048C139.984 140.848 139.968 140.641 139.898 140.45C139.828 140.258 139.707 140.09 139.549 139.962C139.391 139.833 139.2 139.751 138.999 139.722L125.343 137.788C125.142 137.76 124.936 137.787 124.748 137.866C124.561 137.945 124.398 138.073 124.278 138.238C124.157 138.402 124.084 138.596 124.065 138.799C124.047 139.002 124.083 139.206 124.171 139.389L126.768 144.808ZM135.364 148.297L126.453 147.035C111.226 153.074 110.444 163.846 110.253 165.193C109.731 168.883 112.726 172.361 116.942 172.958L137.304 175.841C141.522 176.439 145.364 173.929 145.886 170.239C146.074 168.916 148.245 158.271 135.364 148.297ZM129.38 167.192L129.209 168.399C129.186 168.558 129.099 168.702 128.97 168.798C128.841 168.895 128.678 168.936 128.519 168.913L127.307 168.742C127.147 168.719 127.002 168.635 126.905 168.506C126.807 168.378 126.764 168.216 126.785 168.056L126.958 166.837C126.106 166.671 125.321 166.259 124.7 165.653C124.639 165.591 124.592 165.516 124.563 165.434C124.534 165.352 124.523 165.265 124.53 165.178C124.538 165.091 124.565 165.007 124.608 164.932C124.652 164.856 124.711 164.791 124.782 164.741L125.795 164.028C125.911 163.949 126.051 163.912 126.191 163.922C126.331 163.932 126.464 163.989 126.568 164.084C126.834 164.305 127.156 164.449 127.498 164.499L129.627 164.801C130.119 164.871 130.584 164.485 130.661 163.938C130.725 163.488 130.507 163.059 130.129 162.891L126.861 161.396C125.511 160.779 124.716 159.303 124.928 157.803C125.188 155.967 126.839 154.678 128.641 154.88L128.813 153.663C128.837 153.503 128.924 153.359 129.054 153.263C129.184 153.166 129.347 153.125 129.507 153.149L130.719 153.321C130.879 153.343 131.023 153.427 131.121 153.556C131.218 153.685 131.261 153.846 131.24 154.006L131.067 155.228C131.919 155.393 132.705 155.805 133.325 156.412C133.386 156.475 133.433 156.549 133.462 156.631C133.491 156.713 133.502 156.801 133.494 156.887C133.487 156.974 133.46 157.058 133.416 157.133C133.373 157.209 133.314 157.274 133.243 157.324L132.236 158.048C132.12 158.126 131.98 158.163 131.84 158.153C131.7 158.143 131.567 158.086 131.463 157.991C131.197 157.77 130.875 157.626 130.533 157.576L128.405 157.274C127.913 157.205 127.449 157.59 127.371 158.137C127.307 158.587 127.525 159.015 127.902 159.184L131.17 160.679C132.52 161.296 133.315 162.772 133.103 164.272C132.833 166.108 131.174 167.403 129.38 167.192Z" fill="#5FBA86"/>
<g filter="url(#filter2_d)">
<path fill-rule="evenodd" clip-rule="evenodd" d="M87.8258 328.698C86.2371 329.168 85.3305 330.838 85.8009 332.426L105.106 397.628C105.577 399.217 107.246 400.124 108.834 399.653L316.751 338.093C318.34 337.622 319.246 335.953 318.776 334.364L299.471 269.162C299 267.574 297.331 266.667 295.742 267.137L87.8258 328.698ZM302.867 309.352C305.78 308.489 307.442 305.429 306.579 302.517C305.717 299.604 302.657 297.942 299.744 298.804C296.832 299.667 295.17 302.727 296.032 305.64C296.894 308.552 299.954 310.214 302.867 309.352Z" fill="#FBFCFF"/>
</g>
<path d="M243.853 325.648L241.061 326.475L237.595 314.769L236.118 315.207L230.59 329.575L231.402 331.233L239.457 328.848L240.562 332.58L242.683 331.952L241.578 328.22L244.128 327.465L243.853 325.648ZM236.571 319.102L238.94 327.103L232.872 328.9L236.571 319.102ZM250.092 327.743L244.687 309.487L242.566 310.115L247.971 328.371L250.092 327.743ZM268.148 312.323C268.567 313.737 268.723 315.121 268.618 316.476C268.508 317.813 268.162 319.045 267.581 320.171L269.757 321.308L268.821 322.782L266.618 321.653C265.49 323.038 264.061 323.997 262.33 324.529C260.701 325.011 259.123 325.04 257.596 324.616C256.069 324.192 254.726 323.373 253.568 322.158C252.411 320.944 251.564 319.433 251.029 317.625C250.494 315.817 250.378 314.08 250.683 312.413C251.005 310.74 251.695 309.29 252.753 308.062C253.81 306.834 255.157 305.958 256.793 305.435C258.422 304.953 260.009 304.921 261.554 305.339C263.099 305.758 264.451 306.574 265.608 307.789C266.766 309.004 267.613 310.515 268.148 312.323ZM261.728 322.692C262.963 322.326 263.965 321.669 264.736 320.721L261.269 318.973L262.42 317.435L265.675 319.158C266.059 318.285 266.271 317.327 266.313 316.283C266.349 315.221 266.202 314.135 265.874 313.025C265.445 311.575 264.792 310.357 263.916 309.371C263.034 308.366 262.024 307.682 260.885 307.319C259.758 306.932 258.595 306.916 257.395 307.271C256.16 307.637 255.151 308.306 254.368 309.277C253.598 310.226 253.11 311.373 252.905 312.718C252.695 314.046 252.809 315.453 253.249 316.938C253.679 318.388 254.334 319.615 255.215 320.62C256.091 321.606 257.093 322.293 258.22 322.679C259.359 323.043 260.528 323.047 261.728 322.692Z" fill="#4F4F4F"/>
<path d="M131.968 342.483L140.598 339.928L142.374 334.187C142.434 333.993 142.441 333.785 142.392 333.588C142.344 333.39 142.243 333.209 142.1 333.064C141.957 332.919 141.777 332.815 141.58 332.765C141.383 332.714 141.175 332.718 140.98 332.775L127.756 336.691C127.56 336.749 127.385 336.859 127.247 337.008C127.109 337.158 127.014 337.343 126.973 337.542C126.932 337.742 126.946 337.949 127.013 338.141C127.08 338.333 127.199 338.504 127.355 338.634L131.968 342.483ZM141.237 342.086L132.607 344.641C121.266 356.461 125.031 366.583 125.418 367.888C126.476 371.462 130.645 373.38 134.729 372.171L154.447 366.333C158.532 365.124 160.984 361.244 159.926 357.671C159.546 356.39 157.098 345.805 141.237 342.086ZM143.646 361.758L143.992 362.927C144.037 363.082 144.018 363.249 143.94 363.39C143.863 363.531 143.732 363.636 143.578 363.682L142.404 364.029C142.249 364.076 142.082 364.059 141.94 363.982C141.798 363.906 141.692 363.777 141.644 363.622L141.295 362.442C140.451 362.645 139.566 362.597 138.749 362.303C138.668 362.272 138.594 362.223 138.534 362.161C138.473 362.099 138.427 362.024 138.398 361.942C138.369 361.86 138.358 361.772 138.366 361.685C138.374 361.599 138.401 361.515 138.445 361.44L139.07 360.37C139.143 360.25 139.254 360.158 139.386 360.109C139.518 360.06 139.662 360.057 139.796 360.1C140.13 360.191 140.483 360.188 140.815 360.091L142.877 359.481C143.354 359.34 143.616 358.796 143.459 358.266C143.33 357.83 142.954 357.531 142.54 357.535L138.946 357.533C137.462 357.533 136.125 356.521 135.695 355.068C135.168 353.29 136.134 351.432 137.857 350.867L137.509 349.688C137.464 349.533 137.483 349.366 137.561 349.224C137.639 349.082 137.77 348.977 137.926 348.932L139.099 348.585C139.254 348.539 139.421 348.556 139.563 348.632C139.705 348.708 139.811 348.838 139.858 348.992L140.208 350.176C141.053 349.972 141.938 350.02 142.755 350.314C142.836 350.345 142.91 350.394 142.97 350.456C143.031 350.519 143.077 350.594 143.106 350.676C143.135 350.758 143.146 350.845 143.137 350.932C143.129 351.018 143.102 351.102 143.058 351.177L142.444 352.254C142.37 352.374 142.259 352.466 142.127 352.515C141.995 352.564 141.851 352.567 141.717 352.524C141.383 352.433 141.03 352.436 140.698 352.533L138.638 353.143C138.161 353.284 137.899 353.827 138.056 354.357C138.185 354.793 138.561 355.092 138.974 355.088L142.568 355.09C144.052 355.091 145.389 356.103 145.819 357.555C146.336 359.338 145.365 361.205 143.646 361.758Z" fill="#5FBA86"/>
<defs>
<filter id="filter0_d" x="477.747" y="0.779297" width="393.945" height="316.027" filterUnits="userSpaceOnUse" color-interpolation-filters="sRGB">
<feFlood flood-opacity="0" result="BackgroundImageFix"/>
<feColorMatrix in="SourceAlpha" type="matrix" values="0 0 0 0 0 0 0 0 0 0 0 0 0 0 0 0 0 0 127 0"/>
<feOffset dx="1" dy="1"/>
<feGaussianBlur stdDeviation="40"/>
<feColorMatrix type="matrix" values="0 0 0 0 0 0 0 0 0 0 0 0 0 0 0 0 0 0 0.15 0"/>
<feBlend mode="normal" in2="BackgroundImageFix" result="effect1_dropShadow"/>
<feBlend mode="normal" in="SourceGraphic" in2="effect1_dropShadow" result="shape"/>
</filter>
<filter id="filter1_d" x="0" y="34.5059" width="391.013" height="264.512" filterUnits="userSpaceOnUse" color-interpolation-filters="sRGB">
<feFlood flood-opacity="0" result="BackgroundImageFix"/>
<feColorMatrix in="SourceAlpha" type="matrix" values="0 0 0 0 0 0 0 0 0 0 0 0 0 0 0 0 0 0 127 0"/>
<feOffset dx="1" dy="1"/>
<feGaussianBlur stdDeviation="40"/>
<feColorMatrix type="matrix" values="0 0 0 0 0 0 0 0 0 0 0 0 0 0 0 0 0 0 0.15 0"/>
<feBlend mode="normal" in2="BackgroundImageFix" result="effect1_dropShadow"/>
<feBlend mode="normal" in="SourceGraphic" in2="effect1_dropShadow" result="shape"/>
</filter>
<filter id="filter2_d" x="5.94922" y="187.286" width="394.678" height="294.219" filterUnits="userSpaceOnUse" color-interpolation-filters="sRGB">
<feFlood flood-opacity="0" result="BackgroundImageFix"/>
<feColorMatrix in="SourceAlpha" type="matrix" values="0 0 0 0 0 0 0 0 0 0 0 0 0 0 0 0 0 0 127 0"/>
<feOffset dx="1" dy="1"/>
<feGaussianBlur stdDeviation="40"/>
<feColorMatrix type="matrix" values="0 0 0 0 0 0 0 0 0 0 0 0 0 0 0 0 0 0 0.15 0"/>
<feBlend mode="normal" in2="BackgroundImageFix" result="effect1_dropShadow"/>
<feBlend mode="normal" in="SourceGraphic" in2="effect1_dropShadow" result="shape"/>
</filter>
</defs>
</svg>
