<svg width="489" height="724" viewBox="0 0 489 724" fill="none" xmlns="http://www.w3.org/2000/svg">
<g opacity="0.8">
<path d="M156.416 220.746L96.9345 250.736L112.67 281.946L172.152 251.956L194.186 257.441L203.903 235.948L445.802 113.985L430.067 82.7749L188.167 204.738L165.964 201.466L156.416 220.746Z" fill="#F47E3E"/>
<rect width="45.6045" height="22.795" transform="matrix(0.450203 0.892926 0.892926 -0.450203 418.008 109.49)" fill="#F47E3E"/>
<rect width="31.3432" height="22.7951" transform="matrix(0.450203 0.892926 0.892926 -0.450203 336.592 150.54)" fill="#F47E3E"/>
<rect width="66.2735" height="22.795" transform="matrix(0.450203 0.892926 0.892926 -0.450203 377.299 130.015)" fill="#F47E3E"/>
<path fill-rule="evenodd" clip-rule="evenodd" d="M124.759 343.138L75.9048 405.932L-10.5843 411.376L-72.7565 356.93L-83.4754 266.805L-23.7547 208.269L51.8677 198.567L124.907 257.271L124.759 343.138ZM103.462 335.361L65.1513 384.604L-2.6724 388.873L-51.4271 346.177L-59.8327 275.502L-13.0005 229.599L46.3017 221.99L103.578 268.025L103.462 335.361Z" fill="#F47E3E"/>
</g>
<path d="M124.664 466.159L65.7049 435.156L49.4374 466.092L108.397 497.095L116.73 518.217L139.869 513.645L379.646 639.73L395.914 608.794L156.137 482.709L145.905 462.734L124.664 466.159Z" fill="#FBE4CE"/>
<rect width="31.3432" height="22.795" transform="matrix(-0.465419 0.885091 0.885091 0.465419 367.162 614.493)" fill="#FBE4CE"/>
<rect width="31.3431" height="22.7951" transform="matrix(-0.465419 0.885091 0.885091 0.465419 286.46 572.057)" fill="#FBE4CE"/>
<rect width="54.7081" height="22.795" transform="matrix(-0.465419 0.885091 0.885091 0.465419 326.811 593.274)" fill="#FBE4CE"/>
<path fill-rule="evenodd" clip-rule="evenodd" d="M76.6319 461.72L-72.8462 508.171L-119.297 358.692L30.1814 312.242L76.6319 461.72ZM48.1008 446.717L15.1784 340.773L-90.7659 373.695L-57.8436 479.639L48.1008 446.717Z" fill="#FBE4CE"/>
</svg>
