<svg width="662" height="678" viewBox="0 0 662 678" fill="none" xmlns="http://www.w3.org/2000/svg">
<path d="M204.718 516.661L548.081 418.649L534.704 371.783L191.34 469.796L162.599 456.514L143.662 483.405L34.4621 514.576L47.8399 561.442L157.039 530.271L186.592 540.567L204.718 516.661Z" fill="#F4B186"/>
<rect width="120.785" height="31.7855" transform="matrix(-0.274485 -0.961591 -0.961591 0.274485 71.3516 528.011)" fill="#F4B186"/>
<rect width="76.2852" height="31.7855" transform="matrix(-0.274485 -0.961591 -0.961591 0.274485 132.481 510.562)" fill="#F4B186"/>
<path fill-rule="evenodd" clip-rule="evenodd" d="M511.483 402.377C489.318 324.727 534.298 243.811 611.948 221.646C689.597 199.481 770.513 244.46 792.678 322.11C814.843 399.76 769.864 480.676 692.214 502.841C614.564 525.006 533.648 480.027 511.483 402.377ZM546.894 392.269C563.477 450.361 624.013 484.012 682.106 467.43C740.199 450.847 773.849 390.311 757.267 332.218C740.684 274.125 680.148 240.475 622.055 257.057C563.963 273.64 530.312 334.176 546.894 392.269Z" fill="#F4B186"/>
<g opacity="0.8">
<path d="M555.557 162.254L608.942 205.455L621.707 189.68L568.322 146.479C568.322 146.479 569.865 136.872 565.968 133.509C561.92 130.014 552.274 133.493 552.274 133.493L453.329 53.4246L440.564 69.1993L539.508 149.268C539.508 149.268 539.022 158.722 543.074 161.8C546.958 164.751 555.557 162.254 555.557 162.254Z" fill="#FFC7A8"/>
<rect width="50.2906" height="13.2344" transform="matrix(0.629057 -0.777359 -0.777359 -0.629057 457.581 69.2085)" fill="#FFC7A8"/>
<rect width="50.2906" height="13.2344" transform="matrix(0.629057 -0.777359 -0.777359 -0.629057 498.732 102.509)" fill="#FFC7A8"/>
<rect width="31.7625" height="13.2344" transform="matrix(0.629057 -0.777359 -0.777359 -0.629057 478.157 85.8589)" fill="#FFC7A8"/>
<path fill-rule="evenodd" clip-rule="evenodd" d="M630.261 180.011C654.845 170.266 671.219 163.776 691.346 180.063C717.482 201.213 721.524 239.546 700.374 265.682C679.224 291.819 640.891 295.861 614.754 274.711C594.745 258.519 597.165 244.076 601.632 217.416C603 209.254 604.559 199.945 605.726 189.091C614.849 186.121 622.921 182.921 630.261 180.011ZM614.883 219.691C611.877 238.18 609.797 250.975 624.4 262.792C643.953 278.615 672.632 275.591 688.455 256.037C704.278 236.484 701.254 207.805 681.701 191.982C666.555 179.726 654.489 184.527 635.84 191.947C630.412 194.107 624.426 196.489 617.645 198.736C617.027 206.498 615.902 213.422 614.883 219.691Z" fill="#FFC7A8"/>
</g>
</svg>
