<svg width="75" height="333" viewBox="0 0 75 333" fill="none" xmlns="http://www.w3.org/2000/svg">
<g opacity="0.8">
<path d="M75.2549 154.902V116.228H54.9622V154.902L46.3599 164.892L54.9622 175.547V332.83H75.2549V175.547L82.7544 164.892L75.2549 154.902Z" fill="#F6AB52"/>
<rect width="26.4771" height="13.2344" transform="matrix(-1 0 0 1 64.5571 319.596)" fill="#F6AB52"/>
<rect width="18.1972" height="13.2344" transform="matrix(-1 0 0 1 64.5569 266.659)" fill="#F6AB52"/>
<rect width="38.4771" height="13.2344" transform="matrix(-1 0 0 1 64.5571 293.127)" fill="#F6AB52"/>
<path fill-rule="evenodd" clip-rule="evenodd" d="M20.08 106.5L0.295898 64.7602L20.08 18.5L64.5561 0.5L114.08 18.5L128.816 64.7602L114.08 106.5L64.5561 129.02L20.08 106.5ZM29.6781 97.492L14.1636 64.7602L29.6781 28.4835L64.5557 14.3682L103.392 28.4835L114.948 64.7602L103.392 97.492L64.5557 115.152L29.6781 97.492Z" fill="#F6AB52"/>
</g>
</svg>
