<svg width="407" height="417" viewBox="0 0 407 417" fill="none" xmlns="http://www.w3.org/2000/svg">
<g opacity="0.8">
<path d="M146.277 214.949L180.614 274.423L198.188 264.277L163.851 204.803C163.851 204.803 168.737 196.388 166.306 191.85C163.78 187.136 153.528 186.924 153.528 186.924L89.887 76.6935L72.313 86.8398L135.954 197.07C135.954 197.07 132.109 205.721 134.787 210.048C137.355 214.195 146.277 214.949 146.277 214.949Z" fill="#F47E3E"/>
<rect width="50.2906" height="13.2344" transform="matrix(0.866025 -0.5 -0.5 -0.866025 88.1948 92.9521)" fill="#F47E3E"/>
<rect width="50.2906" height="13.2344" transform="matrix(0.866025 -0.5 -0.5 -0.866025 114.664 138.797)" fill="#F47E3E"/>
<rect width="31.7625" height="13.2344" transform="matrix(0.866025 -0.5 -0.5 -0.866025 101.429 115.875)" fill="#F47E3E"/>
<path fill-rule="evenodd" clip-rule="evenodd" d="M209.641 258.32C236.085 258.041 253.697 257.855 266.643 280.278C283.454 309.395 273.478 346.628 244.36 363.439C215.243 380.25 178.01 370.273 161.199 341.156C148.329 318.864 155.768 306.25 169.501 282.967C173.705 275.838 178.5 267.709 183.482 257.995C193.063 258.494 201.746 258.403 209.641 258.32ZM181.054 289.843C171.616 306.024 165.085 317.221 174.478 333.489C187.055 355.273 214.91 362.737 236.694 350.16C258.478 337.583 265.941 309.728 253.364 287.944C243.623 271.071 230.637 271.225 210.567 271.463C204.726 271.532 198.285 271.608 191.148 271.274C187.788 278.298 184.254 284.357 181.054 289.843Z" fill="#F47E3E"/>
<path d="M310.633 79.2502L184.77 158.388L195.572 175.567L321.434 96.4292L334.47 98.3944L338.911 85.4403L378.939 60.272L368.138 43.093L328.11 68.2613L315.098 67.5842L310.633 79.2502Z" fill="#FFC7A8"/>
<rect width="50.2906" height="13.2344" transform="matrix(0.53229 0.846562 0.846562 -0.53229 362.628 59.1938)" fill="#FFC7A8"/>
<rect width="31.7625" height="13.2344" transform="matrix(0.53229 0.846562 0.846562 -0.53229 340.221 73.283)" fill="#FFC7A8"/>
<path fill-rule="evenodd" clip-rule="evenodd" d="M201.295 160.635C219.192 189.098 210.626 226.68 182.163 244.577C153.7 262.473 116.118 253.908 98.221 225.444C80.3243 196.981 88.8901 159.399 117.353 141.503C145.816 123.606 183.398 132.172 201.295 160.635ZM188.315 168.796C174.926 147.502 146.809 141.094 125.515 154.483C104.22 167.872 97.812 195.989 111.201 217.283C124.59 238.577 152.707 244.986 174.001 231.596C195.296 218.207 201.704 190.091 188.315 168.796Z" fill="#FFC7A8"/>
<rect x="105.433" y="144.142" width="20.2381" height="31.315" transform="rotate(-29.8875 105.433 144.142)" fill="#F47E3E"/>
</g>
</svg>
