<svg width="252" height="319" viewBox="0 0 252 319" fill="none" xmlns="http://www.w3.org/2000/svg">
<path d="M83.9411 143.334L55.2431 117.408L41.6397 132.466L70.3376 158.392L71.9833 171.472L85.6566 172.232L202.366 277.668L215.969 262.61L99.2601 157.174L96.3809 144.466L83.9411 143.334Z" fill="#F4B186"/>
<rect width="18.1972" height="13.2344" transform="matrix(-0.670364 0.742033 0.742033 0.670364 198.977 261.677)" fill="#F4B186"/>
<rect width="18.1972" height="13.2344" transform="matrix(-0.670364 0.742033 0.742033 0.670364 159.696 226.19)" fill="#F4B186"/>
<rect width="31.7625" height="13.2344" transform="matrix(-0.670364 0.742033 0.742033 0.670364 179.337 243.933)" fill="#F4B186"/>
<path fill-rule="evenodd" clip-rule="evenodd" d="M57.5645 133.922L-33.1965 138.528L-37.8019 47.767L52.959 43.1616L57.5645 133.922ZM43.6772 121.377L40.413 57.0487L-23.9148 60.3129L-20.6506 124.641L43.6772 121.377Z" fill="#F4B186"/>
</svg>
