<svg width="67" height="96" viewBox="0 0 67 96" fill="none" xmlns="http://www.w3.org/2000/svg">
<path d="M53.9472 37.7368C53.9472 46.8812 48.177 54.6332 40.1933 57.3179V95.3124H14.3847V84.5215H27.8501V76.5703H22.5201V67.4833H27.8501V57.3183C19.8658 54.6339 14.0951 46.8817 14.0951 37.7368C14.0951 34.7382 14.7155 31.8894 15.831 29.3199L12.1316 19.209L20.8633 22.2756C24.3731 19.0844 28.9784 17.1489 34.0211 17.1489C45.026 17.1489 53.9472 26.3664 53.9472 37.7368Z" fill="url(#paint0_linear)"/>
<ellipse rx="1.85781" ry="1.85222" transform="matrix(0.588799 -0.806997 0.801504 0.599726 16.7808 62.1199)" fill="url(#paint1_linear)"/>
<ellipse rx="1.85781" ry="1.85221" transform="matrix(0.588798 -0.806997 0.801503 0.599727 50.1326 12.3835)" fill="url(#paint2_linear)"/>
<ellipse rx="1.8494" ry="1.86065" transform="matrix(0.871215 -0.487769 0.480867 0.878518 8.00375 52.3575)" fill="url(#paint3_linear)"/>
<ellipse rx="1.84939" ry="1.86065" transform="matrix(0.871215 -0.487769 0.480867 0.878518 59.689 24.9122)" fill="url(#paint4_linear)"/>
<ellipse rx="1.84278" ry="1.86725" transform="matrix(0.998994 -0.019049 0.0211272 1.00058 3.82642 38.7942)" fill="url(#paint5_linear)"/>
<ellipse rx="1.84278" ry="1.86725" transform="matrix(0.998994 -0.0190491 0.0211272 1.00058 62.5342 38.7942)" fill="url(#paint6_linear)"/>
<ellipse rx="1.84944" ry="1.86057" transform="matrix(0.896626 0.444084 -0.434122 0.900219 6.41939 24.9127)" fill="url(#paint7_linear)"/>
<ellipse rx="1.84944" ry="1.86057" transform="matrix(0.896626 0.444084 -0.434122 0.900219 58.8698 52.359)" fill="url(#paint8_linear)"/>
<ellipse rx="1.85798" ry="1.85206" transform="matrix(0.592787 0.807193 -0.798079 0.600076 17.1611 12.3841)" fill="url(#paint9_linear)"/>
<ellipse rx="1.86243" ry="1.84267" transform="matrix(0.00130192 1.00075 -0.999227 -0.00133819 33.7662 7.043)" fill="url(#paint10_linear)"/>
<ellipse rx="1.85798" ry="1.85206" transform="matrix(0.592786 0.807194 -0.798078 0.600078 49.7459 62.1204)" fill="url(#paint11_linear)"/>
<path d="M37.3946 38.2679C38.6709 37.2063 39.4847 35.5967 39.4847 33.7939C39.4847 30.5967 36.9243 28.0054 33.7664 28.0054C30.6261 28.0054 28.0792 30.5685 28.0504 33.7408H28.0476V43.4399V45.6322V45.6355C28.0476 45.7554 28.1446 45.8536 28.263 45.8536H30.4321C30.5505 45.8536 30.6475 45.7554 30.6475 45.6355V45.6322V39.8014C30.6475 39.6844 30.7403 39.5899 30.8545 39.5852H33.7655V39.5876C35.4833 39.5876 36.8802 41.0022 36.8802 42.7406H36.8835V45.6327V45.636C36.8835 45.7558 36.9805 45.8541 37.0989 45.8541H39.2679C39.3863 45.8541 39.4834 45.7558 39.4834 45.636V45.6327V43.4403V42.6828H39.4806C39.4643 40.904 38.6551 39.3178 37.3946 38.2679ZM33.7664 36.9473C33.6954 36.9473 31.544 36.9483 30.8643 36.9488C30.7515 36.9422 30.6609 36.8486 30.6609 36.733L30.6596 33.636C30.7004 31.9958 32.1016 30.6409 33.7664 30.6409C35.4842 30.6409 36.8812 32.0555 36.8812 33.7939C36.8812 35.5328 35.4842 36.9473 33.7664 36.9473Z" fill="white"/>
<defs>
<linearGradient id="paint0_linear" x1="33.0394" y1="17.1489" x2="33.0394" y2="95.3125" gradientUnits="userSpaceOnUse">
<stop stop-color="#F47E3E"/>
<stop offset="1" stop-color="#F26922"/>
</linearGradient>
<linearGradient id="paint1_linear" x1="1.85781" y1="0" x2="1.85781" y2="3.70443" gradientUnits="userSpaceOnUse">
<stop stop-color="#F47E3E"/>
<stop offset="1" stop-color="#F26922"/>
</linearGradient>
<linearGradient id="paint2_linear" x1="1.85781" y1="0" x2="1.85781" y2="3.70443" gradientUnits="userSpaceOnUse">
<stop stop-color="#F47E3E"/>
<stop offset="1" stop-color="#F26922"/>
</linearGradient>
<linearGradient id="paint3_linear" x1="1.8494" y1="0" x2="1.8494" y2="3.7213" gradientUnits="userSpaceOnUse">
<stop stop-color="#F47E3E"/>
<stop offset="1" stop-color="#F26922"/>
</linearGradient>
<linearGradient id="paint4_linear" x1="1.84939" y1="0" x2="1.84939" y2="3.72129" gradientUnits="userSpaceOnUse">
<stop stop-color="#F47E3E"/>
<stop offset="1" stop-color="#F26922"/>
</linearGradient>
<linearGradient id="paint5_linear" x1="1.84278" y1="0" x2="1.84278" y2="3.73451" gradientUnits="userSpaceOnUse">
<stop stop-color="#F47E3E"/>
<stop offset="1" stop-color="#F26922"/>
</linearGradient>
<linearGradient id="paint6_linear" x1="1.84278" y1="0" x2="1.84278" y2="3.73451" gradientUnits="userSpaceOnUse">
<stop stop-color="#F47E3E"/>
<stop offset="1" stop-color="#F26922"/>
</linearGradient>
<linearGradient id="paint7_linear" x1="1.84944" y1="0" x2="1.84944" y2="3.72113" gradientUnits="userSpaceOnUse">
<stop stop-color="#F47E3E"/>
<stop offset="1" stop-color="#F26922"/>
</linearGradient>
<linearGradient id="paint8_linear" x1="1.84944" y1="0" x2="1.84944" y2="3.72113" gradientUnits="userSpaceOnUse">
<stop stop-color="#F47E3E"/>
<stop offset="1" stop-color="#F26922"/>
</linearGradient>
<linearGradient id="paint9_linear" x1="1.85798" y1="0" x2="1.85798" y2="3.70413" gradientUnits="userSpaceOnUse">
<stop stop-color="#F47E3E"/>
<stop offset="1" stop-color="#F26922"/>
</linearGradient>
<linearGradient id="paint10_linear" x1="1.86243" y1="0" x2="1.86243" y2="3.68534" gradientUnits="userSpaceOnUse">
<stop stop-color="#F47E3E"/>
<stop offset="1" stop-color="#F26922"/>
</linearGradient>
<linearGradient id="paint11_linear" x1="1.85798" y1="0" x2="1.85798" y2="3.70413" gradientUnits="userSpaceOnUse">
<stop stop-color="#F47E3E"/>
<stop offset="1" stop-color="#F26922"/>
</linearGradient>
</defs>
</svg>
