<svg width="111" height="111" viewBox="0 0 111 111" fill="none" xmlns="http://www.w3.org/2000/svg">
<circle cx="55.6188" cy="55.672" r="52.0851" fill="#F47E3E" stroke="#F7F8FC" stroke-width="6"/>
<path opacity="0.8" d="M35.918 12.8019C49.3839 6.22592 65.5847 5.97935 79.6149 13.5693C102.903 26.1674 111.392 55.585 98.5766 79.2754C85.7608 102.966 56.4929 111.958 33.2049 99.3598C25.5472 95.2172 19.4896 89.256 15.2634 82.2777C19.0065 87.4492 23.922 91.8673 29.8844 95.0928C51.54 106.808 78.8057 98.3547 90.7841 76.2122C102.762 54.0698 94.9175 26.6229 73.2619 14.9079C61.352 8.46507 47.7454 8.12231 35.918 12.8019Z" fill="#F26922"/>
<path opacity="0.8" d="M104.025 45.8678C97.1697 29.1926 80.8706 17.4632 61.8546 17.4632C36.6539 17.4632 16.2248 38.0629 16.2248 63.474C16.2248 78.0074 22.9074 90.9671 33.3432 99.3991C17.4264 91.2644 6.53369 74.7414 6.53369 55.6817C6.53369 28.5674 28.578 6.58691 55.7711 6.58691C79.5935 6.58691 99.4645 23.4561 104.025 45.8678Z" fill="#F6AB52"/>
<path opacity="0.4" d="M81.0436 13.5628C77.0111 11.1424 72.5598 9.2666 67.764 8.05986C41.4812 1.44645 14.8038 17.4307 8.17822 43.7616C5.58237 54.078 6.44968 64.452 10.0456 73.6526C5.95785 50.9342 12.6538 29.0096 29.585 17.0707C44.1967 6.76742 63.2423 6.14991 81.0436 13.5628Z" fill="#F47E3E"/>
<path d="M68.1671 60.2425C72.5807 56.6157 75.3951 51.1168 75.3951 44.9581C75.3951 34.0359 66.5407 25.1831 55.6201 25.1831C44.7605 25.1831 35.9527 33.9395 35.8531 44.7767H35.8435V77.9111V85.4008V85.412C35.8435 85.8214 36.1791 86.157 36.5885 86.157H44.0894C44.4988 86.157 44.8343 85.8214 44.8343 85.412V85.4008V65.4813C44.8343 65.0815 45.1554 64.7588 45.5504 64.7427H55.6169V64.7508C61.5573 64.7508 66.3882 69.5833 66.3882 75.5221H66.3995V85.4024V85.4136C66.3995 85.823 66.735 86.1586 67.1444 86.1586H74.6453C75.0547 86.1586 75.3903 85.823 75.3903 85.4136V85.4024V77.9127V75.3246H75.3807C75.3245 69.2478 72.5261 63.8292 68.1671 60.2425ZM55.6201 55.731C55.3745 55.731 47.9346 55.7343 45.5841 55.7359C45.194 55.7134 44.8809 55.3939 44.8809 54.9989L44.8761 44.4187C45.0174 38.8154 49.8628 34.1868 55.6201 34.1868C61.5605 34.1868 66.3914 39.0193 66.3914 44.9581C66.3914 50.8985 61.5605 55.731 55.6201 55.731Z" fill="white"/>
</svg>
