<svg width="238" height="347" viewBox="0 0 238 347" fill="none" xmlns="http://www.w3.org/2000/svg">
<g opacity="0.8">
<path d="M94.9281 262.725L162.623 130.355L144.555 121.116L76.8609 253.485L64.6537 258.462L67.461 271.866L45.9322 313.963L63.9994 323.202L85.5282 281.105L97.0567 275.033L94.9281 262.725Z" fill="#F47E3E"/>
<rect width="50.2906" height="13.2344" transform="matrix(-0.890328 -0.455319 -0.455319 0.890328 60.5005 306.549)" fill="#F47E3E"/>
<rect width="31.7625" height="13.2344" transform="matrix(-0.890328 -0.455319 -0.455319 0.890328 72.5522 282.983)" fill="#F47E3E"/>
<path fill-rule="evenodd" clip-rule="evenodd" d="M147.273 136.875C117.338 121.566 105.482 84.889 120.791 54.9544C136.099 25.0197 172.776 13.1631 202.711 28.4719C232.646 43.7806 244.502 80.4576 229.193 110.392C213.885 140.327 177.208 152.183 147.273 136.875ZM154.254 123.223C176.65 134.677 204.089 125.806 215.542 103.411C226.995 81.0157 218.125 53.5763 195.73 42.1232C173.334 30.6702 145.895 39.5405 134.442 61.9358C122.989 84.331 131.859 111.77 154.254 123.223Z" fill="#F47E3E"/>
</g>
</svg>
