<svg width="100" height="99" viewBox="0 0 100 99" fill="none" xmlns="http://www.w3.org/2000/svg">
<mask id="mask0" mask-type="alpha" maskUnits="userSpaceOnUse" x="0" y="0" width="100" height="99">
<circle cx="49.971" cy="49.8125" r="49.085" fill="#5670AB"/>
</mask>
<g mask="url(#mask0)">
<circle cx="49.971" cy="49.8125" r="49.085" fill="#F6AB52"/>
<path d="M37.1444 34.7163L48.5709 23.1289L53.1025 27.9289L41.5215 39.2797L37.1444 34.7163Z" fill="#FBFCFF"/>
<path d="M38.8617 41.8878L44.666 36.2119C44.666 36.2119 43.2471 34.4096 42.4418 33.4509C41.6365 32.4922 40.9463 30.8433 40.9463 30.8433L29.8826 41.8878L47.6086 59.6139L52.0981 55.1243L38.8617 41.8878Z" fill="#FBFCFF"/>
<path d="M63.3288 48.9814L51.9022 37.3941L47.3706 42.194L58.9516 53.5448L63.3288 48.9814Z" fill="#FBFCFF"/>
<path d="M61.6115 56.153L55.8071 50.4771C55.8071 50.4771 57.226 48.6747 58.0313 47.716C58.8366 46.7573 59.5269 45.1084 59.5269 45.1084L70.5906 56.153L52.8646 73.879L48.375 69.3894L61.6115 56.153Z" fill="#FBFCFF"/>
<path d="M61.4672 56.1306L56.4962 50.6304L56.2662 41.9639L70.4463 56.1306L52.7203 73.8567L48.2307 69.3671L61.4672 56.1306Z" fill="#FBFCFF"/>
</g>
</svg>
