<svg width="434" height="603" viewBox="0 0 434 603" fill="none" xmlns="http://www.w3.org/2000/svg">
<g opacity="0.8">
<path d="M368.238 288.042L315.701 213.446L293.658 228.97L346.196 303.566C346.196 303.566 340.735 315.283 344.494 320.997C348.399 326.933 361.99 325.99 361.99 325.99L459.364 464.247L481.406 448.723L384.032 310.466C384.032 310.466 388.087 298.56 384.026 293.155C380.134 287.973 368.238 288.042 368.238 288.042Z" fill="#F26922"/>
<rect width="66.8149" height="17.5829" transform="matrix(-0.817577 0.575819 0.57582 0.817577 459.661 442.531)" fill="#F26922"/>
<rect width="66.8149" height="17.5829" transform="matrix(-0.817577 0.57582 0.57582 0.817577 419.163 385.031)" fill="#F26922"/>
<rect width="42.1989" height="17.5829" transform="matrix(-0.817577 0.57582 0.57582 0.817577 439.412 413.781)" fill="#F26922"/>
<path fill-rule="evenodd" clip-rule="evenodd" d="M279.215 238.22C244.258 241.747 220.975 244.096 201.168 215.972C175.446 179.452 184.201 128.994 220.721 103.273C257.242 77.5511 307.699 86.3056 333.421 122.826C353.113 150.786 344.775 168.365 329.386 200.813C324.673 210.748 319.3 222.078 313.867 235.526C301.13 236.009 289.652 237.167 279.215 238.22ZM313.277 193.095C323.832 170.557 331.137 154.961 316.766 134.556C297.523 107.234 259.774 100.684 232.451 119.927C205.129 139.171 198.579 176.92 217.823 204.242C232.728 225.405 249.891 223.651 276.42 220.94C284.141 220.151 292.655 219.281 302.137 218.871C305.746 209.176 309.698 200.736 313.277 193.095Z" fill="#F26922"/>
<path d="M166.968 487.225L324.058 367.479L307.714 346.038L150.624 465.784L133.14 464.741L128.811 482.412L78.8512 520.495L95.1954 541.936L145.155 503.853L162.453 503.195L166.968 487.225Z" fill="#F47E3E"/>
<rect width="66.8149" height="17.5829" transform="matrix(-0.60623 -0.79529 -0.79529 0.60623 100.563 519.974)" fill="#F47E3E"/>
<rect width="42.1989" height="17.5829" transform="matrix(-0.60623 -0.79529 -0.79529 0.60623 128.53 498.655)" fill="#F47E3E"/>
<path fill-rule="evenodd" clip-rule="evenodd" d="M301.925 366.481C274.845 330.955 281.691 280.204 317.216 253.124C352.741 226.044 403.493 232.89 430.573 268.415C457.653 303.94 450.806 354.692 415.281 381.772C379.756 408.852 329.005 402.006 301.925 366.481ZM318.125 354.131C338.385 380.708 376.354 385.83 402.932 365.571C429.509 345.311 434.631 307.342 414.372 280.764C394.112 254.187 356.143 249.065 329.565 269.324C302.988 289.584 297.866 327.553 318.125 354.131Z" fill="#F47E3E"/>
<rect x="430.739" y="376.856" width="26.8879" height="41.6045" transform="rotate(144.955 430.739 376.856)" fill="#F26922"/>
</g>
</svg>
