<svg width="379" height="502" viewBox="0 0 379 502" fill="none" xmlns="http://www.w3.org/2000/svg">
<g opacity="0.8">
<path d="M138.96 258.64L86.4222 184.044L64.38 199.569L116.918 274.164C116.918 274.164 111.457 285.881 115.216 291.596C119.121 297.532 132.711 296.589 132.711 296.589L230.085 434.845L252.128 419.321L154.753 281.064C154.753 281.064 158.809 269.158 154.748 263.753C150.855 258.571 138.96 258.64 138.96 258.64Z" fill="#FFC7A8"/>
<rect width="66.8149" height="17.5829" transform="matrix(-0.817577 0.575819 0.57582 0.817577 230.383 413.13)" fill="#FFC7A8"/>
<rect width="66.8149" height="17.5829" transform="matrix(-0.817577 0.57582 0.57582 0.817577 189.885 355.629)" fill="#FFC7A8"/>
<rect width="42.1989" height="17.5829" transform="matrix(-0.817577 0.57582 0.57582 0.817577 210.134 384.379)" fill="#FFC7A8"/>
<path fill-rule="evenodd" clip-rule="evenodd" d="M49.9362 208.818C14.9799 212.345 -8.30324 214.694 -28.1106 186.57C-53.8321 150.05 -45.0777 99.5924 -8.55698 73.8708C27.9637 48.1493 78.4211 56.9037 104.143 93.4245C123.835 121.384 115.497 138.963 100.107 171.411C95.3949 181.347 90.0215 192.676 84.5891 206.124C71.8519 206.607 60.3737 207.765 49.9362 208.818ZM83.9988 163.693C94.5542 141.155 101.859 125.559 87.4879 105.154C68.2446 77.8319 30.4956 71.2824 3.17304 90.5256C-24.1495 109.769 -30.699 147.518 -11.4558 174.84C3.44941 196.004 20.6131 194.249 47.1413 191.538C54.8622 190.749 63.3765 189.879 72.8591 189.469C76.4673 179.774 80.4199 171.334 83.9988 163.693Z" fill="#FFC7A8"/>
</g>
</svg>
