<svg width="288" height="262" viewBox="0 0 288 262" fill="none" xmlns="http://www.w3.org/2000/svg">
<g opacity="0.3">
<path d="M204.135 166.085L73.0709 95.8978L63.491 113.787L194.555 183.974L199.301 196.274L212.755 193.72L254.437 216.042L264.017 198.153L222.335 175.831L216.482 164.19L204.135 166.085Z" fill="#F47E3E"/>
<rect width="50.2906" height="13.2344" transform="matrix(-0.472087 0.881552 0.881552 0.472087 247.3 201.336)" fill="#F47E3E"/>
<rect width="31.7625" height="13.2344" transform="matrix(-0.472087 0.881552 0.881552 0.472087 223.966 188.84)" fill="#F47E3E"/>
<path fill-rule="evenodd" clip-rule="evenodd" d="M79.2986 111.368C63.4261 141.007 26.5313 152.168 -3.10825 136.295C-32.7478 120.423 -43.9082 83.5278 -28.0356 53.8883C-12.1631 24.2487 24.7317 13.0884 54.3713 28.9609C84.0108 44.8334 95.1712 81.7282 79.2986 111.368ZM65.782 104.129C77.6568 81.9548 69.3073 54.3524 47.1328 42.4776C24.9584 30.6028 -2.64403 38.9523 -14.5189 61.1267C-26.3937 83.3012 -18.0442 110.904 4.13025 122.778C26.3047 134.653 53.9071 126.304 65.782 104.129Z" fill="#F47E3E"/>
</g>
</svg>
