<svg width="379" height="569" viewBox="0 0 379 569" fill="none" xmlns="http://www.w3.org/2000/svg">
<path d="M156.594 167.536L124.271 146.299L113.128 163.259L145.451 184.496L149.076 197.17L162.705 195.832L294.154 282.196L305.297 265.237L173.848 178.872L169.06 166.753L156.594 167.536Z" fill="#F4B186"/>
<rect width="18.1972" height="13.2344" transform="matrix(-0.549105 0.835754 0.835754 0.549105 288.362 266.911)" fill="#F4B186"/>
<rect width="18.1972" height="13.2344" transform="matrix(-0.549105 0.835754 0.835754 0.549105 244.12 237.843)" fill="#F4B186"/>
<rect width="31.7625" height="13.2344" transform="matrix(-0.549105 0.835754 0.835754 0.549105 266.241 252.376)" fill="#F4B186"/>
<path fill-rule="evenodd" clip-rule="evenodd" d="M129.089 162.265L40.0973 180.685L21.6772 91.6937L110.669 73.2736L129.089 162.265ZM113.447 151.988L100.392 88.9147L37.3183 101.97L50.3738 165.044L113.447 151.988Z" fill="#F4B186"/>
<path d="M-0.146131 311.914L-3.10167 260.564L23.8419 259.013L26.7975 310.363L38.9826 322.969L28.3751 337.774L40.3947 546.606L13.4512 548.157L1.43154 339.325L-9.34015 325.75L-0.146131 311.914Z" fill="#F6AB52"/>
<rect x="26.644" y="529.768" width="35.2131" height="17.601" transform="rotate(-3.2941 26.644 529.768)" fill="#F6AB52"/>
<rect x="22.5986" y="459.48" width="24.2013" height="17.601" transform="rotate(-3.2941 22.5986 459.48)" fill="#F6AB52"/>
<rect x="24.6211" y="494.624" width="51.1724" height="17.601" transform="rotate(-3.2941 24.6211 494.624)" fill="#F6AB52"/>
<path fill-rule="evenodd" clip-rule="evenodd" d="M69.4137 243.432L92.4923 186.5L62.6887 126.59L2.26006 106.089L-62.1197 133.773L-78.1506 196.321L-55.3947 250.615L12.0816 276.732L69.4137 243.432ZM55.9815 232.205L74.0795 187.559L50.7079 140.579L3.32047 124.502L-47.1653 146.212L-59.7366 195.261L-41.8917 237.838L11.0224 258.319L55.9815 232.205Z" fill="#F6AB52"/>
<rect x="50.6772" y="165.215" width="67.1768" height="13.3766" transform="rotate(-12.2144 50.6772 165.215)" fill="#F4B186"/>
</svg>
