<svg width="308" height="254" viewBox="0 0 308 254" fill="none" xmlns="http://www.w3.org/2000/svg">
<path d="M175.152 63.54C175.152 98.4905 146.797 126.817 111.812 126.817C76.8259 126.817 48.4711 98.4905 48.4711 63.54C48.4711 28.5894 76.8259 0.263184 111.812 0.263184C146.797 0.263184 175.152 28.5894 175.152 63.54Z" fill="#F47E3E"/>
<path d="M159.861 143.031C159.713 144.218 159.364 145.356 159.317 146.591C156.15 229.642 175.152 243.08 208.406 251.393C205.486 252.629 202.27 253.37 198.905 253.37H24.7185C11.605 253.37 0.96582 242.742 0.96582 229.642V209.077C0.96582 172.396 30.7556 142.636 67.4732 142.636H75.7372C86.7723 147.678 98.9455 150.546 111.812 150.546C124.678 150.546 136.9 147.678 147.886 142.636H156.15C157.436 142.636 158.624 142.982 159.861 143.031Z" fill="#F47E3E"/>
<path fill-rule="evenodd" clip-rule="evenodd" d="M217.263 120.264C206.566 121.283 190.541 113.707 190.541 113.707V132.735H176.217V141.394H190.541V146.595H176.216V155.255H190.541V160.456H176.216V169.115H190.541V174.316H176.216V182.976H190.541V188.177H176.216V196.836H190.541V202.037H176.216V210.697H190.541V223.167C190.541 223.167 221.688 249.42 242.892 249.228C263.419 249.041 293.444 223.167 293.444 223.167V210.697H307.769V202.037H293.444V196.836H307.769V188.177H293.444V182.976H307.769V174.316H293.444V169.115H307.769V160.456H293.444V155.255H307.769V146.595H293.444V141.394H307.769V132.735H293.444V113.707C293.444 113.707 276.091 121.649 264.637 120.264C254.67 119.06 241.144 109.824 241.144 109.824C241.144 109.824 227.396 119.3 217.263 120.264Z" fill="#F47E3E"/>
<path d="M198.998 124.524C198.998 124.524 212.389 130.855 221.328 130.004C229.795 129.198 241.284 121.28 241.284 121.28C241.284 121.28 252.587 128.998 260.916 130.004C270.487 131.161 284.988 124.524 284.988 124.524V215.995C284.988 215.995 259.898 237.616 242.744 237.772C225.025 237.933 198.998 215.995 198.998 215.995V124.524Z" fill="#FBFCFF"/>
<path d="M257 172.309C257 178.859 252.83 184.412 247.061 186.335V213.55H228.41V205.82H238.141V200.125H234.289V193.616H238.141V186.335C232.371 184.412 228.2 178.86 228.2 172.309C228.2 170.162 228.649 168.121 229.455 166.281L226.781 159.038L233.091 161.235C235.628 158.949 238.956 157.563 242.6 157.563C250.553 157.563 257 164.165 257 172.309Z" fill="url(#paint0_linear)"/>
<ellipse rx="1.33512" ry="1.33403" transform="matrix(0.592772 -0.80502 0.803527 0.595741 230.141 189.775)" fill="url(#paint1_linear)"/>
<ellipse rx="1.33512" ry="1.33403" transform="matrix(0.592772 -0.805021 0.803527 0.595742 254.243 154.15)" fill="url(#paint2_linear)"/>
<ellipse rx="1.33348" ry="1.33568" transform="matrix(0.873894 -0.485263 0.483388 0.875878 223.798 182.782)" fill="url(#paint3_linear)"/>
<ellipse rx="1.33347" ry="1.33567" transform="matrix(0.873894 -0.485263 0.483389 0.875878 261.149 163.124)" fill="url(#paint4_linear)"/>
<ellipse rx="1.33218" ry="1.33697" transform="matrix(0.999581 -0.0198241 0.0203887 1.00001 220.779 173.067)" fill="url(#paint5_linear)"/>
<ellipse rx="1.33218" ry="1.33697" transform="matrix(0.999581 -0.0198242 0.0203886 1.00001 263.206 173.067)" fill="url(#paint6_linear)"/>
<ellipse rx="1.33349" ry="1.33566" transform="matrix(0.897956 0.440439 -0.437734 0.898932 222.653 163.124)" fill="url(#paint7_linear)"/>
<ellipse rx="1.33349" ry="1.33566" transform="matrix(0.897956 0.44044 -0.437733 0.898932 260.558 182.783)" fill="url(#paint8_linear)"/>
<ellipse rx="1.33515" ry="1.334" transform="matrix(0.595455 0.803889 -0.801413 0.597436 230.416 154.15)" fill="url(#paint9_linear)"/>
<ellipse rx="1.33603" ry="1.33216" transform="matrix(0.000357253 1.00021 -0.999792 -0.000359982 242.416 150.324)" fill="url(#paint10_linear)"/>
<ellipse rx="1.33515" ry="1.334" transform="matrix(0.595454 0.803891 -0.801412 0.597438 253.964 189.775)" fill="url(#paint11_linear)"/>
<path d="M245.038 172.69C245.96 171.93 246.548 170.777 246.548 169.485C246.548 167.195 244.698 165.339 242.416 165.339C240.147 165.339 238.306 167.175 238.285 169.447H238.283V176.395V177.965V177.967C238.283 178.053 238.353 178.123 238.439 178.123H240.006C240.092 178.123 240.162 178.053 240.162 177.967V177.965V173.788C240.162 173.705 240.229 173.637 240.312 173.634H242.415V173.635C243.657 173.635 244.666 174.648 244.666 175.894H244.669V177.965V177.968C244.669 178.053 244.739 178.124 244.824 178.124H246.392C246.477 178.124 246.547 178.053 246.547 177.968V177.965V176.395V175.852H246.545C246.534 174.578 245.949 173.442 245.038 172.69ZM242.416 171.744C242.365 171.744 240.81 171.745 240.319 171.745C240.237 171.74 240.172 171.673 240.172 171.591L240.171 169.372C240.2 168.197 241.213 167.227 242.416 167.227C243.657 167.227 244.667 168.24 244.667 169.485C244.667 170.731 243.657 171.744 242.416 171.744Z" fill="white"/>
<defs>
<linearGradient id="paint0_linear" x1="241.891" y1="157.563" x2="241.891" y2="213.55" gradientUnits="userSpaceOnUse">
<stop stop-color="#F47E3E"/>
<stop offset="1" stop-color="#F26922"/>
</linearGradient>
<linearGradient id="paint1_linear" x1="1.33512" y1="0" x2="1.33512" y2="2.66806" gradientUnits="userSpaceOnUse">
<stop stop-color="#F47E3E"/>
<stop offset="1" stop-color="#F26922"/>
</linearGradient>
<linearGradient id="paint2_linear" x1="1.33512" y1="0" x2="1.33512" y2="2.66805" gradientUnits="userSpaceOnUse">
<stop stop-color="#F47E3E"/>
<stop offset="1" stop-color="#F26922"/>
</linearGradient>
<linearGradient id="paint3_linear" x1="1.33348" y1="0" x2="1.33348" y2="2.67135" gradientUnits="userSpaceOnUse">
<stop stop-color="#F47E3E"/>
<stop offset="1" stop-color="#F26922"/>
</linearGradient>
<linearGradient id="paint4_linear" x1="1.33347" y1="0" x2="1.33347" y2="2.67135" gradientUnits="userSpaceOnUse">
<stop stop-color="#F47E3E"/>
<stop offset="1" stop-color="#F26922"/>
</linearGradient>
<linearGradient id="paint5_linear" x1="1.33218" y1="0" x2="1.33218" y2="2.67393" gradientUnits="userSpaceOnUse">
<stop stop-color="#F47E3E"/>
<stop offset="1" stop-color="#F26922"/>
</linearGradient>
<linearGradient id="paint6_linear" x1="1.33218" y1="0" x2="1.33218" y2="2.67393" gradientUnits="userSpaceOnUse">
<stop stop-color="#F47E3E"/>
<stop offset="1" stop-color="#F26922"/>
</linearGradient>
<linearGradient id="paint7_linear" x1="1.33349" y1="0" x2="1.33349" y2="2.67132" gradientUnits="userSpaceOnUse">
<stop stop-color="#F47E3E"/>
<stop offset="1" stop-color="#F26922"/>
</linearGradient>
<linearGradient id="paint8_linear" x1="1.33349" y1="0" x2="1.33349" y2="2.67133" gradientUnits="userSpaceOnUse">
<stop stop-color="#F47E3E"/>
<stop offset="1" stop-color="#F26922"/>
</linearGradient>
<linearGradient id="paint9_linear" x1="1.33515" y1="0" x2="1.33515" y2="2.66799" gradientUnits="userSpaceOnUse">
<stop stop-color="#F47E3E"/>
<stop offset="1" stop-color="#F26922"/>
</linearGradient>
<linearGradient id="paint10_linear" x1="1.33603" y1="0" x2="1.33603" y2="2.66432" gradientUnits="userSpaceOnUse">
<stop stop-color="#F47E3E"/>
<stop offset="1" stop-color="#F26922"/>
</linearGradient>
<linearGradient id="paint11_linear" x1="1.33515" y1="0" x2="1.33515" y2="2.66799" gradientUnits="userSpaceOnUse">
<stop stop-color="#F47E3E"/>
<stop offset="1" stop-color="#F26922"/>
</linearGradient>
</defs>
</svg>
