<svg width="714" height="817" viewBox="0 0 714 817" fill="none" xmlns="http://www.w3.org/2000/svg">
<path d="M593.756 364.124L223.664 455.477C215.082 457.596 206.414 452.36 204.296 443.778C202.178 435.196 207.413 426.528 215.995 424.41L588.806 332.386C597.388 330.267 602.624 321.6 600.505 313.018C594.152 287.28 568.138 271.566 542.401 277.919L185.124 366.109C150.804 374.581 129.855 409.262 138.327 443.582L215.013 754.257C223.485 788.577 258.166 809.526 292.486 801.055L678.111 705.867C705.315 699.152 722.272 672.791 715.928 647.092L654.579 398.552C648.235 372.853 620.96 357.41 593.756 364.124ZM599.72 576.895C582.564 581.13 565.218 570.652 560.983 553.496C556.749 536.341 567.227 518.995 584.382 514.76C601.537 510.526 618.884 521.004 623.118 538.159C627.353 555.314 616.875 572.661 599.72 576.895Z" fill="#4F4F4F"/>
<path d="M300.573 397.288L311.792 360.276L292.372 354.389L281.153 391.401L270.022 398.465L275.164 411.158L229.538 561.677L248.958 567.564L294.584 417.045L304.852 409.023L300.573 397.288Z" fill="#F47E3E"/>
<rect width="18.1972" height="13.2344" transform="matrix(-0.956999 -0.29009 -0.29009 0.956999 242.559 551.796)" fill="#F47E3E"/>
<rect width="18.1972" height="13.2344" transform="matrix(-0.956999 -0.29009 -0.29009 0.956999 257.915 501.135)" fill="#F47E3E"/>
<rect width="31.7625" height="13.2344" transform="matrix(-0.956999 -0.29009 -0.29009 0.956999 250.237 526.465)" fill="#F47E3E"/>
<path fill-rule="evenodd" clip-rule="evenodd" d="M297.842 369.416L254.987 289.277L335.125 246.422L377.981 326.56L297.842 369.416ZM303.272 351.505L360.07 321.131L329.696 264.332L272.897 294.706L303.272 351.505Z" fill="#F47E3E"/>
<path d="M223.896 423.535L167.201 384.78L155.75 401.533L212.445 440.287C212.445 440.287 211.681 449.988 215.837 453.026C220.154 456.183 229.488 451.937 229.488 451.937L334.568 523.765L346.019 507.012L240.94 435.185C240.94 435.185 240.662 425.722 236.375 422.98C232.265 420.353 223.896 423.535 223.896 423.535Z" fill="#FFC7A8"/>
<rect width="50.2906" height="13.2344" transform="matrix(-0.564315 0.825559 0.825559 0.564315 329.057 508.376)" fill="#FFC7A8"/>
<rect width="50.2906" height="13.2344" transform="matrix(-0.564315 0.825559 0.825559 0.564315 285.354 478.503)" fill="#FFC7A8"/>
<rect width="31.7625" height="13.2344" transform="matrix(-0.564315 0.825559 0.825559 0.564315 307.205 493.439)" fill="#FFC7A8"/>
<path fill-rule="evenodd" clip-rule="evenodd" d="M148.003 411.86C124.285 423.556 108.488 431.346 87.1129 416.735C59.356 397.762 52.2355 359.879 71.2089 332.122C90.1823 304.365 128.065 297.245 155.822 316.218C177.072 330.744 175.825 345.335 173.522 372.268C172.817 380.514 172.013 389.918 171.726 400.831C162.872 404.528 155.085 408.368 148.003 411.86ZM160.131 371.07C161.636 352.398 162.677 339.477 147.169 328.877C126.403 314.682 98.0619 320.009 83.8671 340.775C69.6724 361.541 74.9995 389.882 95.7655 404.077C111.85 415.072 123.49 409.313 141.48 400.413C146.716 397.822 152.49 394.966 159.068 392.179C159.057 384.392 159.621 377.4 160.131 371.07Z" fill="#FFC7A8"/>
<path d="M319.721 421.243L335.649 435.997L343.39 427.639L327.462 412.885L326.629 405.532L318.959 405.01L254.182 345.01L246.44 353.367L311.218 413.367L312.746 420.521L319.721 421.243Z" fill="#F4B186"/>
<rect width="14.8637" height="7.42955" transform="matrix(0.679534 -0.733644 -0.733644 -0.679534 255.972 354.01)" fill="#F4B186"/>
<rect width="10.2156" height="7.42952" transform="matrix(0.679534 -0.733644 -0.733644 -0.679534 277.774 374.204)" fill="#F4B186"/>
<rect width="21.6003" height="7.42953" transform="matrix(0.679534 -0.733644 -0.733644 -0.679534 266.873 364.107)" fill="#F4B186"/>
<path fill-rule="evenodd" clip-rule="evenodd" d="M360.703 416.983L385.441 424.758L396.947 450.553L387.393 475.738L361.088 489.268L336.414 477.69L324.844 455.698L334.462 426.71L360.703 416.983ZM360.752 424.373L380.151 430.469L389.173 450.698L381.682 470.447L361.053 481.057L341.704 471.978L332.632 454.732L340.173 432L360.752 424.373Z" fill="#F4B186"/>
<path d="M563.88 305.899L587.01 279.234L573.019 267.097L549.888 293.762L537.983 295.505L537.541 307.996L443.475 416.438L457.466 428.575L551.533 320.133L563.076 317.272L563.88 305.899Z" fill="#F47E3E"/>
<rect width="24.1662" height="12.0793" transform="matrix(-0.755401 -0.655263 -0.655263 0.755401 458.005 413.052)" fill="#F47E3E"/>
<rect width="16.609" height="12.0793" transform="matrix(-0.755401 -0.655263 -0.655263 0.755401 489.665 376.553)" fill="#F47E3E"/>
<rect width="35.1189" height="12.0793" transform="matrix(-0.755401 -0.655263 -0.655263 0.755401 473.835 394.803)" fill="#F47E3E"/>
<path fill-rule="evenodd" clip-rule="evenodd" d="M554.786 239.528L566.109 198.918L607.416 178.855L648.847 193.044L672.227 235.074L654.72 275.782L619.596 295.747L571.982 281.656L554.786 239.528ZM566.791 239.058L575.67 207.212L608.063 191.479L640.552 202.606L658.886 235.565L645.158 267.488L617.614 283.144L580.276 272.094L566.791 239.058Z" fill="#F47E3E"/>
<path d="M222.079 388.41L231.632 440.497L247.023 437.674L237.47 385.587C237.47 385.587 243.197 380.74 242.605 376.814C241.99 372.736 234.599 369.929 234.599 369.929L216.893 273.391L201.502 276.214L219.208 372.752C219.208 372.752 214.176 378.041 215.002 381.877C215.794 385.554 222.079 388.41 222.079 388.41Z" fill="#F6AB52"/>
<rect width="38.7793" height="10.2051" transform="matrix(0.983594 -0.180395 -0.180395 -0.983594 211.457 284.763)" fill="#F6AB52"/>
<rect width="38.7793" height="10.2051" transform="matrix(0.983594 -0.180395 -0.180395 -0.983594 218.82 324.914)" fill="#F6AB52"/>
<rect width="24.4922" height="10.2051" transform="matrix(0.983594 -0.180395 -0.180395 -0.983594 215.139 304.839)" fill="#F6AB52"/>
<path fill-rule="evenodd" clip-rule="evenodd" d="M256.884 436.31C276.164 442.95 289.006 447.373 292.608 467.01C297.285 492.511 280.404 516.975 254.903 521.652C229.402 526.329 204.938 509.448 200.261 483.947C196.681 464.424 205.349 457.187 221.348 443.827C226.247 439.737 231.834 435.072 237.966 429.306C244.797 432.148 251.127 434.328 256.884 436.31ZM227.961 451.811C216.919 461.123 209.278 467.567 211.891 481.814C215.39 500.892 233.692 513.522 252.77 510.023C271.848 506.524 284.478 488.221 280.979 469.143C278.268 454.366 268.796 451.118 254.156 446.097C249.895 444.636 245.196 443.024 240.099 440.935C235.84 445.167 231.705 448.654 227.961 451.811Z" fill="#F6AB52"/>
<path d="M490.948 324.97L454.068 286.969L442.839 297.867L479.72 335.868C479.72 335.868 477.651 343.08 480.324 346.015C483.101 349.064 490.807 347.291 490.807 347.291L559.162 417.723L570.391 406.825L502.035 336.393C502.035 336.393 503.281 329.2 500.463 326.47C497.762 323.852 490.948 324.97 490.948 324.97Z" fill="#F6AB52"/>
<rect width="38.7793" height="10.2051" transform="matrix(-0.717604 0.696451 0.696451 0.717604 557.364 405.247)" fill="#F6AB52"/>
<rect width="38.7793" height="10.2051" transform="matrix(-0.717604 0.696451 0.696451 0.717604 528.935 375.955)" fill="#F6AB52"/>
<rect width="24.4922" height="10.2051" transform="matrix(-0.717604 0.696451 0.696451 0.717604 543.149 390.601)" fill="#F6AB52"/>
<path fill-rule="evenodd" clip-rule="evenodd" d="M435.397 304.479C415.677 309.669 402.543 313.127 388.638 298.8C370.582 280.195 371.026 250.476 389.631 232.419C408.236 214.363 437.955 214.808 456.012 233.412C469.835 247.656 466.649 258.489 460.768 278.486C458.967 284.609 456.914 291.591 455.019 299.793C447.76 301.224 441.285 302.929 435.397 304.479ZM450.834 275.521C454.842 261.644 457.615 252.041 447.527 241.647C434.019 227.728 411.784 227.395 397.865 240.904C383.947 254.412 383.614 276.647 397.123 290.565C407.586 301.347 417.266 298.785 432.228 294.826C436.583 293.674 441.385 292.403 446.784 291.308C447.974 285.423 449.475 280.227 450.834 275.521Z" fill="#F6AB52"/>
<path d="M475.576 306.72L391.596 384.762L402.248 396.225L486.228 318.183L496.386 317.798L497.889 307.346L524.597 282.526L513.945 271.064L487.237 295.884L477.282 297.241L475.576 306.72Z" fill="#FFC7A8"/>
<rect width="38.7793" height="10.2051" transform="matrix(0.680736 0.732529 0.732529 -0.680736 512.085 284.053)" fill="#FFC7A8"/>
<rect width="24.4922" height="10.2051" transform="matrix(0.680736 0.732529 0.732529 -0.680736 497.134 297.948)" fill="#FFC7A8"/>
<path fill-rule="evenodd" clip-rule="evenodd" d="M404.437 384.09C422.086 403.081 420.997 432.784 402.006 450.433C383.014 468.082 353.311 466.993 335.662 448.002C318.013 429.01 319.102 399.307 338.093 381.658C357.085 364.01 386.788 365.098 404.437 384.09ZM395.776 392.138C382.572 377.93 360.35 377.115 346.142 390.319C331.933 403.523 331.119 425.745 344.323 439.953C357.526 454.162 379.748 454.976 393.957 441.772C408.165 428.568 408.979 406.347 395.776 392.138Z" fill="#FFC7A8"/>
<path fill-rule="evenodd" clip-rule="evenodd" d="M595.116 364.124L225.024 455.477L139.687 443.581L216.373 754.257C224.845 788.577 259.526 809.526 293.846 801.055L679.471 705.867C706.675 699.152 723.632 672.79 717.288 647.092L655.939 398.552C649.595 372.853 622.319 357.409 595.116 364.124ZM576.363 626.297C614.671 626.297 645.726 595.242 645.726 556.933C645.726 518.625 614.671 487.57 576.363 487.57C538.054 487.57 506.999 518.625 506.999 556.933C506.999 595.242 538.054 626.297 576.363 626.297Z" fill="#4F4F4F"/>
</svg>
