<svg width="807" height="883" viewBox="0 0 807 883" fill="none" xmlns="http://www.w3.org/2000/svg">
<g opacity="0.05">
<path d="M166.622 390.485L44.063 335.295L15.0831 399.65L137.642 454.84L157.014 496.376L203.065 484.301L701.491 708.749L730.471 644.395L232.045 419.946L208.988 380.957L166.622 390.485Z" fill="#F47E3E"/>
<rect width="92.0883" height="45.9955" transform="matrix(-0.410603 0.911814 0.911814 0.410603 673.255 659.435)" fill="#F47E3E"/>
<rect width="63.2907" height="45.9955" transform="matrix(-0.410603 0.911814 0.911814 0.410603 505.498 583.893)" fill="#F47E3E"/>
<rect width="133.825" height="45.9955" transform="matrix(-0.410603 0.911814 0.911814 0.410603 589.376 621.663)" fill="#F47E3E"/>
<path fill-rule="evenodd" clip-rule="evenodd" d="M-65.5583 496.391L-226.084 499.569L-344.428 370.812L-337.954 204.077L-210.187 72.707L-42.5447 91.9883L68.6828 198.286L69.3247 387.481L-65.5583 496.391ZM-80.3975 453.098L-206.28 455.59L-299.084 354.62L-294.007 223.869L-193.814 120.85L-62.3505 135.97L24.8727 219.328L25.3761 367.692L-80.3975 453.098Z" fill="#F47E3E"/>
</g>
</svg>
