<svg width="636" height="606" viewBox="0 0 636 606" fill="none" xmlns="http://www.w3.org/2000/svg">
<g opacity="0.8">
<path d="M319.172 334.758V402.488H283.645V334.758L268.585 317.264L283.645 298.603V23.158H319.172V298.603L332.301 317.264L319.172 334.758Z" fill="#F6AB52"/>
<rect x="300.443" y="46.335" width="46.3532" height="23.1769" transform="rotate(-180 300.443 46.335)" fill="#F6AB52"/>
<rect x="300.442" y="139.042" width="31.8577" height="23.177" transform="rotate(-180 300.442 139.042)" fill="#F6AB52"/>
<rect x="300.443" y="92.6885" width="67.3615" height="23.1769" transform="rotate(-180 300.443 92.6885)" fill="#F6AB52"/>
<path fill-rule="evenodd" clip-rule="evenodd" d="M222.576 419.523L187.94 492.621L222.576 573.635L300.44 605.158L387.142 573.635L412.94 492.621L387.142 419.523L300.44 380.084L222.576 419.523ZM239.38 435.299L212.219 492.621L239.38 556.151L300.44 580.871L368.43 556.151L388.661 492.621L368.43 435.299L300.44 404.371L239.38 435.299Z" fill="#F6AB52"/>
</g>
<g filter="url(#filter0_d)">
<path fill-rule="evenodd" clip-rule="evenodd" d="M93.151 79.5788C91.5105 79.3465 89.9923 80.4881 89.7601 82.1286L80.2262 149.457C79.9939 151.097 81.1354 152.616 82.7759 152.848L297.473 183.25C299.113 183.482 300.632 182.34 300.864 180.7L310.398 113.372C310.63 111.731 309.488 110.213 307.848 109.981L93.151 79.5788ZM296.787 151.338C299.795 151.764 302.578 149.671 303.004 146.664C303.43 143.656 301.337 140.873 298.329 140.447C295.322 140.021 292.538 142.114 292.112 145.121C291.687 148.129 293.779 150.912 296.787 151.338Z" fill="#FBFCFF"/>
</g>
<path d="M234.198 136.925L233.35 142.913C232.262 143.136 231.164 143.169 230.055 143.012C228.706 142.821 227.531 142.334 226.529 141.552C225.549 140.753 224.828 139.718 224.367 138.446C223.925 137.177 223.815 135.756 224.038 134.185C224.27 132.54 224.814 131.166 225.668 130.061C226.543 128.941 227.589 128.146 228.805 127.678C230.043 127.193 231.317 127.044 232.63 127.229C233.48 127.35 234.164 127.513 234.681 127.718C235.202 127.905 235.812 128.189 236.512 128.571L237.429 127.089C236.94 126.68 236.219 126.314 235.265 125.991C234.333 125.651 233.525 125.433 232.841 125.336C231.03 125.08 229.325 125.272 227.726 125.913C226.129 126.535 224.799 127.544 223.734 128.939C222.672 130.316 222.005 131.965 221.733 133.887C221.473 135.717 221.627 137.426 222.194 139.015C222.764 140.585 223.7 141.896 225.003 142.947C226.324 144.002 227.927 144.662 229.812 144.929C230.736 145.06 231.716 145.067 232.75 144.949C233.783 144.85 234.62 144.658 235.264 144.372L236.536 135.588L230.465 134.728L230.039 136.336L234.198 136.925ZM242.38 139.045L245.041 139.422C247.148 139.72 248.947 139.466 250.438 138.659C251.931 137.834 252.825 136.443 253.121 134.486C253.401 132.508 252.978 130.969 251.852 129.867C250.729 128.746 249.105 128.035 246.979 127.734L241.85 127.008L239.181 145.86L241.371 146.17L242.38 139.045ZM246.744 129.596C248.278 129.813 249.399 130.283 250.108 131.005C250.819 131.709 251.071 132.791 250.864 134.251C250.633 135.614 250.027 136.565 249.046 137.105C248.067 137.626 246.848 137.783 245.388 137.576L242.643 137.188L243.778 129.176L246.744 129.596ZM253.797 146.996C254.249 147.4 254.992 147.807 256.028 148.217C257.063 148.628 257.987 148.891 258.8 149.006C260.168 149.199 261.381 149.154 262.439 148.871C263.516 148.589 264.365 148.116 264.988 147.45C265.628 146.786 266.017 145.974 266.153 145.013C266.278 144.126 266.201 143.342 265.92 142.661C265.642 141.962 265.178 141.312 264.528 140.711C263.896 140.112 263.036 139.463 261.948 138.762C260.738 137.987 259.827 137.359 259.217 136.876C258.607 136.394 258.149 135.896 257.845 135.381C257.562 134.851 257.468 134.253 257.562 133.588C257.687 132.701 258.146 132.059 258.937 131.662C259.747 131.267 260.762 131.156 261.982 131.329C262.795 131.444 263.467 131.624 263.998 131.869C264.548 132.117 265.142 132.446 265.781 132.857L266.769 131.272C266.17 130.848 265.46 130.464 264.642 130.122C263.841 129.783 262.998 129.55 262.11 129.424C260.909 129.254 259.816 129.316 258.832 129.611C257.869 129.889 257.087 130.353 256.486 131.003C255.903 131.656 255.549 132.426 255.423 133.313C255.245 134.57 255.492 135.689 256.164 136.67C256.854 137.654 258.006 138.637 259.62 139.62C260.748 140.308 261.626 140.903 262.252 141.407C262.899 141.894 263.372 142.414 263.671 142.965C263.973 143.498 264.078 144.088 263.986 144.735C263.858 145.64 263.356 146.323 262.48 146.784C261.625 147.228 260.477 147.348 259.036 147.144C258.222 147.029 257.406 146.8 256.588 146.458C255.79 146.1 255.116 145.732 254.567 145.352L253.797 146.996Z" fill="#4F4F4F"/>
<path d="M127.574 110.46L136.485 111.722L140.486 107.238C140.622 107.086 140.713 106.9 140.752 106.7C140.79 106.5 140.773 106.293 140.703 106.102C140.633 105.911 140.513 105.742 140.355 105.614C140.196 105.486 140.006 105.403 139.804 105.374L126.149 103.441C125.947 103.412 125.742 103.439 125.554 103.518C125.366 103.597 125.204 103.726 125.083 103.89C124.963 104.055 124.89 104.248 124.871 104.451C124.852 104.654 124.889 104.858 124.977 105.042L127.574 110.46ZM136.169 113.95L127.258 112.688C112.031 118.727 111.25 129.498 111.059 130.846C110.536 134.536 113.531 138.013 117.748 138.61L138.11 141.494C142.327 142.091 146.17 139.581 146.692 135.892C146.879 134.569 149.051 123.923 136.169 113.95ZM130.186 132.844L130.015 134.051C129.991 134.211 129.905 134.354 129.776 134.451C129.646 134.547 129.484 134.588 129.324 134.566L128.112 134.394C127.952 134.372 127.808 134.287 127.71 134.159C127.612 134.03 127.57 133.868 127.591 133.708L127.764 132.489C126.911 132.323 126.126 131.912 125.505 131.305C125.445 131.243 125.398 131.168 125.369 131.086C125.339 131.004 125.328 130.917 125.336 130.83C125.344 130.744 125.37 130.66 125.414 130.584C125.457 130.509 125.517 130.444 125.588 130.393L126.6 129.68C126.717 129.602 126.856 129.564 126.997 129.574C127.137 129.585 127.27 129.641 127.374 129.736C127.64 129.958 127.962 130.102 128.304 130.152L130.433 130.453C130.925 130.523 131.389 130.138 131.467 129.59C131.531 129.14 131.313 128.712 130.935 128.544L127.667 127.048C126.317 126.431 125.521 124.955 125.734 123.455C125.994 121.619 127.645 120.33 129.447 120.532L129.619 119.315C129.643 119.155 129.73 119.011 129.86 118.915C129.99 118.819 130.152 118.778 130.313 118.801L131.525 118.973C131.684 118.995 131.829 119.08 131.927 119.208C132.024 119.337 132.067 119.499 132.045 119.659L131.872 120.881C132.725 121.046 133.51 121.457 134.131 122.065C134.192 122.127 134.239 122.202 134.268 122.284C134.297 122.366 134.308 122.453 134.3 122.54C134.292 122.626 134.266 122.71 134.222 122.786C134.179 122.861 134.119 122.926 134.048 122.976L133.042 123.7C132.925 123.779 132.786 123.816 132.645 123.806C132.505 123.795 132.372 123.738 132.269 123.644C132.003 123.422 131.681 123.278 131.338 123.228L129.211 122.927C128.718 122.857 128.254 123.242 128.177 123.789C128.113 124.239 128.331 124.668 128.708 124.836L131.976 126.331C133.326 126.949 134.121 128.425 133.909 129.924C133.639 131.761 131.98 133.056 130.186 132.844Z" fill="#5FBA86"/>
<g filter="url(#filter1_d)">
<path fill-rule="evenodd" clip-rule="evenodd" d="M88.6314 294.351C87.0428 294.821 86.1362 296.491 86.6066 298.079L105.912 363.281C106.382 364.87 108.051 365.776 109.64 365.306L317.557 303.745C319.145 303.275 320.052 301.606 319.582 300.017L300.276 234.815C299.806 233.226 298.137 232.32 296.548 232.79L88.6314 294.351ZM303.673 275.005C306.585 274.142 308.247 271.082 307.385 268.169C306.523 265.257 303.462 263.595 300.55 264.457C297.637 265.32 295.975 268.38 296.838 271.292C297.7 274.205 300.76 275.867 303.673 275.005Z" fill="#FBFCFF"/>
</g>
<path d="M244.659 291.301L241.867 292.128L238.401 280.422L236.924 280.859L231.396 295.228L232.208 296.886L240.262 294.501L241.367 298.233L243.488 297.605L242.383 293.873L244.934 293.118L244.659 291.301ZM237.377 284.755L239.746 292.756L233.678 294.552L237.377 284.755ZM250.898 293.396L245.492 275.139L243.371 275.767L248.777 294.024L250.898 293.396ZM268.954 277.975C269.372 279.389 269.529 280.774 269.424 282.129C269.314 283.466 268.968 284.697 268.386 285.823L270.563 286.96L269.627 288.435L267.424 287.306C266.296 288.691 264.866 289.65 263.136 290.181C261.507 290.664 259.929 290.693 258.402 290.269C256.874 289.845 255.532 289.026 254.374 287.811C253.216 286.597 252.37 285.086 251.835 283.278C251.299 281.47 251.184 279.733 251.489 278.066C251.811 276.393 252.501 274.943 253.559 273.715C254.616 272.487 255.963 271.611 257.599 271.088C259.228 270.605 260.815 270.574 262.36 270.992C263.905 271.411 265.256 272.227 266.414 273.442C267.572 274.657 268.418 276.168 268.954 277.975ZM262.533 288.345C263.768 287.979 264.771 287.322 265.541 286.374L262.075 284.626L263.225 283.088L266.48 284.811C266.864 283.938 267.077 282.979 267.118 281.935C267.154 280.874 267.008 279.788 266.679 278.678C266.25 277.228 265.598 276.01 264.721 275.024C263.84 274.019 262.83 273.335 261.69 272.972C260.563 272.585 259.4 272.569 258.201 272.924C256.966 273.29 255.957 273.959 255.174 274.93C254.404 275.879 253.916 277.026 253.711 278.371C253.5 279.699 253.615 281.106 254.055 282.591C254.484 284.041 255.14 285.268 256.021 286.272C256.897 287.259 257.899 287.946 259.025 288.332C260.165 288.696 261.334 288.7 262.533 288.345Z" fill="#4F4F4F"/>
<path d="M132.774 308.136L141.404 305.581L143.18 299.84C143.24 299.645 143.246 299.438 143.198 299.24C143.15 299.042 143.049 298.861 142.906 298.717C142.763 298.572 142.583 298.468 142.386 298.417C142.188 298.367 141.981 298.37 141.786 298.428L128.561 302.344C128.366 302.402 128.19 302.511 128.052 302.661C127.915 302.811 127.82 302.996 127.779 303.195C127.738 303.395 127.752 303.602 127.819 303.794C127.886 303.986 128.004 304.157 128.161 304.287L132.774 308.136ZM142.043 307.738L133.413 310.294C122.072 322.114 125.837 332.236 126.223 333.541C127.281 337.114 131.451 339.033 135.534 337.824L155.253 331.986C159.337 330.776 161.789 326.897 160.731 323.324C160.352 322.043 157.904 311.458 142.043 307.738ZM144.452 327.411L144.798 328.58C144.842 328.735 144.824 328.901 144.746 329.043C144.668 329.184 144.538 329.289 144.383 329.335L143.209 329.682C143.055 329.728 142.888 329.712 142.746 329.635C142.603 329.559 142.497 329.429 142.45 329.275L142.101 328.094C141.257 328.298 140.371 328.25 139.555 327.956C139.473 327.925 139.4 327.876 139.339 327.814C139.279 327.751 139.232 327.677 139.203 327.594C139.174 327.512 139.164 327.425 139.172 327.338C139.18 327.252 139.207 327.168 139.251 327.093L139.876 326.023C139.949 325.903 140.06 325.811 140.192 325.762C140.324 325.713 140.468 325.71 140.602 325.752C140.936 325.844 141.289 325.841 141.621 325.744L143.683 325.134C144.159 324.992 144.422 324.449 144.264 323.919C144.136 323.483 143.759 323.184 143.346 323.188L139.752 323.186C138.268 323.186 136.93 322.174 136.5 320.721C135.974 318.943 136.94 317.085 138.663 316.519L138.314 315.341C138.269 315.185 138.288 315.018 138.367 314.877C138.445 314.735 138.576 314.63 138.731 314.585L139.905 314.238C140.06 314.192 140.226 314.208 140.369 314.285C140.511 314.361 140.617 314.491 140.664 314.645L141.014 315.828C141.858 315.624 142.744 315.672 143.561 315.967C143.642 315.998 143.715 316.047 143.776 316.109C143.837 316.172 143.883 316.246 143.912 316.329C143.941 316.411 143.951 316.498 143.943 316.585C143.935 316.671 143.908 316.755 143.864 316.83L143.249 317.907C143.176 318.027 143.065 318.119 142.933 318.168C142.801 318.217 142.657 318.22 142.523 318.177C142.189 318.086 141.836 318.089 141.504 318.185L139.443 318.795C138.967 318.937 138.704 319.48 138.861 320.01C138.99 320.445 139.366 320.745 139.78 320.741L143.373 320.743C144.858 320.744 146.194 321.756 146.624 323.208C147.142 324.991 146.171 326.858 144.452 327.411Z" fill="#5FBA86"/>
<g filter="url(#filter2_d)">
<path fill-rule="evenodd" clip-rule="evenodd" d="M522.384 296.462C523.906 295.807 525.67 296.51 526.325 298.032L553.193 360.499C553.848 362.021 553.145 363.786 551.623 364.44L352.428 450.118C350.906 450.772 349.141 450.069 348.487 448.547L321.619 386.08C320.964 384.558 321.667 382.794 323.189 382.139L522.384 296.462ZM344.716 419.145C341.925 420.345 338.69 419.056 337.49 416.265C336.29 413.475 337.579 410.24 340.369 409.04C343.16 407.839 346.395 409.129 347.595 411.919C348.795 414.709 347.506 417.944 344.716 419.145Z" fill="#FBFCFF"/>
</g>
<path d="M370.417 410.977C372.372 410.136 373.771 409.067 374.615 407.769C375.459 406.472 375.516 404.974 374.786 403.276C374.299 402.145 373.597 401.339 372.68 400.86C371.78 400.373 370.72 400.179 369.502 400.276C370.046 399.554 370.418 398.815 370.621 398.057C370.816 397.283 370.748 396.509 370.416 395.738C369.7 394.074 368.651 393.124 367.268 392.885C365.878 392.63 364.214 392.919 362.277 393.752L357.415 395.843L364.938 413.334L370.417 410.977ZM362.941 395.509C364.33 394.911 365.456 394.671 366.319 394.787C367.199 394.896 367.882 395.517 368.369 396.649C368.819 397.695 368.723 398.63 368.082 399.454C367.451 400.254 366.453 400.958 365.088 401.565L362.722 402.583L360.189 396.692L362.941 395.509ZM367.108 402.647C368.429 402.079 369.576 401.911 370.549 402.142C371.522 402.374 372.256 403.064 372.75 404.213C373.657 406.322 372.628 408.015 369.661 409.291L366.24 410.762L363.43 404.229L367.108 402.647ZM382.142 405.934L374.619 388.443L372.587 389.317L380.11 406.808L382.142 405.934ZM386.163 382.99C384.6 383.703 383.366 384.732 382.461 386.076C381.556 387.421 381.042 388.942 380.919 390.641C380.813 392.332 381.133 394.044 381.878 395.776C382.623 397.508 383.642 398.908 384.935 399.978C386.228 401.047 387.658 401.702 389.224 401.943C390.791 402.184 392.354 401.968 393.915 401.297C395.485 400.601 396.731 399.578 397.654 398.226C398.576 396.874 399.09 395.353 399.195 393.661C399.311 391.945 398.996 390.221 398.251 388.49C397.506 386.758 396.487 385.357 395.194 384.288C393.901 383.218 392.463 382.567 390.879 382.334C389.295 382.1 387.723 382.319 386.163 382.99ZM384.002 394.832C383.389 393.409 383.109 392.025 383.162 390.682C383.206 389.322 383.555 388.125 384.208 387.092C384.871 386.035 385.794 385.252 386.978 384.743C388.126 384.249 389.283 384.127 390.448 384.378C391.622 384.605 392.706 385.165 393.7 386.058C394.687 386.934 395.478 388.067 396.076 389.456C396.688 390.879 396.972 392.271 396.927 393.631C396.882 394.992 396.525 396.192 395.854 397.232C395.201 398.265 394.283 399.036 393.1 399.544C391.951 400.039 390.789 400.172 389.615 399.946C388.451 399.695 387.375 399.132 386.389 398.255C385.395 397.362 384.599 396.221 384.002 394.832ZM410.893 386.588L412.65 377.206L418.314 390.376L420.372 389.491L412.849 372L411.563 372.553L409.331 384.09L399.216 377.864L398.007 378.384L405.53 395.874L407.562 395L401.876 381.779L410.254 387.015L410.893 386.588ZM435.694 382.9L434.74 381.391L426.483 384.942L423.662 378.383L429.938 375.683L429.054 374.265L423.009 376.865L420.31 370.589L428.052 367.259L427.168 365.841L417.625 369.946L425.148 387.436L435.694 382.9ZM442.689 359.165L428.954 365.073L429.64 366.668L435.504 364.145L442.341 380.041L444.399 379.156L437.562 363.26L443.607 360.66L442.689 359.165ZM453.105 375.411L455.137 374.537L452.051 367.361L454.52 366.299C455.12 366.041 455.714 365.745 456.302 365.411L463.445 370.964L465.683 370.001L457.87 364.096C458.644 363.296 459.142 362.401 459.367 361.41C459.583 360.403 459.457 359.329 458.987 358.19C458.235 356.441 457.099 355.406 455.579 355.084C454.059 354.763 452.313 355.026 450.341 355.874L445.582 357.921L453.105 375.411ZM451.108 357.586C452.497 356.989 453.679 356.785 454.655 356.975C455.623 357.148 456.384 357.877 456.937 359.163C457.451 360.405 457.406 361.481 456.802 362.392C456.207 363.277 455.233 364.011 453.878 364.594L451.332 365.689L448.356 358.77L451.108 357.586ZM470.359 367.99L462.836 350.499L460.804 351.373L468.327 368.864L470.359 367.99ZM479.18 344.232C478.55 344.137 477.753 344.195 476.787 344.407C475.814 344.602 475.011 344.836 474.376 345.109C472.73 345.817 471.454 346.843 470.549 348.188C469.644 349.532 469.16 351.051 469.096 352.745C469.024 354.422 469.361 356.126 470.106 357.858C470.814 359.504 471.772 360.88 472.979 361.987C474.187 363.093 475.572 363.787 477.136 364.069C478.701 364.352 480.34 364.124 482.055 363.386C482.792 363.069 483.554 362.62 484.34 362.038C485.15 361.466 485.762 360.928 486.176 360.425L484.741 359.214C484.312 359.682 483.819 360.118 483.261 360.521C482.719 360.916 482.037 361.291 481.214 361.645C480.014 362.161 478.831 362.294 477.667 362.043C476.495 361.775 475.441 361.192 474.506 360.293C473.564 359.378 472.805 358.251 472.23 356.914C471.618 355.491 471.334 354.099 471.379 352.738C471.424 351.378 471.773 350.181 472.426 349.149C473.096 348.109 473.997 347.345 475.129 346.858C475.935 346.512 476.612 346.291 477.161 346.197C477.702 346.086 478.371 346.012 479.168 345.974L479.18 344.232Z" fill="#4F4F4F"/>
<path d="M508.858 330.31L517.125 326.754L518.211 320.844C518.248 320.643 518.23 320.437 518.159 320.246C518.087 320.055 517.966 319.888 517.806 319.761C517.647 319.634 517.456 319.552 517.255 319.525C517.053 319.498 516.847 319.526 516.66 319.607L503.991 325.056C503.804 325.136 503.642 325.266 503.523 325.431C503.404 325.597 503.332 325.791 503.314 325.994C503.297 326.197 503.335 326.401 503.425 326.584C503.514 326.767 503.651 326.922 503.822 327.033L508.858 330.31ZM518.014 328.821L509.747 332.377C499.881 345.454 504.814 355.061 505.352 356.311C506.825 359.735 511.191 361.148 515.104 359.465L533.995 351.339C537.908 349.656 539.885 345.515 538.413 342.091C537.885 340.864 534.204 330.642 518.014 328.821ZM522.729 348.072L523.211 349.192C523.273 349.34 523.275 349.508 523.214 349.657C523.154 349.807 523.037 349.927 522.888 349.99L521.764 350.474C521.616 350.538 521.448 350.541 521.298 350.482C521.148 350.423 521.027 350.307 520.962 350.159L520.475 349.028C519.661 349.33 518.777 349.386 517.931 349.191C517.846 349.17 517.768 349.13 517.7 349.075C517.633 349.021 517.578 348.952 517.539 348.874C517.501 348.795 517.48 348.71 517.478 348.623C517.476 348.536 517.492 348.45 517.527 348.37L518.021 347.234C518.08 347.106 518.18 347.002 518.305 346.937C518.43 346.873 518.573 346.853 518.711 346.879C519.053 346.93 519.403 346.886 519.722 346.751L521.697 345.901C522.153 345.705 522.35 345.134 522.131 344.626C521.952 344.209 521.543 343.956 521.133 344.009L517.564 344.431C516.09 344.606 514.642 343.759 514.044 342.368C513.311 340.664 514.051 338.704 515.695 337.94L515.21 336.811C515.147 336.662 515.146 336.494 515.207 336.344C515.268 336.194 515.386 336.074 515.535 336.011L516.659 335.527C516.807 335.463 516.975 335.46 517.125 335.519C517.275 335.579 517.396 335.695 517.461 335.842L517.948 336.976C518.762 336.674 519.647 336.617 520.493 336.813C520.578 336.834 520.656 336.874 520.724 336.929C520.792 336.984 520.846 337.052 520.885 337.131C520.923 337.209 520.944 337.294 520.946 337.381C520.948 337.468 520.931 337.555 520.897 337.634L520.413 338.776C520.355 338.904 520.255 339.008 520.13 339.072C520.005 339.137 519.862 339.157 519.724 339.13C519.381 339.079 519.031 339.124 518.713 339.259L516.739 340.108C516.282 340.304 516.086 340.875 516.304 341.382C516.484 341.8 516.893 342.052 517.302 342L520.871 341.578C522.345 341.403 523.792 342.251 524.391 343.642C525.115 345.351 524.371 347.32 522.729 348.072Z" fill="#5FBA86"/>
<defs>
<filter id="filter0_d" x="0.805664" y="0.158203" width="391.013" height="264.512" filterUnits="userSpaceOnUse" color-interpolation-filters="sRGB">
<feFlood flood-opacity="0" result="BackgroundImageFix"/>
<feColorMatrix in="SourceAlpha" type="matrix" values="0 0 0 0 0 0 0 0 0 0 0 0 0 0 0 0 0 0 127 0"/>
<feOffset dx="1" dy="1"/>
<feGaussianBlur stdDeviation="40"/>
<feColorMatrix type="matrix" values="0 0 0 0 0 0 0 0 0 0 0 0 0 0 0 0 0 0 0.15 0"/>
<feBlend mode="normal" in2="BackgroundImageFix" result="effect1_dropShadow"/>
<feBlend mode="normal" in="SourceGraphic" in2="effect1_dropShadow" result="shape"/>
</filter>
<filter id="filter1_d" x="6.75488" y="152.938" width="394.678" height="294.219" filterUnits="userSpaceOnUse" color-interpolation-filters="sRGB">
<feFlood flood-opacity="0" result="BackgroundImageFix"/>
<feColorMatrix in="SourceAlpha" type="matrix" values="0 0 0 0 0 0 0 0 0 0 0 0 0 0 0 0 0 0 127 0"/>
<feOffset dx="1" dy="1"/>
<feGaussianBlur stdDeviation="40"/>
<feColorMatrix type="matrix" values="0 0 0 0 0 0 0 0 0 0 0 0 0 0 0 0 0 0 0.15 0"/>
<feBlend mode="normal" in2="BackgroundImageFix" result="effect1_dropShadow"/>
<feBlend mode="normal" in="SourceGraphic" in2="effect1_dropShadow" result="shape"/>
</filter>
<filter id="filter2_d" x="241.434" y="216.276" width="393.945" height="316.027" filterUnits="userSpaceOnUse" color-interpolation-filters="sRGB">
<feFlood flood-opacity="0" result="BackgroundImageFix"/>
<feColorMatrix in="SourceAlpha" type="matrix" values="0 0 0 0 0 0 0 0 0 0 0 0 0 0 0 0 0 0 127 0"/>
<feOffset dx="1" dy="1"/>
<feGaussianBlur stdDeviation="40"/>
<feColorMatrix type="matrix" values="0 0 0 0 0 0 0 0 0 0 0 0 0 0 0 0 0 0 0.15 0"/>
<feBlend mode="normal" in2="BackgroundImageFix" result="effect1_dropShadow"/>
<feBlend mode="normal" in="SourceGraphic" in2="effect1_dropShadow" result="shape"/>
</filter>
</defs>
</svg>
