<svg width="230" height="602" viewBox="0 0 230 602" fill="none" xmlns="http://www.w3.org/2000/svg">
<path d="M96.9682 475.194L94.2749 201.722L131.601 201.355L134.294 474.826L150.298 493.045L134.668 512.8L135.525 599.771L98.1987 600.139L97.3422 513.167L83.3547 493.704L96.9682 475.194Z" fill="#FFC7A8"/>
<rect x="117.637" y="575.602" width="92.5086" height="24.3444" transform="rotate(-0.56425 117.637 575.602)" fill="#FFC7A8"/>
<rect x="117.157" y="526.916" width="58.4265" height="24.3444" transform="rotate(-0.56425 117.157 526.916)" fill="#FFC7A8"/>
<path fill-rule="evenodd" clip-rule="evenodd" d="M114.184 225.06C176.028 224.451 225.669 173.823 225.06 111.979C224.451 50.1345 173.822 0.493742 111.978 1.1028C50.1343 1.71187 0.4935 52.3401 1.10256 114.184C1.71162 176.028 52.3399 225.669 114.184 225.06ZM113.906 196.857C67.6384 197.313 29.7615 160.174 29.3058 113.907C28.8501 67.6386 65.9883 29.7617 112.256 29.306C158.524 28.8504 196.401 65.9885 196.857 112.256C197.312 158.524 160.174 196.401 113.906 196.857Z" fill="#FFC7A8"/>
</svg>
