<svg width="243" height="357" viewBox="0 0 243 357" fill="none" xmlns="http://www.w3.org/2000/svg">
<path d="M135.733 171.203L150.111 135.3L131.273 127.756L116.895 163.659L105.195 169.734L109.22 182.824L50.7483 328.834L69.5865 336.378L128.058 190.368L138.981 183.264L135.733 171.203Z" fill="#F4B186"/>
<rect width="26.4771" height="13.2344" transform="matrix(-0.928329 -0.371761 -0.371761 0.928329 64.5752 320.115)" fill="#F4B186"/>
<rect width="18.1972" height="13.2344" transform="matrix(-0.928329 -0.371761 -0.371761 0.928329 84.2554 270.972)" fill="#F4B186"/>
<rect width="38.4771" height="13.2344" transform="matrix(-0.928329 -0.371761 -0.371761 0.928329 74.4155 295.544)" fill="#F4B186"/>
<path fill-rule="evenodd" clip-rule="evenodd" d="M102.507 105.758L99.6579 59.6549L135.222 24.0651L183.202 23.8897L222.485 59.0106L218.967 107.434L189.77 140.704L135.423 143.199L102.507 105.758ZM114.766 100.964L112.532 64.8103L140.421 36.9013L178.046 36.7637L208.851 64.3051L206.093 102.278L183.196 128.368L140.578 130.325L114.766 100.964Z" fill="#F4B186"/>
</svg>
