<svg width="353" height="274" viewBox="0 0 353 274" fill="none" xmlns="http://www.w3.org/2000/svg">
<path d="M171.369 121.862L137.571 103.063L127.707 120.797L161.505 139.596L166.053 151.97L179.546 149.632L316.997 226.086L326.861 208.352L189.41 131.898L183.744 120.164L171.369 121.862Z" fill="#F47E3E"/>
<rect width="18.1972" height="13.2344" transform="matrix(-0.486095 0.873906 0.873906 0.486095 310.095 211.268)" fill="#F47E3E"/>
<rect width="18.1972" height="13.2344" transform="matrix(-0.486095 0.873906 0.873906 0.486095 263.833 185.536)" fill="#F47E3E"/>
<rect width="31.7625" height="13.2344" transform="matrix(-0.486095 0.873906 0.873906 0.486095 286.964 198.402)" fill="#F47E3E"/>
<path fill-rule="evenodd" clip-rule="evenodd" d="M143.551 118.63L56.1569 143.551L31.2361 56.1573L118.63 31.2365L143.551 118.63ZM127.196 109.533L109.533 47.5917L47.5912 65.2546L65.2541 127.196L127.196 109.533Z" fill="#F47E3E"/>
</svg>
