<svg width="689" height="667" viewBox="0 0 689 667" fill="none" xmlns="http://www.w3.org/2000/svg">
<path d="M292.819 353.66L354.577 420.821L374.423 402.572L312.664 335.411C312.664 335.411 316.561 323.085 312.093 317.906C307.453 312.525 294.099 315.221 294.099 315.221L179.634 190.744L159.789 208.993L274.253 333.47C274.253 333.47 271.775 345.801 276.501 350.635C281.032 355.268 292.819 353.66 292.819 353.66Z" fill="#F47E3E"/>
<rect width="66.8149" height="17.5829" transform="matrix(0.736093 -0.676881 -0.676881 -0.736093 182.153 212.315)" fill="#F47E3E"/>
<rect width="66.8149" height="17.5829" transform="matrix(0.736093 -0.676881 -0.676881 -0.736093 229.759 264.085)" fill="#F47E3E"/>
<rect width="42.1989" height="17.5829" transform="matrix(0.736093 -0.676881 -0.676881 -0.736093 205.956 238.2)" fill="#F47E3E"/>
<path fill-rule="evenodd" clip-rule="evenodd" d="M387.546 391.528C421.751 383.503 444.534 378.158 467.818 403.478C498.053 436.359 495.909 487.525 463.028 517.761C430.147 547.997 378.981 545.853 348.745 512.972C325.597 487.799 331.587 469.288 342.644 435.12C346.029 424.658 349.89 412.728 353.534 398.689C366.102 396.56 377.333 393.925 387.546 391.528ZM359.617 440.686C352.07 464.401 346.847 480.813 363.74 499.183C386.361 523.783 424.64 525.387 449.24 502.766C473.839 480.146 475.443 441.866 452.823 417.267C435.301 398.213 418.51 402.176 392.556 408.301C385.003 410.083 376.673 412.049 367.323 413.684C365.001 423.765 362.175 432.645 359.617 440.686Z" fill="#F47E3E"/>
<path d="M466.59 130.08L326.336 269.167L345.32 288.311L485.574 149.223L503.045 147.993L505.049 129.91L549.654 85.6762L530.67 66.5329L486.065 110.767L468.998 113.66L466.59 130.08Z" fill="#FFC7A8"/>
<rect width="66.8149" height="17.5829" transform="matrix(0.704147 0.710054 0.710054 -0.704147 528.193 89.0054)" fill="#FFC7A8"/>
<rect width="42.1989" height="17.5829" transform="matrix(0.704147 0.710054 0.710054 -0.704147 503.224 113.767)" fill="#FFC7A8"/>
<path fill-rule="evenodd" clip-rule="evenodd" d="M348.412 267.291C379.866 299.009 379.652 350.219 347.934 381.673C316.217 413.127 265.006 412.913 233.552 381.195C202.098 349.478 202.312 298.267 234.03 266.813C265.748 235.359 316.958 235.573 348.412 267.291ZM333.948 281.635C310.416 257.906 272.104 257.746 248.374 281.278C224.645 304.81 224.485 343.122 248.017 366.852C271.549 390.581 309.861 390.741 333.591 367.209C357.32 343.677 357.48 305.365 333.948 281.635Z" fill="#FFC7A8"/>
</svg>
