<svg width="1587" height="2166" viewBox="0 0 1587 2166" fill="none" xmlns="http://www.w3.org/2000/svg">
<path opacity="0.8" d="M661 383C952.2 351 1015.17 94.5 1079.5 0.5L1100 26C1053.67 26 1094.54 179.756 993 367C908.557 522.709 717.131 551.258 699 793C675 1113 1069 2163 1929 1751C2210.77 1616.01 2610.04 1598.98 2061 1843C1773 1971 1638.33 2305.67 1857 2339L1.00021 2299C47.6669 2165.67 60.2 2383.8 121 2131C197 1815 21.0002 1663 1.00021 1243C-18.9998 823 297 423 661 383Z" fill="url(#paint0_linear)"/>
<g opacity="0.5">
<path d="M896.826 477.551L892.73 475.104L894.026 472.935L898.122 475.383L899.729 475.095L900.309 476.689L916.967 486.64L915.671 488.809L899.013 478.858L897.406 478.985L896.826 477.551Z" fill="#F6AB52"/>
<rect x="914.952" y="486.828" width="3.29623" height="1.63275" transform="rotate(-59.1456 914.952 486.828)" fill="#F6AB52"/>
<rect x="909.346" y="483.479" width="2.26544" height="1.63272" transform="rotate(-59.1456 909.346 483.479)" fill="#F6AB52"/>
<rect x="912.149" y="485.154" width="4.79015" height="1.63275" transform="rotate(-59.1456 912.149 485.154)" fill="#F6AB52"/>
<path fill-rule="evenodd" clip-rule="evenodd" d="M895.223 468.592L892.066 463.837L885.903 463.024L881.157 466.639L879.901 473.071L883.86 477.572L889.222 478.638L894.769 474.771L895.223 468.592ZM893.656 469.048L891.18 465.319L886.348 464.682L882.626 467.516L881.641 472.56L884.745 476.09L888.95 476.926L893.3 473.893L893.656 469.048Z" fill="#F6AB52"/>
</g>
<g opacity="0.5">
<path d="M1443.23 1835.45L1448.85 1845.17L1451.72 1843.51L1446.11 1833.79C1446.11 1833.79 1446.9 1832.41 1446.51 1831.67C1446.09 1830.9 1444.42 1830.87 1444.42 1830.87L1434.02 1812.85L1431.14 1814.51L1441.55 1832.52C1441.55 1832.52 1440.92 1833.94 1441.35 1834.64C1441.77 1835.32 1443.23 1835.45 1443.23 1835.45Z" fill="#F47E3E"/>
<rect width="8.21986" height="2.16311" transform="matrix(0.866025 -0.500001 -0.499999 -0.866026 1433.74 1815.51)" fill="#F47E3E"/>
<rect width="8.21985" height="2.16312" transform="matrix(0.866026 -0.499999 -0.500001 -0.866025 1438.07 1823)" fill="#F47E3E"/>
<rect width="5.19149" height="2.16312" transform="matrix(0.866025 -0.5 -0.5 -0.866026 1435.9 1819.25)" fill="#F47E3E"/>
<path fill-rule="evenodd" clip-rule="evenodd" d="M1453.59 1842.53C1457.91 1842.49 1460.79 1842.46 1462.91 1846.12C1465.65 1850.88 1464.02 1856.97 1459.26 1859.72C1454.5 1862.46 1448.42 1860.83 1445.67 1856.07C1443.57 1852.43 1444.78 1850.37 1447.03 1846.56C1447.72 1845.4 1448.5 1844.07 1449.31 1842.48C1450.88 1842.56 1452.3 1842.55 1453.59 1842.53ZM1448.92 1847.69C1447.37 1850.33 1446.31 1852.16 1447.84 1854.82C1449.9 1858.38 1454.45 1859.6 1458.01 1857.55C1461.57 1855.49 1462.79 1850.94 1460.74 1847.38C1459.14 1844.62 1457.02 1844.64 1453.74 1844.68C1452.79 1844.69 1451.73 1844.71 1450.57 1844.65C1450.02 1845.8 1449.44 1846.79 1448.92 1847.69Z" fill="#F47E3E"/>
</g>
<g opacity="0.5">
<path d="M820.347 1237.86L822.28 1230.3L826.247 1231.31L824.315 1238.87L825.497 1241.26L823.283 1242.91L815.425 1273.66L811.458 1272.64L819.316 1241.9L818.382 1239.44L820.347 1237.86Z" fill="#F4B186"/>
<rect x="814.211" y="1270.59" width="3.67177" height="2.67036" transform="rotate(14.3352 814.211 1270.59)" fill="#F4B186"/>
<rect x="816.855" y="1260.24" width="3.67177" height="2.67036" transform="rotate(14.3352 816.855 1260.24)" fill="#F4B186"/>
<rect x="815.533" y="1265.42" width="6.40892" height="2.67039" transform="rotate(14.3352 815.533 1265.42)" fill="#F4B186"/>
<path fill-rule="evenodd" clip-rule="evenodd" d="M823.732 1233.34L839.504 1223.98L830.152 1208.21L814.379 1217.56L823.732 1233.34ZM824.667 1229.68L818.038 1218.5L829.217 1211.87L835.846 1223.05L824.667 1229.68Z" fill="#F4B186"/>
</g>
<g opacity="0.5">
<path d="M163.653 1927.41L158.502 1921.1L155.199 1923.79L160.351 1930.1L160.282 1932.88L163.101 1933.47L184.052 1959.14L187.354 1956.44L166.403 1930.78L166.204 1928.04L163.653 1927.41Z" fill="#F6AB52"/>
<rect width="5.56238" height="2.78761" transform="matrix(-0.774641 0.632401 0.632401 0.774641 183.851 1955.7)" fill="#F6AB52"/>
<rect width="3.82293" height="2.78759" transform="matrix(-0.774641 0.632401 0.632401 0.774641 176.799 1947.06)" fill="#F6AB52"/>
<rect width="8.08338" height="2.78761" transform="matrix(-0.774641 0.632401 0.632401 0.774641 180.325 1951.38)" fill="#F6AB52"/>
<path fill-rule="evenodd" clip-rule="evenodd" d="M148.227 1926.84L139.448 1922.66L136.505 1912.48L141.345 1903.64L151.803 1899.99L160.363 1905.58L163.525 1914.35L158.465 1924.61L148.227 1926.84ZM148.589 1924.1L141.704 1920.82L139.397 1912.84L143.193 1905.9L151.393 1903.04L158.106 1907.43L160.585 1914.3L156.618 1922.34L148.589 1924.1Z" fill="#F6AB52"/>
</g>
<g opacity="0.5">
<path d="M37.9154 909.835L53.6084 879.149L49.42 877.007L33.727 907.693L30.8971 908.847L31.5479 911.954L26.5571 921.713L30.7454 923.855L35.7363 914.096L38.4088 912.688L37.9154 909.835Z" fill="#F47E3E"/>
<rect width="11.6584" height="3.068" transform="matrix(-0.890328 -0.455319 -0.455319 0.890328 29.9346 919.994)" fill="#F47E3E"/>
<rect width="7.36321" height="3.06802" transform="matrix(-0.890328 -0.455319 -0.455319 0.890328 32.728 914.531)" fill="#F47E3E"/>
<path fill-rule="evenodd" clip-rule="evenodd" d="M50.0503 880.66C43.1108 877.111 40.3622 868.609 43.9111 861.669C47.46 854.73 55.9625 851.981 62.9019 855.53C69.8414 859.079 72.59 867.581 69.0411 874.521C65.4923 881.46 56.9898 884.209 50.0503 880.66ZM51.6689 877.495C56.8606 880.15 63.2216 878.094 65.8767 872.902C68.5317 867.711 66.4754 861.35 61.2837 858.694C56.092 856.039 49.731 858.096 47.0759 863.287C44.4209 868.479 46.4772 874.84 51.6689 877.495Z" fill="#F47E3E"/>
</g>
<g opacity="0.5">
<path d="M933.639 240.231L940.42 238.682L939.607 235.124L932.827 236.673L930.731 235.565L929.207 237.5L901.632 243.798L902.445 247.356L930.02 241.057L932.188 241.945L933.639 240.231Z" fill="#F4B186"/>
<rect width="3.27255" height="2.38002" transform="matrix(-0.222689 -0.97489 -0.97489 0.222689 904.336 244.951)" fill="#F4B186"/>
<rect width="3.27255" height="2.38002" transform="matrix(-0.222689 -0.97489 -0.97489 0.222689 913.618 242.831)" fill="#F4B186"/>
<rect width="5.71209" height="2.38005" transform="matrix(-0.222689 -0.97489 -0.97489 0.222689 908.977 243.891)" fill="#F4B186"/>
<path fill-rule="evenodd" clip-rule="evenodd" d="M937.749 237.318L946.441 223.479L960.281 232.172L951.588 246.011L937.749 237.318ZM941.03 236.569L950.839 242.73L957 232.921L947.191 226.76L941.03 236.569Z" fill="#F4B186"/>
</g>
<rect x="771.533" y="1233.56" width="36.4987" height="47.3446" rx="6" transform="rotate(-36.2811 771.533 1233.56)" fill="#FBFCFF"/>
<path d="M798.081 1212.85L773.766 1230.7C772.021 1231.98 771.649 1234.35 772.922 1236.09L797.151 1269.09C798.423 1270.83 800.795 1271.18 802.541 1269.9L826.856 1252.05C828.601 1250.77 828.973 1248.4 827.7 1246.67L803.471 1213.66C802.198 1211.93 799.827 1211.57 798.081 1212.85ZM786.442 1223.4L787.315 1222.76C787.689 1222.48 788.29 1222.52 788.608 1222.95C788.926 1223.38 788.842 1223.92 788.406 1224.24L787.533 1224.88C787.159 1225.16 786.557 1225.12 786.239 1224.69C785.921 1224.26 786.068 1223.67 786.442 1223.4ZM815.454 1257.56L811.215 1260.67C810.841 1260.95 810.239 1260.91 809.921 1260.48C809.648 1260.11 809.687 1259.51 810.124 1259.19L814.363 1256.08C814.737 1255.8 815.339 1255.84 815.657 1256.27C815.913 1256.75 815.828 1257.29 815.454 1257.56ZM820.924 1244.49C822.197 1246.23 821.825 1248.6 820.08 1249.88L802.498 1262.78C800.752 1264.07 798.381 1263.71 797.108 1261.98L779.425 1237.89C778.152 1236.15 778.524 1233.78 780.269 1232.5L797.913 1219.55C799.659 1218.27 802.031 1218.62 803.303 1220.36L820.986 1244.45L820.924 1244.49Z" fill="#F1F2F6"/>
<rect x="925.675" y="234.214" width="28.1052" height="43.1318" transform="rotate(49.4947 925.675 234.214)" fill="#FBFCFF"/>
<path d="M941.599 284.583C940.315 284.715 939.021 285.01 937.746 284.945C934.444 284.778 931.15 284.45 927.849 284.198C927.487 284.169 927.12 284.213 926.755 284.222C926.725 284.111 926.695 284 926.667 283.891C927.137 283.489 927.605 283.089 928.075 282.688C930.075 280.979 932.085 279.28 934.075 277.56C937.113 274.931 937.429 271.262 934.842 268.195C931.739 264.517 928.596 260.873 925.47 257.214C924.074 255.579 924.271 253.9 926.173 252.83C927.04 252.342 928.154 251.993 929.132 252.044C933.261 252.259 937.381 252.626 941.502 252.981C944.017 253.198 945.784 255.201 945.6 257.729C945.039 265.452 944.434 273.173 943.785 280.89C943.713 281.747 943.25 282.573 942.969 283.412C942.513 283.802 942.057 284.191 941.599 284.583ZM936.981 263.914C938.109 264.067 939.187 264.276 940.276 264.346C941.328 264.414 942.031 263.74 942.141 262.675C942.24 261.742 942.293 260.804 942.366 259.869C942.624 256.53 942.406 256.286 939.069 256.14C937.787 256.084 937.175 256.583 937.052 257.857C936.912 259.315 936.791 260.774 936.718 262.237C936.694 262.699 936.857 263.171 936.981 263.914Z" fill="#F1F2F6"/>
<path d="M945.372 250.798C945.609 251.402 945.845 252.005 946.082 252.609C944.121 250.733 941.689 250.689 939.303 250.587C938.367 250.547 937.737 250.222 937.126 249.497C933.549 245.236 929.915 241.02 926.301 236.79C926.039 236.483 925.776 236.176 925.476 235.824C915.208 244.596 905.02 253.299 894.776 262.05C900.519 268.773 906.239 275.47 911.982 282.192C912.396 281.899 912.752 281.645 913.153 281.361C913.632 281.922 914.084 282.451 914.526 282.969C912.184 286.151 908.378 286.319 905.875 283.392C901.429 278.19 896.984 272.987 892.541 267.783C890.464 265.347 890.634 262.279 893.07 260.189C903.316 251.401 913.577 242.639 923.852 233.888C925.937 232.113 927.991 232.136 930.864 233.815C935.7 239.476 940.536 245.137 945.372 250.798ZM902.214 273.137C901.555 272.365 900.878 271.607 900.243 270.818C899.765 270.224 899.316 270.174 898.729 270.678C898.163 271.165 897.712 271.63 898.331 272.359C899.668 273.935 901.006 275.511 902.363 277.072C902.934 277.726 903.452 277.43 904.002 276.959C904.562 276.482 904.727 276.047 904.195 275.448C903.521 274.691 902.874 273.909 902.214 273.137Z" fill="#F1F2F6"/>
<path d="M909.882 274.618C907.441 271.76 904.991 268.907 902.558 266.041C900.562 263.687 900.772 261.286 903.13 259.265C906.127 256.696 909.124 254.13 912.13 251.571C914.254 249.763 916.78 249.902 918.598 252.013C923.626 257.854 928.634 263.713 933.614 269.595C935.355 271.65 935.174 274.119 933.155 275.892C930.077 278.595 926.971 281.266 923.819 283.884C921.591 285.734 919.168 285.468 917.284 283.28C914.806 280.4 912.348 277.505 909.882 274.618ZM929.366 277.194C929.286 277.003 929.269 276.882 929.2 276.801C923.13 269.682 917.049 262.567 910.986 255.442C910.528 254.902 910.203 255.087 909.78 255.454C907.818 257.148 905.823 258.805 903.877 260.518C902.428 261.794 902.325 263.535 903.553 265.014C904.488 266.141 905.453 267.245 906.405 268.36C910.359 272.989 914.312 277.62 918.269 282.245C919.457 283.632 921.125 284.105 922.353 283.14C924.762 281.24 927.042 279.179 929.366 277.194ZM913.618 252.463C919.88 259.793 926.142 267.123 932.406 274.457C933.552 273.19 933.571 271.75 932.435 270.409C929.862 267.373 927.268 264.354 924.684 261.33C922.319 258.561 919.963 255.785 917.586 253.027C916.421 251.677 914.87 251.465 913.618 252.463Z" fill="#F1F2F6"/>
<path d="M925.247 278.092C924.576 278.665 923.98 279.175 923.307 279.749C917.85 273.361 912.408 266.99 906.928 260.575C907.558 260.038 908.177 259.509 908.868 258.918C914.296 265.272 919.739 271.644 925.247 278.092Z" fill="#F1F2F6"/>
<rect x="45.9121" y="881.099" width="44.8039" height="52.7035" rx="4.5" transform="rotate(12.8352 45.9121 881.099)" fill="#F1F2F6" stroke="#F1F2F6"/>
<path d="M82.4093 906.278L46.0894 898.003C45.4877 897.866 45.1275 897.264 45.2597 896.684L47.3016 887.722C47.4387 887.12 48.0407 886.76 48.6209 886.892L84.9408 895.167C85.5426 895.305 85.9028 895.907 85.7705 896.487L83.7287 905.449C83.5965 906.029 83.0111 906.415 82.4093 906.278Z" fill="#FBFCFF"/>
<path d="M78.4906 900.655C79.2385 900.825 79.983 900.357 80.1534 899.609C80.3238 898.861 79.8556 898.117 79.1077 897.946C78.3597 897.776 77.6153 898.244 77.4449 898.992C77.2745 899.74 77.7426 900.484 78.4906 900.655Z" fill="#F1F2F6" stroke="#F1F2F6" stroke-miterlimit="10"/>
<path d="M48.0992 902.078L48.8828 898.638" stroke="#FBFCFF" stroke-width="2" stroke-miterlimit="10"/>
<path d="M78.982 909.114L79.7656 905.675" stroke="#FBFCFF" stroke-width="2" stroke-miterlimit="10"/>
<path d="M79.1686 920.499L42.8487 912.224C42.247 912.087 41.8868 911.485 42.019 910.904L44.0608 901.943C44.1979 901.341 44.8 900.981 45.3802 901.113L81.7001 909.388C82.3018 909.525 82.662 910.127 82.5298 910.708L80.488 919.669C80.3558 920.25 79.7703 920.636 79.1686 920.499Z" fill="#FBFCFF"/>
<path d="M75.1585 915.279C75.9065 915.45 76.6509 914.981 76.8213 914.234C76.9917 913.486 76.5236 912.741 75.7756 912.571C75.0277 912.4 74.2832 912.869 74.1128 913.616C73.9424 914.364 74.4106 915.109 75.1585 915.279Z" fill="#F1F2F6" stroke="#F1F2F6" stroke-miterlimit="10"/>
<path d="M44.859 916.3L45.6426 912.86" stroke="#FBFCFF" stroke-width="2" stroke-miterlimit="10"/>
<path d="M75.7413 923.336L76.5249 919.896" stroke="#FBFCFF" stroke-width="2" stroke-miterlimit="10"/>
<path d="M75.879 934.936L39.5592 926.66C38.9574 926.523 38.5972 925.921 38.7294 925.341L40.7713 916.379C40.9084 915.777 41.5104 915.417 42.0907 915.55L78.4105 923.825C79.0123 923.962 79.3725 924.564 79.2403 925.144L77.1984 934.106C77.0662 934.686 76.4808 935.073 75.879 934.936Z" fill="#FBFCFF"/>
<path d="M71.7826 930.098C72.5305 930.268 73.2749 929.8 73.4454 929.052C73.6158 928.304 73.1476 927.56 72.3997 927.389C71.6517 927.219 70.9073 927.687 70.7369 928.435C70.5664 929.183 71.0346 929.927 71.7826 930.098Z" fill="#F1F2F6" stroke="#F1F2F6" stroke-miterlimit="10"/>
<path d="M1423.66 1883.15L1401.16 1872.31C1399.38 1871.45 1398.63 1869.29 1399.49 1867.51L1420.86 1823.17C1421.72 1821.39 1423.88 1820.63 1425.66 1821.49L1448.15 1832.33C1449.94 1833.19 1450.69 1835.35 1449.83 1837.13L1428.46 1881.48C1427.6 1883.26 1425.44 1884.01 1423.66 1883.15Z" fill="#F7F8FC" stroke="#F1F2F6" stroke-width="2" stroke-miterlimit="10"/>
<path d="M1444.57 1832.3L1444.56 1832.31L1444.56 1832.32C1444.1 1833.43 1442.83 1833.84 1441.79 1833.33L1429.25 1827.29C1428.22 1826.79 1427.79 1825.58 1428.29 1824.55C1428.83 1823.43 1430.05 1823.02 1431.06 1823.51L1443.61 1829.56C1444.64 1830.05 1445.06 1831.27 1444.57 1832.3Z" fill="#F1F2F6" stroke="#F1F2F6" stroke-width="0.75"/>
<path d="M891.361 514.337L868.41 513.53C867.524 513.499 866.825 512.735 866.856 511.863L867.663 488.912C867.694 488.026 868.458 487.327 869.33 487.358L892.281 488.165C893.168 488.196 893.866 488.96 893.835 489.832L893.029 512.783C892.996 513.708 892.286 514.37 891.361 514.337Z" fill="#FBFCFF" stroke="#F1F2F6" stroke-width="6" stroke-linejoin="round"/>
<path d="M870.303 485.959L871.038 475.556C871.038 475.556 871.066 472.143 874.2 472.253C877.334 472.363 889.685 472.797 889.685 472.797C889.685 472.797 892.002 472.51 891.834 477.303C891.665 482.096 891.406 489.47 891.406 489.47" fill="#F1F2F6"/>
<path d="M890.472 516.016L889.737 526.418C889.737 526.418 889.709 529.832 886.575 529.722C883.441 529.612 871.09 529.178 871.09 529.178C871.09 529.178 868.773 529.465 868.941 524.672C869.11 519.879 869.372 512.413 869.372 512.413" fill="#F1F2F6"/>
<path d="M897.88 507.417L895.391 507.329C895.115 507.319 894.937 507.129 894.947 506.852L895.329 495.976C895.339 495.699 895.53 495.521 895.806 495.531L898.295 495.618C898.571 495.628 898.749 495.819 898.739 496.095L898.357 506.972C898.347 507.248 898.157 507.426 897.88 507.417Z" fill="#F1F2F6"/>
<path d="M157.36 1971.44L108.913 1959.08C105.932 1958.32 104.214 1955.28 104.947 1952.4L112.116 1924.29C112.877 1921.31 115.923 1919.59 118.798 1920.33L167.245 1932.68C170.226 1933.44 171.944 1936.49 171.211 1939.36L164.041 1967.47C163.308 1970.35 160.341 1972.2 157.36 1971.44Z" fill="#F1F2F6"/>
<path d="M137.545 1962.87L129.985 1960.94L127.107 1972.23L134.667 1974.16L137.545 1962.87Z" fill="#F1F2F6"/>
<path d="M141.821 1977.23L119.142 1971.44C118.503 1971.28 118.186 1970.75 118.349 1970.11L118.512 1969.47C118.675 1968.83 119.209 1968.51 119.848 1968.68L142.634 1974.49C143.273 1974.65 143.59 1975.18 143.427 1975.82L143.264 1976.46C142.995 1977.07 142.46 1977.39 141.821 1977.23Z" fill="#F1F2F6"/>
<rect x="115.372" y="1925.04" width="53.6426" height="29.0046" rx="5" transform="rotate(14.3077 115.372 1925.04)" fill="#FBFCFF"/>
<defs>
<linearGradient id="paint0_linear" x1="1129" y1="-169" x2="1489.13" y2="2161.43" gradientUnits="userSpaceOnUse">
<stop stop-color="#F1F2F6"/>
<stop offset="1" stop-color="#F1F2F6" stop-opacity="0"/>
</linearGradient>
</defs>
</svg>
