<svg width="468" height="433" viewBox="0 0 468 433" fill="none" xmlns="http://www.w3.org/2000/svg">
<rect x="41.6641" y="23" width="384" height="384" rx="10" fill="#4F4F4F"/>
<rect x="407.664" y="57" width="60" height="26" fill="#4F4F4F"/>
<rect x="407.664" y="115" width="60" height="26" fill="#4F4F4F"/>
<rect x="407.664" y="173" width="60" height="26" fill="#4F4F4F"/>
<rect x="407.664" y="231" width="60" height="26" fill="#4F4F4F"/>
<rect x="407.664" y="289" width="60" height="26" fill="#4F4F4F"/>
<rect x="407.664" y="347" width="60" height="26" fill="#4F4F4F"/>
<rect x="0.664062" y="57" width="60" height="26" fill="#4F4F4F"/>
<rect x="0.664062" y="115" width="60" height="26" fill="#4F4F4F"/>
<rect x="0.664062" y="173" width="60" height="26" fill="#4F4F4F"/>
<rect x="0.664062" y="231" width="60" height="26" fill="#4F4F4F"/>
<rect x="0.664062" y="289" width="60" height="26" fill="#4F4F4F"/>
<rect x="0.664062" y="347" width="60" height="26" fill="#4F4F4F"/>
<path d="M150.705 26.2941L115.789 46.3481L113.052 41.5824L147.968 21.5284L149.154 18.1607L152.817 18.7437L163.921 12.3659L166.658 17.1316L155.554 23.5094L154.063 26.7079L150.705 26.2941Z" fill="#F47E3E"/>
<rect x="162.107" y="16.4045" width="13.6201" height="3.58425" transform="rotate(-119.871 162.107 16.4045)" fill="#F47E3E"/>
<rect x="155.891" y="19.9746" width="8.60219" height="3.58425" transform="rotate(-119.871 155.891 19.9746)" fill="#F47E3E"/>
<path fill-rule="evenodd" clip-rule="evenodd" d="M117.351 42.1104C112.816 34.2143 102.738 31.4897 94.8421 36.0248C86.946 40.5599 84.2214 50.6374 88.7565 58.5335C93.2916 66.4296 103.369 69.1542 111.265 64.6191C119.161 60.084 121.886 50.0065 117.351 42.1104ZM113.75 44.1787C117.143 50.0861 115.104 57.6255 109.197 61.0184C103.29 64.4113 95.7503 62.3729 92.3574 56.4655C88.9645 50.5581 91.0029 43.0188 96.9103 39.6259C102.818 36.233 110.357 38.2714 113.75 44.1787Z" fill="#F47E3E"/>
<path d="M393.824 321.926L384.723 328.299L388.067 333.074L397.168 326.701L400.936 327.079L402.026 323.299L439.036 297.379L435.692 292.604L398.682 318.524L394.939 318.515L393.824 321.926Z" fill="#F4B186"/>
<rect width="5.22768" height="3.80193" transform="matrix(0.573644 0.819105 0.819105 -0.573644 434.341 297.302)" fill="#F4B186"/>
<rect width="5.22768" height="3.80194" transform="matrix(0.573644 0.819105 0.819105 -0.573644 421.884 306.026)" fill="#F4B186"/>
<rect width="9.12469" height="3.80196" transform="matrix(0.573644 0.819105 0.819105 -0.573644 428.113 301.665)" fill="#F4B186"/>
<path fill-rule="evenodd" clip-rule="evenodd" d="M389.496 328.708L384.965 354.419L359.254 349.888L363.785 324.177L389.496 328.708ZM385.092 331.793L366.87 328.581L363.658 346.804L381.881 350.016L385.092 331.793Z" fill="#F4B186"/>
<path d="M125.105 390.174L141.404 385.807L139.116 377.266L122.816 381.634L117.636 379.141L114.116 383.965L47.8294 401.726L50.1179 410.267L116.404 392.506L121.741 394.459L125.105 390.174Z" fill="#F6AB52"/>
<rect width="11.5368" height="5.77434" transform="matrix(-0.258819 -0.965926 -0.965926 0.258819 54.4893 404.27)" fill="#F6AB52"/>
<rect width="7.92904" height="5.77431" transform="matrix(-0.258819 -0.965926 -0.965926 0.258819 76.7993 398.292)" fill="#F6AB52"/>
<rect width="16.7655" height="5.77434" transform="matrix(-0.258819 -0.965926 -0.965926 0.258819 65.644 401.281)" fill="#F6AB52"/>
<path fill-rule="evenodd" clip-rule="evenodd" d="M139.281 361.486L154.641 348.446L176.368 351.549L188.97 368.235L186.969 391.112L169.135 402.538L149.882 401.049L134.806 382.749L139.281 361.486ZM144.16 364.509L156.205 354.283L173.243 356.716L183.125 369.801L181.556 387.741L167.571 396.701L152.473 395.533L140.65 381.182L144.16 364.509Z" fill="#F6AB52"/>
<path d="M52.6285 209.871L57.1932 192.952L52.1936 191.603L47.6289 208.523C47.6289 208.523 45.2278 209.155 44.8455 210.412C44.4484 211.718 46.2567 213.609 46.2567 213.609L37.7964 244.969L42.7961 246.317L51.2563 214.958C51.2563 214.958 53.5127 214.095 53.8123 212.831C54.0995 211.62 52.6285 209.871 52.6285 209.871Z" fill="#F47E3E"/>
<rect width="12.8335" height="3.37722" transform="matrix(-0.965482 -0.260469 -0.26047 0.965482 41.04 242.346)" fill="#F47E3E"/>
<rect width="12.8334" height="3.37723" transform="matrix(-0.965482 -0.26047 -0.260469 0.965482 44.5586 229.303)" fill="#F47E3E"/>
<rect width="8.10533" height="3.37722" transform="matrix(-0.965482 -0.260469 -0.26047 0.965482 42.7993 235.825)" fill="#F47E3E"/>
<path fill-rule="evenodd" clip-rule="evenodd" d="M49.0538 190.606C44.2401 185.876 41.0339 182.726 42.7548 176.347C44.9896 168.063 53.5165 163.16 61.8002 165.395C70.0839 167.629 74.9876 176.156 72.7528 184.44C71.0418 190.782 67.4218 191.709 60.7397 193.421C58.6937 193.946 56.3606 194.543 53.7073 195.393C52.0718 193.571 50.4911 192.018 49.0538 190.606ZM59.9014 190.095C64.5261 188.886 67.7265 188.049 68.9751 183.421C70.647 177.224 66.9785 170.844 60.7811 169.172C54.5838 167.5 48.2044 171.169 46.5325 177.366C45.2375 182.167 47.6044 184.486 51.2626 188.071C52.3273 189.114 53.5014 190.265 54.7265 191.615C56.6015 190.957 58.3333 190.504 59.9014 190.095Z" fill="#F47E3E"/>
<rect x="61.6641" y="43" width="344" height="344" rx="10" fill="#666666"/>
<circle cx="233.664" cy="205.5" r="57.5" fill="#4F4F4F"/>
<path d="M204.414 179.25L212.164 186.75" stroke="#3D3C3C" stroke-width="3" stroke-linecap="round"/>
<path d="M209.664 174.5L215.914 182.25" stroke="#3D3C3C" stroke-width="3" stroke-linecap="round"/>
<path d="M215.289 170.25L220.164 178.938" stroke="#3D3C3C" stroke-width="3" stroke-linecap="round"/>
<path d="M221.164 168L224.664 177.25" stroke="#3D3C3C" stroke-width="3" stroke-linecap="round"/>
<path d="M259.977 173.5L252.477 181.25" stroke="#3D3C3C" stroke-width="3" stroke-linecap="round"/>
<path d="M264.727 178.75L256.977 185" stroke="#3D3C3C" stroke-width="3" stroke-linecap="round"/>
<path d="M268.977 184.375L260.289 189.25" stroke="#3D3C3C" stroke-width="3" stroke-linecap="round"/>
<path d="M271.227 190.25L261.977 193.75" stroke="#3D3C3C" stroke-width="3" stroke-linecap="round"/>
<path d="M263.664 230.25L255.914 222.75" stroke="#3D3C3C" stroke-width="3" stroke-linecap="round"/>
<path d="M258.414 235L252.164 227.25" stroke="#3D3C3C" stroke-width="3" stroke-linecap="round"/>
<path d="M252.789 239.25L247.914 230.563" stroke="#3D3C3C" stroke-width="3" stroke-linecap="round"/>
<path d="M246.914 241.5L243.414 232.25" stroke="#3D3C3C" stroke-width="3" stroke-linecap="round"/>
<path d="M208.102 236L215.602 228.25" stroke="#3D3C3C" stroke-width="3" stroke-linecap="round"/>
<path d="M203.352 230.75L211.102 224.5" stroke="#3D3C3C" stroke-width="3" stroke-linecap="round"/>
<path d="M199.102 225.125L207.789 220.25" stroke="#3D3C3C" stroke-width="3" stroke-linecap="round"/>
<path d="M196.852 219.25L206.102 215.75" stroke="#3D3C3C" stroke-width="3" stroke-linecap="round"/>
<rect x="243.017" y="124.811" width="7.5" height="159.879" transform="rotate(9.44527 243.017 124.811)" fill="#C4C4C4"/>
<rect x="313" y="214.255" width="7.5" height="159.879" transform="rotate(99.8453 313 214.255)" fill="#C4C4C4"/>
<circle cx="233.664" cy="205.5" r="32" fill="#3D3C3C"/>
<circle cx="233.664" cy="205.5" r="18" fill="#F6AB52"/>
<circle cx="233.664" cy="205.5" r="10.25" fill="#EA9633"/>
<rect x="395.289" y="176.913" width="20.75" height="76.1745" fill="#3D3C3C"/>
<rect x="401.414" y="170.913" width="8.5" height="6" fill="#EA9633"/>
<rect x="401.414" y="253.087" width="8.5" height="6" fill="#EA9633"/>
</svg>
