<svg width="303" height="689" viewBox="0 0 303 689" fill="none" xmlns="http://www.w3.org/2000/svg">
<path d="M26.1596 224.174C27.7295 224.174 31.2617 219.988 32.8316 217.895C35.154 218.226 38.4861 218.839 41.6069 219.672C45.8695 220.81 49.7379 222.361 50.1005 224.174C50.5257 225.352 50.2967 228.099 45.9795 229.669C41.6623 231.239 36.7237 225.679 34.794 222.702C34.9248 223.193 34.2445 224.645 30.4768 226.529C25.7671 228.884 24.1972 224.174 26.1596 224.174Z" fill="#B28F80"/>
<path d="M130.394 609.61C138.216 597.912 138.925 578.915 138.301 570.878L102.625 566.121C102.496 577.414 102.348 604.248 102.787 621.235C103.336 642.468 101.702 643.809 96.464 645.468C92.2734 646.795 84.1333 645.53 80.587 644.732L77.7559 651.392C84.5428 656.79 99.7043 667.661 106.055 667.955C113.994 668.323 125.474 664.276 127.675 658.227C129.877 652.178 120.616 624.234 130.394 609.61Z" fill="#C9A595"/>
<path d="M229.391 617.649C235.472 597.508 233.579 565.374 231.872 551.824L190.361 559.964C197.225 581.654 211.773 626.738 215.05 633.552C219.147 642.07 204.484 647.676 199.308 651.504C195.168 654.566 193.055 655.295 192.515 655.278L200.71 660.884L224.323 649.671C229.857 646.491 239.633 638.944 234.458 634.199C229.283 629.455 228.924 621.189 229.391 617.649Z" fill="#C9A595"/>
<path d="M207.239 390.904C226.044 338.806 220.682 315.287 215.65 310.039L125.784 268.851C121.237 277.62 111.594 297.369 109.394 306.21C106.645 317.261 127.883 428.639 128.692 432.952C129.5 437.265 141.36 475.757 142.977 481.525C144.594 487.293 163.085 509.72 168.422 518.184C173.758 526.648 184.594 544.438 187.343 553.388C190.092 562.337 185.402 565.895 185.887 568.482C186.276 570.552 218.395 560.9 234.406 555.814C235.916 539.102 220.606 504.115 204.003 476.512C187.399 448.91 183.733 456.026 207.239 390.904Z" fill="#F36B21"/>
<path d="M174.594 435.883C177.487 428.38 187.04 334.785 191.455 288.926L94.8727 306.337C97.4694 392.105 102.36 563.982 101.147 565.354C99.6321 567.069 97.3747 576.841 98.8152 580.09C100.256 583.339 145.298 576.073 148.94 573.273C152.582 570.474 143.826 558.426 140.764 547.457C137.702 536.488 170.977 445.262 174.594 435.883Z" fill="#F36B21"/>
<path d="M130.862 652.689C130.824 646.096 127.659 637.373 128.679 632.796C121.371 631.817 120.448 639.519 107.683 634.093C104.353 632.678 105.356 631.948 101.316 628.287C97.2745 624.627 100.754 640.816 97.468 644.738C95.1261 647.533 84.188 645.255 75.9626 641.828C74.3739 641.166 72.5065 641.848 71.8134 643.423L71.7087 643.661C68.9025 650.038 64.6205 659.77 64.6205 663.683C64.6205 665.593 113.262 661.673 130.862 666.117C130.862 659.909 130.931 664.606 130.862 652.689Z" fill="#293758"/>
<path d="M132.169 662.919L132.169 666.059L132.169 669.01L64.4365 669.01C63.8842 669.01 63.4365 668.562 63.4365 668.01L63.4365 662.919L110.975 662.919L132.169 662.919Z" fill="#F36B21"/>
<path d="M104.396 638.015C103.27 638.619 100.441 634.842 99.1675 632.879C97.8604 633.951 98.5522 635.269 99.0615 635.794C100.672 639.319 103.723 640.115 105.048 640.073L104.396 638.015Z" fill="#F58F1E"/>
<path d="M104.203 642.605C103.076 643.209 100.247 639.432 98.9736 637.468C97.6666 638.541 98.3584 639.859 98.8676 640.384C100.478 643.908 103.53 644.705 104.854 644.663L104.203 642.605Z" fill="#F58F1E"/>
<path d="M92.9618 649.983C92.0999 649.04 93.531 647.537 95.1215 645.82C93.7606 644.817 92.6531 645.811 92.2695 646.434C89.2488 648.861 90.7609 649.847 91.1272 651.12L92.9618 649.983Z" fill="#F58F1E"/>
<path d="M88.5497 650.026C87.6878 649.083 89.1189 647.581 90.7094 645.863C89.3485 644.86 88.241 645.855 87.8574 646.477C84.8367 648.904 86.3487 649.89 86.7151 651.164L88.5497 650.026Z" fill="#F58F1E"/>
<path d="M211.331 625.141C218.49 627.514 229.391 618.601 234.567 613.821C234.71 619.984 236.992 626.759 241.143 633.66C243.773 638.032 244.593 644.442 243.623 647.838C242.259 652.612 220.855 663.238 209.336 667.838C200.807 666.574 183.407 665.91 181.38 665.004C178.846 663.872 182.489 650.371 184.968 647.406C187.448 644.441 187.556 649.778 194.78 650.21C202.004 650.641 203.675 646.22 209.552 641.368C215.428 636.517 206.964 630.425 206.425 623.74C205.994 618.392 209.516 622.446 211.331 625.141Z" fill="#293758"/>
<path d="M207.179 663.957L244.594 644.442L245.456 649.995L210.468 668.162C200.611 668.162 183.286 668.045 180.656 666.967C178.025 665.888 180.656 662.649 180.656 662.649L207.179 663.957Z" fill="#F36B21"/>
<path d="M216.113 630.676C215.667 631.874 211.048 630.911 208.794 630.279C208.523 631.948 209.913 632.48 210.642 632.537C214.18 634.116 216.997 632.697 217.963 631.789L216.113 630.676Z" fill="#F58F1E"/>
<path d="M217.76 633.846C217.314 635.044 212.695 634.08 210.441 633.449C210.169 635.118 211.559 635.649 212.288 635.707C215.827 637.286 218.643 635.867 219.609 634.959L217.76 633.846Z" fill="#F58F1E"/>
<path d="M211.929 644.578C210.659 644.44 210.739 642.367 210.797 640.027C209.113 640.174 208.939 641.652 209.063 642.373C208.401 646.191 210.188 645.931 211.305 646.644L211.929 644.578Z" fill="#F58F1E"/>
<path d="M209.282 647.067C208.011 646.929 208.092 644.856 208.15 642.516C206.465 642.663 206.292 644.141 206.416 644.862C205.754 648.68 207.54 648.42 208.657 649.134L209.282 647.067Z" fill="#F58F1E"/>
<path d="M131.732 161.97C140.523 138.265 137.357 115.2 134.675 106.631L154.103 70.916C155.738 72.6167 158.695 77.2741 157.439 82.2978C155.869 88.5774 166.073 129.787 167.643 134.497C168.899 138.265 176.539 154.382 180.202 161.97H171.96H131.732Z" fill="#C9A595"/>
<path d="M159.598 131.945C148.295 131.945 136.05 150.784 131.341 160.203C117.212 173.285 88.9538 201.962 88.9538 212.009C88.9538 224.568 99.943 244.976 104.653 255.966C108.42 264.757 95.7566 302.539 88.9538 320.33L225.533 320.33C227.103 299.922 181.577 252.826 172.157 232.417C162.738 212.009 178.437 188.461 181.577 175.902C184.716 163.343 173.727 131.945 159.598 131.945Z" fill="#F58F1E"/>
<path d="M170.936 72.1848C164.463 32.4397 162.474 17.8939 124.407 14.4928C89.415 23.6808 102.923 49.1817 107.839 75.6245C112.755 102.067 127.239 117.009 134.06 118.726C140.882 120.444 177.409 111.93 170.936 72.1848Z" fill="#C9A595"/>
<path d="M125.58 99.3667C123.695 102.439 118.627 101.927 116.329 101.287C115.98 101.723 118.249 105.65 119.296 105.65C123.049 105.65 124.824 102.479 125.58 99.3667Z" fill="#494D64"/>
<ellipse rx="3.06109" ry="2.17202" transform="matrix(-0.976006 0.217745 0.217745 0.976006 116.898 70.9153)" fill="#293758" fill-opacity="0.8"/>
<path d="M151.749 182.18C147.563 209.915 134.794 266.64 117.211 271.664C111.025 273.431 105.304 273.437 100.283 272.473L81.1038 262.244C84.1563 265.636 91.0338 270.698 100.283 272.473L151.749 299.922L170.588 251.255L151.749 182.18Z" fill="#EF8918"/>
<rect width="3.79593" height="55.2407" rx="0.5" transform="matrix(-0.781263 0.624202 0.624202 0.781263 3.88867 199.096)" fill="#B7B0B0"/>
<path d="M42.1521 246.545C49.6091 246.78 59.5845 251.352 63.64 253.609L77.9653 245.367C72.8959 240.919 60.461 230.532 51.2771 224.566C42.0932 218.601 30.1489 222.67 27.2381 222.801C23.4441 224.534 19.1335 222.604 16.9356 222.211C14.1883 221.721 13.8939 225.351 13.6977 227.313C13.5015 229.276 19.8792 228.196 18.898 228.883C17.9168 229.57 18.2111 232.514 18.898 234.574C19.4474 236.223 22.79 235.784 24.3926 235.359C24.1964 235.588 23.7058 236.772 23.3133 239.676C22.9208 242.581 28.3174 242.522 31.0647 242.129C29.7891 243.699 32.8308 246.25 42.1521 246.545Z" fill="#C9A595"/>
<path d="M150.178 277.944C156.458 270.409 147.562 231.894 142.329 213.579C139.686 203.586 141.228 187.437 142.329 180.612C144.945 165.96 152.69 136.027 162.737 133.516C172.784 131.004 181.576 163.866 184.715 180.612C191.518 213.056 198.53 284.224 172.156 309.342C139.189 340.739 52.8458 249.686 60.6952 252.826C66.9747 255.338 73.7775 243.407 76.394 237.127C98.3722 253.873 143.899 285.48 150.178 277.944Z" fill="#F59625"/>
<path d="M131.339 6.35434C142.642 3.84251 158.027 13.6805 164.307 18.9135C183.145 29.8457 181.576 73.8599 178.436 87.989C175.296 102.118 151.747 83.2793 145.468 66.0104C139.188 48.7416 131.339 58.161 112.5 50.3115C93.6613 42.462 96.8011 58.161 85.8119 50.3115C74.8226 42.462 101.511 39.3222 96.8011 31.4727C92.0914 23.6232 117.21 9.49414 131.339 6.35434Z" fill="#0B1238"/>
<path d="M195.045 33.0318C195.516 25.3393 181.374 17.7908 174.244 14.978L168.553 16.5479L165.413 27.5372C167.637 28.3221 172.752 30.2845 175.421 31.8544C178.757 33.8168 182.093 35.5829 181.112 39.9001C180.131 44.2173 177.384 46.1797 185.037 54.4217C191.889 61.8005 186.018 63.2523 178.954 70.3169C171.889 77.3814 180.131 84.8384 185.037 86.6046C189.943 88.3707 185.626 99.1637 189.943 102.107C194.26 105.051 195.045 90.9218 198.97 87.782C202.894 84.6422 195.437 79.7363 195.045 73.0642C194.653 66.3921 200.932 73.6529 205.053 68.747C209.174 63.8411 194.456 42.6475 195.045 33.0318Z" fill="#0B1026"/>
<path d="M171.43 16.0194C167.505 12.5657 162.206 17.4585 160.048 20.3367L163.58 26.8124C165.085 27.2702 168.408 28.1468 169.663 27.9898C171.233 27.7935 176.532 25.4387 180.26 26.8124C183.989 28.186 184.185 31.522 185.362 34.8581C186.54 38.1941 191.053 37.6054 193.408 39.764C195.763 41.9226 193.408 65.8635 193.408 69.0033C193.408 72.1431 193.212 75.2829 194.586 78.0302C195.959 80.7775 194.389 84.8985 196.548 85.8797C200.502 87.6772 201.454 75.0867 202.827 77.2453C204.201 79.4039 199.099 85.8797 199.688 88.2345C200.159 90.1184 202.631 92.1593 203.809 92.9442C205.771 90.3932 201.846 88.4308 203.809 85.8797C207.733 85.8797 207.014 82.3474 206.164 80.5813L210.677 71.1619L209.5 62.5275C210.742 58.2103 212.482 48.8301 209.5 45.8473C205.771 42.1188 198.118 42.5113 196.548 37.6054C194.978 32.6995 193.016 31.1296 185.362 25.4387C177.709 19.7478 176.335 20.3367 171.43 16.0194Z" fill="#141B43"/>
<path d="M173.531 3.41009C164.582 -0.0436857 159.86 10.0821 158.617 15.5768L165.877 30.4909C166.466 29.9676 170.705 24.2898 173.531 23.8188C177.063 23.2301 175.886 25.3887 178.24 30.4909C180.595 35.593 182.95 30.8834 187.856 30.4909C192.762 30.0984 192.369 32.6495 192.173 36.9667C191.977 41.2839 192.173 40.6952 196.49 42.6576C200.808 44.6199 200.023 42.6576 202.574 46.5823C205.125 50.5071 202.378 52.6657 206.302 56.7866C210.227 60.9076 201.985 68.1684 203.947 69.5421C205.91 70.9157 206.105 77.784 204.928 80.5313C203.75 83.2786 213.563 101.725 215.722 105.453C217.449 108.436 221.543 113.892 223.963 113.892C228.084 111.537 221.805 82.8862 218.469 80.5313C215.133 78.1765 218.077 70.7195 223.964 64.2437C229.851 57.7678 221.216 46.1898 215.722 42.6576C210.227 39.1253 208.068 29.9022 208.657 21.0715C209.246 12.2408 204.34 10.8672 193.743 12.4371C183.146 14.007 184.716 7.7273 173.531 3.41009Z" fill="#111B4D"/>
<path d="M172.941 28.7251C161.794 25.4283 159.4 18.5862 159.597 15.5772C158.746 14.1381 156.653 11.6132 155.083 13.0261C153.121 14.7923 157.046 22.053 159.597 27.5477C161.637 31.9434 171.305 34.2197 175.884 34.8084C177.297 31.0407 174.511 29.183 172.941 28.7251Z" fill="#C4C4C4"/>
<circle r="2.16484" transform="matrix(-1 0 0 1 189.987 5.95097)" fill="#0B1238"/>
</svg>
