<svg width="1587" height="2369" viewBox="0 0 1587 2369" fill="none" xmlns="http://www.w3.org/2000/svg">
<path opacity="0.8" d="M661 586C952.2 554 1015.17 297.5 1079.5 203.5L1100 229C1053.67 229 1094.54 382.756 993 570C908.557 725.709 717.131 754.258 699 996C675 1316 1069 2366 1929 1954C2210.77 1819.01 2610.04 1801.98 2061 2046C1773 2174 1638.33 2508.67 1857 2542L1.00021 2502C47.6669 2368.67 60.2 2586.8 121 2334C197 2018 21.0002 1866 1.00021 1446C-18.9998 1026 297 626 661 586Z" fill="url(#paint0_linear)"/>
<g opacity="0.5">
<path d="M896.826 680.551L892.73 678.104L894.026 675.935L898.122 678.383L899.729 678.095L900.309 679.689L916.967 689.64L915.671 691.809L899.013 681.858L897.406 681.985L896.826 680.551Z" fill="#F6AB52"/>
<rect x="914.952" y="689.828" width="3.29623" height="1.63275" transform="rotate(-59.1456 914.952 689.828)" fill="#F6AB52"/>
<rect x="909.346" y="686.479" width="2.26544" height="1.63272" transform="rotate(-59.1456 909.346 686.479)" fill="#F6AB52"/>
<rect x="912.149" y="688.154" width="4.79015" height="1.63275" transform="rotate(-59.1456 912.149 688.154)" fill="#F6AB52"/>
<path fill-rule="evenodd" clip-rule="evenodd" d="M895.223 671.592L892.066 666.837L885.903 666.024L881.157 669.639L879.901 676.071L883.86 680.572L889.222 681.638L894.769 677.771L895.223 671.592ZM893.656 672.048L891.18 668.319L886.348 667.682L882.626 670.516L881.641 675.56L884.745 679.09L888.95 679.926L893.3 676.893L893.656 672.048Z" fill="#F6AB52"/>
</g>
<g opacity="0.5">
<path d="M1443.23 2038.45L1448.85 2048.17L1451.72 2046.51L1446.11 2036.79C1446.11 2036.79 1446.9 2035.41 1446.51 2034.67C1446.09 2033.9 1444.42 2033.87 1444.42 2033.87L1434.02 2015.85L1431.14 2017.51L1441.55 2035.52C1441.55 2035.52 1440.92 2036.94 1441.35 2037.64C1441.77 2038.32 1443.23 2038.45 1443.23 2038.45Z" fill="#F47E3E"/>
<rect width="8.21986" height="2.16311" transform="matrix(0.866025 -0.500001 -0.499999 -0.866026 1433.74 2018.51)" fill="#F47E3E"/>
<rect width="8.21985" height="2.16312" transform="matrix(0.866026 -0.499999 -0.500001 -0.866025 1438.07 2026)" fill="#F47E3E"/>
<rect width="5.19149" height="2.16312" transform="matrix(0.866025 -0.5 -0.5 -0.866026 1435.9 2022.25)" fill="#F47E3E"/>
<path fill-rule="evenodd" clip-rule="evenodd" d="M1453.59 2045.53C1457.91 2045.49 1460.79 2045.46 1462.91 2049.12C1465.65 2053.88 1464.02 2059.97 1459.26 2062.72C1454.5 2065.46 1448.42 2063.83 1445.67 2059.07C1443.57 2055.43 1444.78 2053.37 1447.03 2049.56C1447.72 2048.4 1448.5 2047.07 1449.31 2045.48C1450.88 2045.56 1452.3 2045.55 1453.59 2045.53ZM1448.92 2050.69C1447.37 2053.33 1446.31 2055.16 1447.84 2057.82C1449.9 2061.38 1454.45 2062.6 1458.01 2060.55C1461.57 2058.49 1462.79 2053.94 1460.74 2050.38C1459.14 2047.62 1457.02 2047.64 1453.74 2047.68C1452.79 2047.69 1451.73 2047.71 1450.57 2047.65C1450.02 2048.8 1449.44 2049.79 1448.92 2050.69Z" fill="#F47E3E"/>
</g>
<g opacity="0.5">
<path d="M820.347 1440.86L822.28 1433.3L826.247 1434.31L824.315 1441.87L825.497 1444.26L823.283 1445.91L815.425 1476.66L811.458 1475.64L819.316 1444.9L818.382 1442.44L820.347 1440.86Z" fill="#F4B186"/>
<rect x="814.211" y="1473.59" width="3.67177" height="2.67036" transform="rotate(14.3352 814.211 1473.59)" fill="#F4B186"/>
<rect x="816.855" y="1463.24" width="3.67177" height="2.67036" transform="rotate(14.3352 816.855 1463.24)" fill="#F4B186"/>
<rect x="815.533" y="1468.42" width="6.40892" height="2.67039" transform="rotate(14.3352 815.533 1468.42)" fill="#F4B186"/>
<path fill-rule="evenodd" clip-rule="evenodd" d="M823.732 1436.34L839.504 1426.98L830.152 1411.21L814.379 1420.56L823.732 1436.34ZM824.667 1432.68L818.038 1421.5L829.217 1414.87L835.846 1426.05L824.667 1432.68Z" fill="#F4B186"/>
</g>
<g opacity="0.5">
<path d="M163.653 2130.41L158.502 2124.1L155.199 2126.79L160.351 2133.1L160.282 2135.88L163.101 2136.47L184.052 2162.14L187.354 2159.44L166.403 2133.78L166.204 2131.04L163.653 2130.41Z" fill="#F6AB52"/>
<rect width="5.56238" height="2.78761" transform="matrix(-0.774641 0.632401 0.632401 0.774641 183.851 2158.7)" fill="#F6AB52"/>
<rect width="3.82293" height="2.78759" transform="matrix(-0.774641 0.632401 0.632401 0.774641 176.799 2150.06)" fill="#F6AB52"/>
<rect width="8.08338" height="2.78761" transform="matrix(-0.774641 0.632401 0.632401 0.774641 180.325 2154.38)" fill="#F6AB52"/>
<path fill-rule="evenodd" clip-rule="evenodd" d="M148.227 2129.84L139.448 2125.66L136.505 2115.48L141.345 2106.64L151.803 2102.99L160.363 2108.58L163.525 2117.35L158.465 2127.61L148.227 2129.84ZM148.589 2127.1L141.704 2123.82L139.397 2115.84L143.193 2108.9L151.393 2106.04L158.106 2110.43L160.585 2117.3L156.618 2125.34L148.589 2127.1Z" fill="#F6AB52"/>
</g>
<g opacity="0.5">
<path d="M37.9154 1112.83L53.6084 1082.15L49.42 1080.01L33.727 1110.69L30.8971 1111.85L31.5479 1114.95L26.5571 1124.71L30.7454 1126.85L35.7363 1117.1L38.4088 1115.69L37.9154 1112.83Z" fill="#F47E3E"/>
<rect width="11.6584" height="3.068" transform="matrix(-0.890328 -0.455319 -0.455319 0.890328 29.9346 1122.99)" fill="#F47E3E"/>
<rect width="7.36321" height="3.06802" transform="matrix(-0.890328 -0.455319 -0.455319 0.890328 32.728 1117.53)" fill="#F47E3E"/>
<path fill-rule="evenodd" clip-rule="evenodd" d="M50.0503 1083.66C43.1108 1080.11 40.3622 1071.61 43.9111 1064.67C47.46 1057.73 55.9625 1054.98 62.9019 1058.53C69.8414 1062.08 72.59 1070.58 69.0412 1077.52C65.4923 1084.46 56.9898 1087.21 50.0503 1083.66ZM51.6689 1080.5C56.8606 1083.15 63.2216 1081.09 65.8767 1075.9C68.5317 1070.71 66.4754 1064.35 61.2837 1061.69C56.092 1059.04 49.731 1061.1 47.0759 1066.29C44.4209 1071.48 46.4772 1077.84 51.6689 1080.5Z" fill="#F47E3E"/>
</g>
<g opacity="0.5">
<path d="M933.639 443.231L940.42 441.682L939.607 438.124L932.827 439.673L930.731 438.565L929.207 440.5L901.632 446.798L902.445 450.356L930.02 444.057L932.188 444.945L933.639 443.231Z" fill="#F4B186"/>
<rect width="3.27255" height="2.38002" transform="matrix(-0.222689 -0.97489 -0.97489 0.222689 904.336 447.951)" fill="#F4B186"/>
<rect width="3.27255" height="2.38002" transform="matrix(-0.222689 -0.97489 -0.97489 0.222689 913.618 445.831)" fill="#F4B186"/>
<rect width="5.71209" height="2.38005" transform="matrix(-0.222689 -0.97489 -0.97489 0.222689 908.977 446.891)" fill="#F4B186"/>
<path fill-rule="evenodd" clip-rule="evenodd" d="M937.749 440.318L946.441 426.479L960.281 435.172L951.588 449.011L937.749 440.318ZM941.03 439.569L950.839 445.73L957 435.921L947.191 429.76L941.03 439.569Z" fill="#F4B186"/>
</g>
<rect x="771.533" y="1436.56" width="36.4987" height="47.3446" rx="6" transform="rotate(-36.2811 771.533 1436.56)" fill="#FBFCFF"/>
<path d="M798.081 1415.85L773.766 1433.7C772.021 1434.98 771.649 1437.35 772.922 1439.09L797.151 1472.09C798.423 1473.83 800.795 1474.18 802.541 1472.9L826.856 1455.05C828.601 1453.77 828.973 1451.4 827.7 1449.67L803.471 1416.66C802.198 1414.93 799.827 1414.57 798.081 1415.85ZM786.442 1426.4L787.315 1425.76C787.689 1425.48 788.29 1425.52 788.608 1425.95C788.926 1426.38 788.842 1426.92 788.406 1427.24L787.533 1427.88C787.159 1428.16 786.557 1428.12 786.239 1427.69C785.921 1427.26 786.068 1426.67 786.442 1426.4ZM815.454 1460.56L811.215 1463.67C810.841 1463.95 810.239 1463.91 809.921 1463.48C809.648 1463.11 809.687 1462.51 810.124 1462.19L814.363 1459.08C814.737 1458.8 815.339 1458.84 815.657 1459.27C815.913 1459.75 815.828 1460.29 815.454 1460.56ZM820.924 1447.49C822.197 1449.23 821.825 1451.6 820.08 1452.88L802.498 1465.78C800.752 1467.07 798.381 1466.71 797.108 1464.98L779.425 1440.89C778.152 1439.15 778.524 1436.78 780.269 1435.5L797.913 1422.55C799.659 1421.27 802.031 1421.62 803.303 1423.36L820.986 1447.45L820.924 1447.49Z" fill="#F1F2F6"/>
<rect x="925.675" y="437.214" width="28.1052" height="43.1318" transform="rotate(49.4947 925.675 437.214)" fill="#FBFCFF"/>
<path d="M941.599 487.583C940.315 487.715 939.021 488.01 937.746 487.945C934.444 487.778 931.15 487.45 927.849 487.198C927.487 487.169 927.12 487.213 926.755 487.222C926.725 487.111 926.695 487 926.667 486.891C927.137 486.489 927.605 486.089 928.075 485.688C930.075 483.979 932.085 482.28 934.075 480.56C937.113 477.931 937.429 474.262 934.842 471.195C931.739 467.517 928.596 463.873 925.47 460.214C924.074 458.579 924.271 456.9 926.173 455.83C927.04 455.342 928.154 454.993 929.132 455.044C933.261 455.259 937.381 455.626 941.502 455.981C944.017 456.198 945.784 458.201 945.6 460.729C945.039 468.452 944.434 476.173 943.785 483.89C943.713 484.747 943.25 485.573 942.969 486.412C942.513 486.802 942.057 487.191 941.599 487.583ZM936.981 466.914C938.109 467.067 939.187 467.276 940.276 467.346C941.328 467.414 942.031 466.74 942.141 465.675C942.24 464.742 942.293 463.804 942.366 462.869C942.624 459.53 942.406 459.286 939.069 459.14C937.787 459.084 937.175 459.583 937.052 460.857C936.912 462.315 936.791 463.774 936.718 465.237C936.694 465.699 936.857 466.171 936.981 466.914Z" fill="#F1F2F6"/>
<path d="M945.372 453.798C945.609 454.402 945.845 455.005 946.082 455.609C944.121 453.733 941.689 453.689 939.303 453.587C938.367 453.547 937.737 453.222 937.126 452.497C933.549 448.236 929.915 444.02 926.301 439.79C926.039 439.483 925.776 439.176 925.476 438.824C915.208 447.596 905.02 456.299 894.776 465.05C900.519 471.773 906.239 478.47 911.982 485.192C912.396 484.899 912.752 484.645 913.153 484.361C913.632 484.922 914.084 485.451 914.526 485.969C912.184 489.151 908.378 489.319 905.875 486.392C901.429 481.19 896.984 475.987 892.541 470.783C890.464 468.347 890.634 465.279 893.07 463.189C903.316 454.401 913.577 445.639 923.852 436.888C925.937 435.113 927.991 435.136 930.864 436.815C935.7 442.476 940.536 448.137 945.372 453.798ZM902.214 476.137C901.555 475.365 900.878 474.607 900.243 473.818C899.765 473.224 899.316 473.174 898.729 473.678C898.163 474.165 897.712 474.63 898.331 475.359C899.668 476.935 901.006 478.511 902.363 480.072C902.934 480.726 903.452 480.43 904.002 479.959C904.562 479.482 904.727 479.047 904.195 478.448C903.521 477.691 902.874 476.909 902.214 476.137Z" fill="#F1F2F6"/>
<path d="M909.882 477.618C907.441 474.76 904.991 471.907 902.558 469.041C900.562 466.687 900.772 464.286 903.13 462.265C906.127 459.696 909.124 457.13 912.13 454.571C914.254 452.763 916.78 452.902 918.598 455.013C923.626 460.854 928.634 466.713 933.614 472.595C935.355 474.65 935.174 477.119 933.155 478.892C930.077 481.595 926.971 484.266 923.819 486.884C921.591 488.734 919.168 488.468 917.284 486.28C914.806 483.4 912.348 480.505 909.882 477.618ZM929.366 480.194C929.286 480.003 929.269 479.882 929.2 479.801C923.13 472.682 917.049 465.567 910.986 458.442C910.528 457.902 910.203 458.087 909.78 458.454C907.818 460.148 905.823 461.805 903.877 463.518C902.428 464.794 902.325 466.535 903.553 468.014C904.488 469.141 905.453 470.245 906.405 471.36C910.359 475.989 914.312 480.62 918.269 485.245C919.457 486.632 921.125 487.105 922.353 486.14C924.762 484.24 927.042 482.179 929.366 480.194ZM913.618 455.463C919.88 462.793 926.142 470.123 932.406 477.457C933.552 476.19 933.571 474.75 932.435 473.409C929.862 470.373 927.268 467.354 924.684 464.33C922.319 461.561 919.963 458.785 917.586 456.027C916.421 454.677 914.87 454.465 913.618 455.463Z" fill="#F1F2F6"/>
<path d="M925.247 481.092C924.576 481.665 923.98 482.175 923.307 482.749C917.85 476.361 912.408 469.99 906.928 463.575C907.558 463.038 908.177 462.509 908.868 461.918C914.296 468.272 919.739 474.644 925.247 481.092Z" fill="#F1F2F6"/>
<rect x="45.9121" y="1084.1" width="44.8039" height="52.7035" rx="4.5" transform="rotate(12.8352 45.9121 1084.1)" fill="#F1F2F6" stroke="#F1F2F6"/>
<path d="M82.4093 1109.28L46.0894 1101C45.4877 1100.87 45.1275 1100.26 45.2597 1099.68L47.3016 1090.72C47.4387 1090.12 48.0407 1089.76 48.6209 1089.89L84.9408 1098.17C85.5426 1098.3 85.9028 1098.91 85.7705 1099.49L83.7287 1108.45C83.5965 1109.03 83.0111 1109.42 82.4093 1109.28Z" fill="#FBFCFF"/>
<path d="M78.4906 1103.65C79.2385 1103.83 79.983 1103.36 80.1534 1102.61C80.3238 1101.86 79.8556 1101.12 79.1077 1100.95C78.3597 1100.78 77.6153 1101.24 77.4449 1101.99C77.2745 1102.74 77.7426 1103.48 78.4906 1103.65Z" fill="#F1F2F6" stroke="#F1F2F6" stroke-miterlimit="10"/>
<path d="M48.0992 1105.08L48.8828 1101.64" stroke="#FBFCFF" stroke-width="2" stroke-miterlimit="10"/>
<path d="M78.982 1112.11L79.7656 1108.67" stroke="#FBFCFF" stroke-width="2" stroke-miterlimit="10"/>
<path d="M79.1686 1123.5L42.8487 1115.22C42.247 1115.09 41.8868 1114.48 42.019 1113.9L44.0608 1104.94C44.1979 1104.34 44.8 1103.98 45.3802 1104.11L81.7001 1112.39C82.3018 1112.53 82.662 1113.13 82.5298 1113.71L80.488 1122.67C80.3558 1123.25 79.7703 1123.64 79.1686 1123.5Z" fill="#FBFCFF"/>
<path d="M75.1585 1118.28C75.9065 1118.45 76.6509 1117.98 76.8213 1117.23C76.9917 1116.49 76.5236 1115.74 75.7756 1115.57C75.0277 1115.4 74.2832 1115.87 74.1128 1116.62C73.9424 1117.36 74.4106 1118.11 75.1585 1118.28Z" fill="#F1F2F6" stroke="#F1F2F6" stroke-miterlimit="10"/>
<path d="M44.859 1119.3L45.6426 1115.86" stroke="#FBFCFF" stroke-width="2" stroke-miterlimit="10"/>
<path d="M75.7413 1126.34L76.5249 1122.9" stroke="#FBFCFF" stroke-width="2" stroke-miterlimit="10"/>
<path d="M75.879 1137.94L39.5592 1129.66C38.9574 1129.52 38.5972 1128.92 38.7294 1128.34L40.7713 1119.38C40.9084 1118.78 41.5104 1118.42 42.0907 1118.55L78.4105 1126.82C79.0123 1126.96 79.3725 1127.56 79.2403 1128.14L77.1984 1137.11C77.0662 1137.69 76.4808 1138.07 75.879 1137.94Z" fill="#FBFCFF"/>
<path d="M71.7826 1133.1C72.5305 1133.27 73.2749 1132.8 73.4454 1132.05C73.6158 1131.3 73.1476 1130.56 72.3997 1130.39C71.6517 1130.22 70.9073 1130.69 70.7369 1131.43C70.5664 1132.18 71.0346 1132.93 71.7826 1133.1Z" fill="#F1F2F6" stroke="#F1F2F6" stroke-miterlimit="10"/>
<path d="M1423.66 2086.15L1401.16 2075.31C1399.38 2074.45 1398.63 2072.29 1399.49 2070.51L1420.86 2026.17C1421.72 2024.39 1423.88 2023.63 1425.66 2024.49L1448.15 2035.33C1449.94 2036.19 1450.69 2038.35 1449.83 2040.13L1428.46 2084.48C1427.6 2086.26 1425.44 2087.01 1423.66 2086.15Z" fill="#F7F8FC" stroke="#F1F2F6" stroke-width="2" stroke-miterlimit="10"/>
<path d="M1444.57 2035.3L1444.56 2035.31L1444.56 2035.32C1444.1 2036.43 1442.83 2036.84 1441.79 2036.33L1429.25 2030.29C1428.22 2029.79 1427.79 2028.58 1428.29 2027.55C1428.83 2026.43 1430.05 2026.02 1431.06 2026.51L1443.61 2032.56C1444.64 2033.05 1445.06 2034.27 1444.57 2035.3Z" fill="#F1F2F6" stroke="#F1F2F6" stroke-width="0.75"/>
<path d="M891.361 717.337L868.41 716.53C867.524 716.499 866.825 715.735 866.856 714.863L867.663 691.912C867.694 691.026 868.458 690.327 869.33 690.358L892.281 691.165C893.168 691.196 893.866 691.96 893.835 692.832L893.029 715.783C892.996 716.708 892.286 717.37 891.361 717.337Z" fill="#FBFCFF" stroke="#F1F2F6" stroke-width="6" stroke-linejoin="round"/>
<path d="M870.303 688.959L871.038 678.556C871.038 678.556 871.066 675.143 874.2 675.253C877.334 675.363 889.685 675.797 889.685 675.797C889.685 675.797 892.002 675.51 891.834 680.303C891.665 685.096 891.406 692.47 891.406 692.47" fill="#F1F2F6"/>
<path d="M890.472 719.016L889.737 729.418C889.737 729.418 889.709 732.832 886.575 732.722C883.441 732.612 871.09 732.178 871.09 732.178C871.09 732.178 868.773 732.465 868.941 727.672C869.11 722.879 869.372 715.413 869.372 715.413" fill="#F1F2F6"/>
<path d="M897.88 710.417L895.391 710.329C895.115 710.319 894.937 710.129 894.947 709.852L895.329 698.976C895.339 698.699 895.53 698.521 895.806 698.531L898.295 698.618C898.571 698.628 898.749 698.819 898.739 699.095L898.357 709.972C898.347 710.248 898.157 710.426 897.88 710.417Z" fill="#F1F2F6"/>
<path d="M157.36 2174.44L108.913 2162.08C105.932 2161.32 104.214 2158.28 104.947 2155.4L112.116 2127.29C112.877 2124.31 115.923 2122.59 118.798 2123.33L167.245 2135.68C170.226 2136.44 171.944 2139.49 171.211 2142.36L164.041 2170.47C163.308 2173.35 160.341 2175.2 157.36 2174.44Z" fill="#F1F2F6"/>
<path d="M137.545 2165.87L129.985 2163.94L127.107 2175.23L134.667 2177.16L137.545 2165.87Z" fill="#F1F2F6"/>
<path d="M141.821 2180.23L119.142 2174.44C118.503 2174.28 118.186 2173.75 118.349 2173.11L118.512 2172.47C118.675 2171.83 119.209 2171.51 119.848 2171.68L142.634 2177.49C143.273 2177.65 143.59 2178.18 143.427 2178.82L143.264 2179.46C142.995 2180.07 142.46 2180.39 141.821 2180.23Z" fill="#F1F2F6"/>
<rect x="115.372" y="2128.04" width="53.6426" height="29.0046" rx="5" transform="rotate(14.3077 115.372 2128.04)" fill="#FBFCFF"/>
<path d="M1102.16 224.174C1103.73 224.174 1107.26 219.988 1108.83 217.895C1111.15 218.226 1114.49 218.839 1117.61 219.672C1121.87 220.81 1125.74 222.361 1126.1 224.174C1126.53 225.352 1126.3 228.099 1121.98 229.669C1117.66 231.239 1112.72 225.679 1110.79 222.702C1110.92 223.193 1110.24 224.645 1106.48 226.529C1101.77 228.884 1100.2 224.174 1102.16 224.174Z" fill="#B28F80"/>
<path d="M1206.39 609.61C1214.22 597.912 1214.92 578.915 1214.3 570.878L1178.62 566.121C1178.5 577.414 1178.35 604.248 1178.79 621.235C1179.34 642.468 1177.7 643.809 1172.46 645.468C1168.27 646.795 1160.13 645.53 1156.59 644.732L1153.76 651.392C1160.54 656.79 1175.7 667.661 1182.06 667.955C1189.99 668.323 1201.47 664.276 1203.68 658.227C1205.88 652.178 1196.62 624.234 1206.39 609.61Z" fill="#C9A595"/>
<path d="M1305.39 617.649C1311.47 597.508 1309.58 565.374 1307.87 551.824L1266.36 559.964C1273.22 581.654 1287.77 626.738 1291.05 633.552C1295.15 642.07 1280.48 647.676 1275.31 651.504C1271.17 654.566 1269.05 655.295 1268.52 655.278L1276.71 660.884L1300.32 649.671C1305.86 646.491 1315.63 638.944 1310.46 634.199C1305.28 629.455 1304.92 621.189 1305.39 617.649Z" fill="#C9A595"/>
<path d="M1283.24 390.904C1302.04 338.806 1296.68 315.287 1291.65 310.039L1201.78 268.851C1197.24 277.62 1187.59 297.369 1185.39 306.21C1182.64 317.261 1203.88 428.639 1204.69 432.952C1205.5 437.265 1217.36 475.757 1218.98 481.525C1220.59 487.293 1239.08 509.72 1244.42 518.184C1249.76 526.648 1260.59 544.438 1263.34 553.388C1266.09 562.337 1261.4 565.895 1261.89 568.482C1262.28 570.552 1294.4 560.9 1310.41 555.814C1311.92 539.102 1296.61 504.115 1280 476.512C1263.4 448.91 1259.73 456.026 1283.24 390.904Z" fill="#F36B21"/>
<path d="M1250.59 435.883C1253.49 428.38 1263.04 334.785 1267.46 288.926L1170.87 306.337C1173.47 392.105 1178.36 563.982 1177.15 565.354C1175.63 567.069 1173.37 576.841 1174.82 580.09C1176.26 583.339 1221.3 576.073 1224.94 573.273C1228.58 570.474 1219.83 558.426 1216.76 547.457C1213.7 536.488 1246.98 445.262 1250.59 435.883Z" fill="#F36B21"/>
<path d="M1206.86 652.689C1206.82 646.096 1203.66 637.373 1204.68 632.796C1197.37 631.817 1196.45 639.519 1183.68 634.093C1180.35 632.678 1181.36 631.948 1177.32 628.287C1173.27 624.627 1176.75 640.816 1173.47 644.738C1171.13 647.533 1160.19 645.255 1151.96 641.828C1150.37 641.166 1148.51 641.848 1147.81 643.423L1147.71 643.661C1144.9 650.038 1140.62 659.77 1140.62 663.683C1140.62 665.593 1189.26 661.673 1206.86 666.117C1206.86 659.909 1206.93 664.606 1206.86 652.689Z" fill="#293758"/>
<path d="M1208.17 662.919L1208.17 666.059L1208.17 669.01L1140.44 669.01C1139.88 669.01 1139.44 668.562 1139.44 668.01L1139.44 662.919L1186.98 662.919L1208.17 662.919Z" fill="#F36B21"/>
<path d="M1180.4 638.015C1179.27 638.619 1176.44 634.842 1175.17 632.879C1173.86 633.951 1174.55 635.269 1175.06 635.794C1176.67 639.319 1179.72 640.115 1181.05 640.073L1180.4 638.015Z" fill="#F58F1E"/>
<path d="M1180.2 642.605C1179.08 643.209 1176.25 639.432 1174.97 637.468C1173.67 638.541 1174.36 639.859 1174.87 640.384C1176.48 643.908 1179.53 644.705 1180.85 644.663L1180.2 642.605Z" fill="#F58F1E"/>
<path d="M1168.96 649.983C1168.1 649.04 1169.53 647.537 1171.12 645.82C1169.76 644.817 1168.65 645.811 1168.27 646.434C1165.25 648.861 1166.76 649.847 1167.13 651.12L1168.96 649.983Z" fill="#F58F1E"/>
<path d="M1164.55 650.026C1163.69 649.083 1165.12 647.581 1166.71 645.863C1165.35 644.86 1164.24 645.855 1163.86 646.477C1160.84 648.904 1162.35 649.89 1162.72 651.164L1164.55 650.026Z" fill="#F58F1E"/>
<path d="M1287.33 625.141C1294.49 627.514 1305.39 618.601 1310.57 613.821C1310.71 619.984 1312.99 626.759 1317.14 633.66C1319.77 638.032 1320.59 644.442 1319.62 647.838C1318.26 652.612 1296.85 663.238 1285.34 667.838C1276.81 666.574 1259.41 665.91 1257.38 665.004C1254.85 663.872 1258.49 650.371 1260.97 647.406C1263.45 644.441 1263.56 649.778 1270.78 650.21C1278 650.641 1279.68 646.22 1285.55 641.368C1291.43 636.517 1282.96 630.425 1282.43 623.74C1281.99 618.392 1285.52 622.446 1287.33 625.141Z" fill="#293758"/>
<path d="M1283.18 663.957L1320.59 644.442L1321.46 649.995L1286.47 668.162C1276.61 668.162 1259.29 668.045 1256.66 666.967C1254.02 665.888 1256.66 662.649 1256.66 662.649L1283.18 663.957Z" fill="#F36B21"/>
<path d="M1292.11 630.676C1291.67 631.874 1287.05 630.911 1284.79 630.279C1284.52 631.948 1285.91 632.48 1286.64 632.537C1290.18 634.116 1293 632.697 1293.96 631.789L1292.11 630.676Z" fill="#F58F1E"/>
<path d="M1293.76 633.846C1293.31 635.044 1288.69 634.08 1286.44 633.449C1286.17 635.118 1287.56 635.649 1288.29 635.707C1291.83 637.286 1294.64 635.867 1295.61 634.959L1293.76 633.846Z" fill="#F58F1E"/>
<path d="M1287.93 644.578C1286.66 644.44 1286.74 642.367 1286.8 640.027C1285.11 640.174 1284.94 641.652 1285.06 642.373C1284.4 646.191 1286.19 645.931 1287.3 646.644L1287.93 644.578Z" fill="#F58F1E"/>
<path d="M1285.28 647.067C1284.01 646.929 1284.09 644.856 1284.15 642.516C1282.47 642.663 1282.29 644.141 1282.42 644.862C1281.75 648.68 1283.54 648.42 1284.66 649.134L1285.28 647.067Z" fill="#F58F1E"/>
<path d="M1207.73 161.97C1216.52 138.265 1213.36 115.2 1210.68 106.631L1230.1 70.916C1231.74 72.6167 1234.69 77.2741 1233.44 82.2978C1231.87 88.5774 1242.07 129.787 1243.64 134.497C1244.9 138.265 1252.54 154.382 1256.2 161.97H1247.96H1207.73Z" fill="#C9A595"/>
<path d="M1235.6 131.945C1224.3 131.945 1212.05 150.784 1207.34 160.203C1193.21 173.285 1164.95 201.962 1164.95 212.009C1164.95 224.568 1175.94 244.976 1180.65 255.966C1184.42 264.757 1171.76 302.539 1164.95 320.33L1301.53 320.33C1303.1 299.922 1257.58 252.826 1248.16 232.417C1238.74 212.009 1254.44 188.461 1257.58 175.902C1260.72 163.343 1249.73 131.945 1235.6 131.945Z" fill="#F58F1E"/>
<path d="M1246.94 72.1848C1240.46 32.4397 1238.47 17.8939 1200.41 14.4928C1165.42 23.6808 1178.92 49.1817 1183.84 75.6245C1188.75 102.067 1203.24 117.009 1210.06 118.726C1216.88 120.444 1253.41 111.93 1246.94 72.1848Z" fill="#C9A595"/>
<path d="M1201.58 99.3667C1199.69 102.439 1194.63 101.927 1192.33 101.287C1191.98 101.723 1194.25 105.65 1195.3 105.65C1199.05 105.65 1200.82 102.479 1201.58 99.3667Z" fill="#494D64"/>
<ellipse rx="3.06109" ry="2.17202" transform="matrix(-0.976006 0.217745 0.217745 0.976006 1192.9 70.9153)" fill="#293758" fill-opacity="0.8"/>
<path d="M1227.75 182.18C1223.56 209.915 1210.79 266.64 1193.21 271.664C1187.02 273.431 1181.3 273.437 1176.28 272.473L1157.1 262.244C1160.16 265.636 1167.03 270.698 1176.28 272.473L1227.75 299.922L1246.59 251.255L1227.75 182.18Z" fill="#EF8918"/>
<rect width="3.79593" height="55.2407" rx="0.5" transform="matrix(-0.781263 0.624202 0.624202 0.781263 1079.89 199.096)" fill="#B7B0B0"/>
<path d="M1118.15 246.545C1125.61 246.78 1135.58 251.352 1139.64 253.609L1153.97 245.367C1148.9 240.919 1136.46 230.532 1127.28 224.566C1118.09 218.601 1106.15 222.67 1103.24 222.801C1099.44 224.534 1095.13 222.604 1092.94 222.211C1090.19 221.721 1089.89 225.351 1089.7 227.313C1089.5 229.276 1095.88 228.196 1094.9 228.883C1093.92 229.57 1094.21 232.514 1094.9 234.574C1095.45 236.223 1098.79 235.784 1100.39 235.359C1100.2 235.588 1099.71 236.772 1099.31 239.676C1098.92 242.581 1104.32 242.522 1107.06 242.129C1105.79 243.699 1108.83 246.25 1118.15 246.545Z" fill="#C9A595"/>
<path d="M1226.18 277.944C1232.46 270.409 1223.56 231.894 1218.33 213.579C1215.69 203.586 1217.23 187.437 1218.33 180.612C1220.95 165.96 1228.69 136.027 1238.74 133.516C1248.78 131.004 1257.58 163.866 1260.72 180.612C1267.52 213.056 1274.53 284.224 1248.16 309.342C1215.19 340.739 1128.85 249.686 1136.7 252.826C1142.97 255.338 1149.78 243.407 1152.39 237.127C1174.37 253.873 1219.9 285.48 1226.18 277.944Z" fill="#F59625"/>
<path d="M1207.34 6.35434C1218.64 3.84251 1234.03 13.6805 1240.31 18.9135C1259.15 29.8457 1257.58 73.8599 1254.44 87.989C1251.3 102.118 1227.75 83.2793 1221.47 66.0104C1215.19 48.7416 1207.34 58.161 1188.5 50.3115C1169.66 42.462 1172.8 58.161 1161.81 50.3115C1150.82 42.462 1177.51 39.3222 1172.8 31.4727C1168.09 23.6232 1193.21 9.49414 1207.34 6.35434Z" fill="#0B1238"/>
<path d="M1271.05 33.0318C1271.52 25.3393 1257.37 17.7908 1250.24 14.978L1244.55 16.5479L1241.41 27.5372C1243.64 28.3221 1248.75 30.2845 1251.42 31.8544C1254.76 33.8168 1258.09 35.5829 1257.11 39.9001C1256.13 44.2173 1253.38 46.1797 1261.04 54.4217C1267.89 61.8005 1262.02 63.2523 1254.95 70.3169C1247.89 77.3814 1256.13 84.8384 1261.04 86.6046C1265.94 88.3707 1261.63 99.1637 1265.94 102.107C1270.26 105.051 1271.04 90.9218 1274.97 87.782C1278.89 84.6422 1271.44 79.7363 1271.05 73.0642C1270.65 66.3921 1276.93 73.6529 1281.05 68.747C1285.17 63.8411 1270.46 42.6475 1271.05 33.0318Z" fill="#0B1026"/>
<path d="M1247.43 16.0194C1243.5 12.5657 1238.21 17.4585 1236.05 20.3367L1239.58 26.8124C1241.08 27.2702 1244.41 28.1468 1245.66 27.9898C1247.23 27.7935 1252.53 25.4387 1256.26 26.8124C1259.99 28.186 1260.18 31.522 1261.36 34.8581C1262.54 38.1941 1267.05 37.6054 1269.41 39.764C1271.76 41.9226 1269.41 65.8635 1269.41 69.0033C1269.41 72.1431 1269.21 75.2829 1270.59 78.0302C1271.96 80.7775 1270.39 84.8985 1272.55 85.8797C1276.5 87.6772 1277.45 75.0867 1278.83 77.2453C1280.2 79.4039 1275.1 85.8797 1275.69 88.2345C1276.16 90.1184 1278.63 92.1593 1279.81 92.9442C1281.77 90.3932 1277.85 88.4308 1279.81 85.8797C1283.73 85.8797 1283.01 82.3474 1282.16 80.5813L1286.68 71.1619L1285.5 62.5275C1286.74 58.2103 1288.48 48.8301 1285.5 45.8473C1281.77 42.1188 1274.12 42.5113 1272.55 37.6054C1270.98 32.6995 1269.02 31.1296 1261.36 25.4387C1253.71 19.7478 1252.34 20.3367 1247.43 16.0194Z" fill="#141B43"/>
<path d="M1249.53 3.41009C1240.58 -0.0436857 1235.86 10.0821 1234.62 15.5768L1241.88 30.4909C1242.47 29.9676 1246.7 24.2898 1249.53 23.8188C1253.06 23.2301 1251.89 25.3887 1254.24 30.4909C1256.6 35.593 1258.95 30.8834 1263.86 30.4909C1268.76 30.0984 1268.37 32.6495 1268.17 36.9667C1267.98 41.2839 1268.17 40.6952 1272.49 42.6576C1276.81 44.6199 1276.02 42.6576 1278.57 46.5823C1281.12 50.5071 1278.38 52.6657 1282.3 56.7866C1286.23 60.9076 1277.99 68.1684 1279.95 69.5421C1281.91 70.9157 1282.11 77.784 1280.93 80.5313C1279.75 83.2786 1289.56 101.725 1291.72 105.453C1293.45 108.436 1297.54 113.892 1299.96 113.892C1304.08 111.537 1297.81 82.8862 1294.47 80.5313C1291.13 78.1765 1294.08 70.7195 1299.96 64.2437C1305.85 57.7678 1297.22 46.1898 1291.72 42.6576C1286.23 39.1253 1284.07 29.9022 1284.66 21.0715C1285.25 12.2408 1280.34 10.8672 1269.74 12.4371C1259.15 14.007 1260.72 7.7273 1249.53 3.41009Z" fill="#111B4D"/>
<path d="M1248.94 28.7251C1237.79 25.4283 1235.4 18.5862 1235.6 15.5772C1234.75 14.1381 1232.65 11.6132 1231.08 13.0261C1229.12 14.7923 1233.05 22.053 1235.6 27.5477C1237.64 31.9434 1247.31 34.2197 1251.88 34.8084C1253.3 31.0407 1250.51 29.183 1248.94 28.7251Z" fill="#C4C4C4"/>
<circle r="2.16484" transform="matrix(-1 0 0 1 1265.99 5.95097)" fill="#0B1238"/>
<defs>
<linearGradient id="paint0_linear" x1="1129" y1="34" x2="1489.13" y2="2364.43" gradientUnits="userSpaceOnUse">
<stop stop-color="#F1F2F6"/>
<stop offset="1" stop-color="#F1F2F6" stop-opacity="0"/>
</linearGradient>
</defs>
</svg>
