<svg width="283" height="352" viewBox="0 0 283 352" fill="none" xmlns="http://www.w3.org/2000/svg">
<path d="M144.161 160.096L124.15 127.001L106.785 137.5L126.796 170.596L124.604 183.595L137.478 188.262L218.86 322.853L236.225 312.353L154.843 177.762L155.747 164.763L144.161 160.096Z" fill="#6C5BD9"/>
<rect width="18.1972" height="13.2344" transform="matrix(-0.855728 0.517426 0.517426 0.855728 220.224 306.563)" fill="#6C5BD9"/>
<rect width="18.1972" height="13.2344" transform="matrix(-0.855728 0.517426 0.517426 0.855728 192.832 261.264)" fill="#6C5BD9"/>
<rect width="31.7625" height="13.2344" transform="matrix(-0.855728 0.517426 0.517426 0.855728 206.527 283.914)" fill="#6C5BD9"/>
<path fill-rule="evenodd" clip-rule="evenodd" d="M121.615 143.484L33.3759 121.744L55.1153 33.505L143.354 55.2444L121.615 143.484ZM111.931 127.468L127.339 64.928L64.7989 49.5199L49.3908 112.06L111.931 127.468Z" fill="#6C5BD9"/>
</svg>
