<svg width="808" height="883" viewBox="0 0 808 883" fill="none" xmlns="http://www.w3.org/2000/svg">
<g opacity="0.05">
<path d="M166.919 390.485L44.3594 335.295L15.3795 399.65L137.939 454.84L157.31 496.376L203.361 484.301L701.787 708.749L730.767 644.395L232.341 419.946L209.285 380.957L166.919 390.485Z" fill="#6C5BD9"/>
<rect width="92.0883" height="45.9955" transform="matrix(-0.410603 0.911814 0.911814 0.410603 673.551 659.435)" fill="#6C5BD9"/>
<rect width="63.2907" height="45.9955" transform="matrix(-0.410603 0.911814 0.911814 0.410603 505.794 583.893)" fill="#6C5BD9"/>
<rect width="133.825" height="45.9955" transform="matrix(-0.410603 0.911814 0.911814 0.410603 589.672 621.663)" fill="#6C5BD9"/>
<path fill-rule="evenodd" clip-rule="evenodd" d="M-65.2624 496.391L-225.788 499.569L-344.132 370.812L-337.658 204.077L-209.891 72.707L-42.2488 91.9883L68.9787 198.286L69.6206 387.481L-65.2624 496.391ZM-80.1016 453.098L-205.984 455.59L-298.788 354.62L-293.711 223.869L-193.518 120.85L-62.0546 135.97L25.1686 219.328L25.672 367.692L-80.1016 453.098Z" fill="#6C5BD9"/>
</g>
</svg>
