<svg version="1" xmlns="http://www.w3.org/2000/svg" width="933.333" height="933.333" viewBox="0 0 700.000000 700.000000"><path d="M330.6 3.1c-29.7 1.7-61.1 7.9-89.3 17.4C122.6 60.7 34.4 162 11.1 285c-7.5 39.9-7.5 88.1 0 128 21.5 113.5 97.4 208 205 255.4 45 19.8 87.8 28.9 135.9 28.9 38.7-.1 69.7-5 106.3-16.9C579.1 641 671 535 692.8 410c4.3-24.4 4.7-29.8 4.6-62 0-33.7-.8-41.7-7-72.8-9.3-46.9-30.7-93.7-61.8-135.2-34.7-46.4-83.9-85.3-137.1-108.5-37.4-16.4-77.8-25.9-120-28.5-18.6-1.1-21.8-1.1-40.9.1zM373 135.4c31.3 5.2 57.2 18.7 79 41.2 25.7 26.6 39 59.7 39 97.1 0 37.2-13.8 70.8-40.2 97.7l-9.8 10 8.5 8.6c21.8 21.8 34.9 47.1 39.9 76.9 2.1 12.2 2.4 93.9.4 95.9-.9.9-9 1.2-30.5 1.2-26.9 0-29.3-.1-30.2-1.8-.5-1-1.1-19.9-1.4-43.2-.5-47.1-.6-48.1-8.4-64-4-8.1-6.1-10.9-14.2-19.1-8.2-8.1-11-10.2-19.1-14.2-16-7.9-16.8-8-64.6-8.4-38.1-.4-42.3-.3-43.8 1.2s-1.6 8.1-1.6 73.3c0 63.3-.2 72-1.6 74-1.5 2.2-1.7 2.2-30.4 2.2-25.2 0-29.1-.2-30.5-1.6-1.4-1.5-1.5-15.2-1.2-154.3l.3-152.6 2.2-9.7c13.4-58.5 57.1-100.5 114.7-110.2 10.6-1.8 32.9-1.9 43.5-.2z"/><path d="M342.3 198.1c-25.3 3-48.2 19.6-59.4 43.4-6.4 13.7-6.9 18.2-6.9 63.5 0 25.8.4 40.8 1 42.1 1 1.8 2.6 1.9 42.6 1.9 46.2 0 49.6-.4 63.2-6.6 20.7-9.5 35.3-26.3 41.8-47.9 2.2-7.4 2.7-11 2.7-20.5 0-16.9-3.6-29.3-12.3-42.4-16.2-24.1-43.8-36.9-72.7-33.5z"/></svg>