<svg width="356" height="1823" viewBox="0 0 356 1823" fill="none" xmlns="http://www.w3.org/2000/svg">
<g opacity="0.05">
<path d="M-44.412 380.833L-44.412 1212.5L69.1031 1212.5L69.1032 380.833L117.224 324.954L69.1032 265.349L69.1032 0.853651L-44.4119 0.853641L-44.412 265.349L-86.3632 324.954L-44.412 380.833Z" fill="#F47E3E"/>
<rect width="281.32" height="74.0316" transform="matrix(1 8.74228e-08 8.74228e-08 -1 15.4307 74.8843)" fill="#F47E3E"/>
<rect width="177.676" height="74.0316" transform="matrix(1 8.74228e-08 8.74228e-08 -1 15.4307 222.948)" fill="#F47E3E"/>
<path fill-rule="evenodd" clip-rule="evenodd" d="M15.4293 1140.94C203.507 1140.94 355.975 1293.41 355.975 1481.49C355.975 1669.56 203.507 1822.03 15.4292 1822.03C-172.649 1822.03 -325.116 1669.56 -325.116 1481.49C-325.116 1293.41 -172.649 1140.94 15.4293 1140.94ZM15.43 1226.71C-125.278 1226.71 -239.345 1340.78 -239.345 1481.48C-239.345 1622.19 -125.278 1736.26 15.4299 1736.26C156.138 1736.26 270.205 1622.19 270.205 1481.48C270.205 1340.78 156.138 1226.71 15.43 1226.71Z" fill="#F47E3E"/>
</g>
</svg>
