<svg width="1020" height="1070" viewBox="0 0 1020 1070" fill="none" xmlns="http://www.w3.org/2000/svg">
<g opacity="0.05">
<path d="M646.306 538.466L751.488 454.779L707.544 399.549L602.362 483.236L556.567 481.439L546.216 527.909L118.461 868.249L162.404 923.479L590.159 583.139L635.378 580.493L646.306 538.466Z" fill="#F47E3E"/>
<rect width="92.0883" height="45.9955" transform="matrix(-0.622614 -0.78253 -0.78253 0.622614 175.23 865.726)" fill="#F47E3E"/>
<rect width="63.2907" height="45.9955" transform="matrix(-0.622614 -0.78253 -0.78253 0.622614 319.201 751.176)" fill="#F47E3E"/>
<rect width="133.825" height="45.9955" transform="matrix(-0.622614 -0.78253 -0.78253 0.622614 247.217 808.451)" fill="#F47E3E"/>
<path fill-rule="evenodd" clip-rule="evenodd" d="M658.463 283.562L729.139 139.397L897.793 93.1413L1043.06 175.241L1101.35 348.979L1007.45 489.187L862.018 539.399L693.527 453.343L658.463 283.562ZM703.746 290.193L759.169 177.14L891.425 140.867L1005.34 205.249L1051.05 341.491L977.415 451.441L863.371 490.817L731.243 423.333L703.746 290.193Z" fill="#F47E3E"/>
</g>
</svg>
