<svg width="279" height="352" viewBox="0 0 279 352" fill="none" xmlns="http://www.w3.org/2000/svg">
<g opacity="0.3">
<path d="M140.432 160.595L120.42 127.5L103.055 138L123.067 171.095L120.874 184.094L133.749 188.761L215.131 323.352L232.496 312.852L151.114 178.261L152.018 165.263L140.432 160.595Z" fill="#F6AB52"/>
<rect width="18.1972" height="13.2344" transform="matrix(-0.855728 0.517426 0.517426 0.855728 216.494 307.063)" fill="#F6AB52"/>
<rect width="18.1972" height="13.2344" transform="matrix(-0.855728 0.517426 0.517426 0.855728 189.103 261.763)" fill="#F6AB52"/>
<rect width="31.7625" height="13.2344" transform="matrix(-0.855728 0.517426 0.517426 0.855728 202.798 284.413)" fill="#F6AB52"/>
<path fill-rule="evenodd" clip-rule="evenodd" d="M117.886 143.983L29.6464 122.243L51.3858 34.004L139.625 55.7434L117.886 143.983ZM108.202 127.968L123.61 65.427L61.0694 50.0189L45.6613 112.559L108.202 127.968Z" fill="#F6AB52"/>
</g>
</svg>
