<svg width="623" height="385" viewBox="0 0 623 385" fill="none" xmlns="http://www.w3.org/2000/svg">
<path opacity="0.5" d="M623.294 128.507C571.494 132.007 497.594 183.207 460.194 200.007C431.094 213.107 405.994 224.407 384.094 224.407C361.494 224.407 358.094 208.207 362.794 172.507C363.894 164.507 374.494 93.3072 320.094 96.4072C294.994 97.9072 255.794 121.207 150.594 222.407L192.094 118.707C222.494 42.8072 138.894 -32.7928 62.394 15.9072L7.49396 52.8072C0.0939598 57.5072 -2.10604 67.4072 2.59396 74.9072L19.794 101.907C24.494 109.407 34.394 111.607 41.894 106.807L99.894 67.9072C118.294 56.2071 140.594 75.1072 132.594 95.0072L34.394 340.607C27.594 357.507 37.094 384.507 64.094 384.507C72.394 384.507 80.594 381.307 86.694 375.107C128.894 332.907 241.394 224.407 297.894 179.307C295.694 207.807 295.794 238.207 318.494 263.107C333.794 279.907 355.794 288.407 383.994 288.407C419.594 288.407 451.994 273.807 486.294 258.407C519.294 243.607 585.294 195.807 624.694 192.607C633.194 191.907 639.894 185.307 639.894 176.807V144.707C640.094 135.607 632.394 127.907 623.294 128.507Z" fill="#FBE4CE"/>
</svg>
